handy0.ufo
<glyph name="uni0000" format="2">
  <advance width="663"/>
  <unicode hex="0000"/>
  <outline>
    <contour>
      <point x="527" y="1239" type="line"/>
      <point x="117" y="1239" type="line"/>
      <point x="117" y="281" type="line"/>
      <point x="527" y="281" type="line"/>
    </contour>
    <contour>
      <point x="66" y="1341" type="qcurve" smooth="yes"/>
      <point x="578" y="1341" type="line" smooth="yes"/>
      <point x="599" y="1341"/>
      <point x="629" y="1311"/>
      <point x="629" y="1290" type="qcurve" smooth="yes"/>
      <point x="629" y="229" type="line" smooth="yes"/>
      <point x="629" y="208"/>
      <point x="599" y="178"/>
      <point x="578" y="178" type="qcurve" smooth="yes"/>
      <point x="66" y="178" type="line" smooth="yes"/>
      <point x="43" y="178"/>
      <point x="15" y="208"/>
      <point x="15" y="229" type="qcurve" smooth="yes"/>
      <point x="15" y="1290" type="line" smooth="yes"/>
      <point x="15" y="1311"/>
      <point x="43" y="1341"/>
    </contour>
  </outline>
</glyph>
<glyph name="exclam" format="2">
  <advance width="822"/>
  <unicode hex="0021"/>
  <outline>
    <contour>
      <point x="485" y="256" type="qcurve" smooth="yes"/>
      <point x="580" y="270" type="line"/>
      <point x="582" y="262"/>
      <point x="586" y="254" type="qcurve" smooth="yes"/>
      <point x="596" y="236"/>
      <point x="596" y="182"/>
      <point x="540" y="76"/>
      <point x="486" y="76"/>
      <point x="440" y="192"/>
      <point x="440" y="222" type="qcurve" smooth="yes"/>
      <point x="440" y="254" type="line" smooth="yes"/>
      <point x="440" y="258"/>
      <point x="446" y="263"/>
      <point x="450" y="261" type="qcurve" smooth="yes"/>
      <point x="458" y="256"/>
    </contour>
    <contour>
      <point x="667" y="728" type="qcurve" smooth="yes"/>
      <point x="667" y="587" type="line"/>
      <point x="668" y="536"/>
      <point x="668" y="492" type="qcurve" smooth="yes"/>
      <point x="668" y="406"/>
      <point x="575" y="365" type="qcurve" smooth="yes"/>
      <point x="567" y="362"/>
      <point x="542" y="348" type="qcurve" smooth="yes"/>
      <point x="503" y="327"/>
      <point x="475" y="327" type="qcurve" smooth="yes"/>
      <point x="468" y="326"/>
      <point x="461" y="328" type="qcurve" smooth="yes"/>
      <point x="460" y="328"/>
      <point x="447" y="330" type="qcurve" smooth="yes"/>
      <point x="438" y="332"/>
      <point x="432" y="334"/>
      <point x="421" y="337"/>
      <point x="419" y="341"/>
      <point x="416" y="344" type="qcurve" smooth="yes"/>
      <point x="414" y="348"/>
      <point x="414" y="352" type="qcurve" smooth="yes"/>
      <point x="412" y="366"/>
      <point x="412" y="377" type="qcurve" smooth="yes"/>
      <point x="412" y="406" type="line"/>
      <point x="420" y="410" type="line"/>
      <point x="434" y="430" type="line" smooth="yes"/>
      <point x="445" y="447"/>
      <point x="466" y="467" type="qcurve" smooth="yes"/>
      <point x="507" y="507"/>
      <point x="518" y="545" type="qcurve" smooth="yes"/>
      <point x="546" y="642"/>
      <point x="546" y="681" type="qcurve" smooth="yes"/>
      <point x="546" y="694"/>
      <point x="543" y="700" type="qcurve"/>
      <point x="544" y="712"/>
      <point x="544" y="725" type="qcurve" smooth="yes"/>
      <point x="544" y="725"/>
      <point x="544" y="728" type="qcurve" smooth="yes"/>
      <point x="544" y="838"/>
      <point x="458" y="1036" type="qcurve" smooth="yes"/>
      <point x="387" y="1199"/>
      <point x="387" y="1262" type="qcurve"/>
      <point x="379" y="1291"/>
      <point x="403" y="1291" type="qcurve" smooth="yes"/>
      <point x="404" y="1291"/>
      <point x="423" y="1291"/>
      <point x="465" y="1274" type="qcurve"/>
      <point x="532" y="1257"/>
      <point x="575" y="1147" type="qcurve" smooth="yes"/>
      <point x="621" y="1037"/>
      <point x="630" y="974"/>
      <point x="645" y="934"/>
      <point x="645" y="926" type="qcurve" smooth="yes"/>
      <point x="653" y="885" type="line"/>
      <point x="653" y="858"/>
      <point x="670" y="783"/>
      <point x="667" y="756"/>
    </contour>
  </outline>
</glyph>
<glyph name="quotedbl" format="2">
  <advance width="567"/>
  <unicode hex="0022"/>
  <outline>
    <contour>
      <point x="269" y="1364" type="qcurve" smooth="yes"/>
      <point x="269" y="1353"/>
      <point x="283" y="1267"/>
      <point x="279" y="1246"/>
      <point x="283" y="1218"/>
      <point x="277" y="1212"/>
      <point x="277" y="1200" type="qcurve"/>
      <point x="248" y="1163" type="line"/>
      <point x="245" y="1173" type="line"/>
      <point x="245" y="1193"/>
      <point x="256" y="1235"/>
      <point x="245" y="1281"/>
      <point x="237" y="1309"/>
      <point x="225" y="1328"/>
      <point x="217" y="1337"/>
      <point x="201" y="1350"/>
      <point x="199" y="1352" type="qcurve"/>
      <point x="187" y="1348" type="line"/>
      <point x="187" y="1339" type="line" smooth="yes"/>
      <point x="187" y="1336"/>
      <point x="159" y="1311"/>
      <point x="155" y="1311" type="qcurve" smooth="yes"/>
      <point x="143" y="1311"/>
      <point x="128" y="1372"/>
      <point x="126.5" y="1377" type="qcurve" smooth="yes"/>
      <point x="116.78" y="1409.4"/>
      <point x="154" y="1464"/>
      <point x="202" y="1464"/>
      <point x="269" y="1405"/>
    </contour>
    <contour>
      <point x="478" y="1253" type="qcurve" smooth="yes"/>
      <point x="478" y="1183"/>
      <point x="453" y="1180" type="qcurve" smooth="yes"/>
      <point x="444" y="1179"/>
      <point x="434" y="1179" type="qcurve"/>
      <point x="447" y="1185"/>
      <point x="453" y="1234"/>
      <point x="442" y="1281"/>
      <point x="434" y="1309"/>
      <point x="422" y="1328"/>
      <point x="414" y="1337"/>
      <point x="398" y="1350"/>
      <point x="396" y="1352" type="qcurve"/>
      <point x="384" y="1348" type="line"/>
      <point x="384" y="1339" type="line" smooth="yes"/>
      <point x="384" y="1336"/>
      <point x="356" y="1311"/>
      <point x="348" y="1311"/>
      <point x="332" y="1341"/>
      <point x="329" y="1352"/>
      <point x="324" y="1372"/>
      <point x="322.5" y="1377" type="qcurve" smooth="yes"/>
      <point x="312.78" y="1409.4"/>
      <point x="350" y="1464"/>
      <point x="402" y="1464"/>
      <point x="457" y="1410"/>
      <point x="463" y="1378.5" type="qcurve" smooth="yes"/>
      <point x="479.143" y="1293.75"/>
      <point x="479.143" y="1253.38"/>
    </contour>
  </outline>
</glyph>
<glyph name="numbersign" format="2">
  <advance width="1410"/>
  <unicode hex="0023"/>
  <outline>
    <contour>
      <point x="614" y="371" type="line"/>
      <point x="491" y="342"/>
      <point x="406" y="248" type="qcurve"/>
      <point x="397" y="260" type="line"/>
      <point x="438" y="346" type="line"/>
      <point x="508" y="420" type="line"/>
      <point x="606" y="465" type="line"/>
      <point x="646" y="465" type="line"/>
      <point x="646" y="489"/>
      <point x="646" y="577"/>
      <point x="636" y="647" type="qcurve"/>
      <point x="615" y="641"/>
      <point x="614" y="641" type="qcurve" smooth="yes"/>
      <point x="491" y="612"/>
      <point x="406" y="518" type="qcurve"/>
      <point x="397" y="530" type="line"/>
      <point x="438" y="616" type="line"/>
      <point x="508" y="690" type="line"/>
      <point x="606" y="735" type="line"/>
      <point x="616" y="735" type="line"/>
      <point x="616" y="736"/>
      <point x="616" y="737" type="qcurve" smooth="yes"/>
      <point x="586" y="863"/>
      <point x="494" y="946" type="qcurve"/>
      <point x="506" y="954" type="line"/>
      <point x="592" y="913" type="line"/>
      <point x="666" y="844" type="line"/>
      <point x="711" y="745" type="line"/>
      <point x="711" y="731" type="line"/>
      <point x="950" y="731" type="line"/>
      <point x="999" y="731" type="line"/>
      <point x="998" y="735"/>
      <point x="997" y="737" type="qcurve" smooth="yes"/>
      <point x="967" y="861"/>
      <point x="874" y="946" type="qcurve"/>
      <point x="887" y="954" type="line"/>
      <point x="973" y="913" type="line"/>
      <point x="1047" y="844" type="line"/>
      <point x="1092" y="745" type="line"/>
      <point x="1092" y="721" type="line"/>
      <point x="1130" y="715" type="line"/>
      <point x="1147" y="711" type="line" smooth="yes"/>
      <point x="1156" y="711"/>
      <point x="1171" y="705" type="qcurve"/>
      <point x="1201" y="705"/>
      <point x="1262" y="652"/>
      <point x="1262" y="619"/>
      <point x="1255" y="588"/>
      <point x="1253" y="588" type="qcurve" smooth="yes"/>
      <point x="1184" y="633" type="line" smooth="yes"/>
      <point x="1151" y="657"/>
      <point x="1092" y="668" type="qcurve"/>
      <point x="1092" y="450" type="line"/>
      <point x="1130" y="444" type="line"/>
      <point x="1147" y="440" type="line" smooth="yes"/>
      <point x="1156" y="440"/>
      <point x="1171" y="434" type="qcurve"/>
      <point x="1201" y="434"/>
      <point x="1262" y="381"/>
      <point x="1262" y="348"/>
      <point x="1255" y="317"/>
      <point x="1253" y="317" type="qcurve" smooth="yes"/>
      <point x="1184" y="362" type="line" smooth="yes"/>
      <point x="1151" y="386"/>
      <point x="1092" y="397" type="qcurve"/>
      <point x="1092" y="303" type="line"/>
      <point x="1071" y="221" type="line"/>
      <point x="1067" y="205" type="line" smooth="yes"/>
      <point x="1067" y="196"/>
      <point x="1061" y="180" type="qcurve"/>
      <point x="1061" y="150"/>
      <point x="1009" y="90"/>
      <point x="981" y="90" type="qcurve" smooth="yes"/>
      <point x="975" y="90"/>
      <point x="944" y="96"/>
      <point x="944" y="98" type="qcurve" smooth="yes"/>
      <point x="989" y="168" type="line"/>
      <point x="1030" y="234"/>
      <point x="1030" y="405" type="qcurve"/>
      <point x="966" y="403"/>
      <point x="935" y="403" type="qcurve" smooth="yes"/>
      <point x="935" y="403"/>
      <point x="825" y="403" type="qcurve" smooth="yes"/>
      <point x="778" y="403"/>
      <point x="710" y="391" type="qcurve"/>
      <point x="710" y="303" type="line"/>
      <point x="690" y="221" type="line"/>
      <point x="686" y="205" type="line" smooth="yes"/>
      <point x="686" y="196"/>
      <point x="680" y="180" type="qcurve"/>
      <point x="680" y="150"/>
      <point x="628" y="90"/>
      <point x="600" y="90" type="qcurve" smooth="yes"/>
      <point x="594" y="90"/>
      <point x="563" y="96"/>
      <point x="563" y="98" type="qcurve" smooth="yes"/>
      <point x="608" y="168" type="line"/>
      <point x="650" y="232"/>
      <point x="650" y="381" type="qcurve"/>
    </contour>
    <contour>
      <point x="852" y="676" type="line"/>
      <point x="782" y="676"/>
      <point x="711" y="661" type="qcurve"/>
      <point x="711" y="459" type="line"/>
      <point x="950" y="459" type="line"/>
      <point x="1027" y="459" type="line"/>
      <point x="1027.5" y="488"/>
      <point x="1027.5" y="588"/>
      <point x="1014" y="672"/>
      <point x="1014" y="676" type="qcurve"/>
    </contour>
  </outline>
</glyph>
<glyph name="dollar" format="2">
  <advance width="733"/>
  <unicode hex="0024"/>
  <outline>
    <contour>
      <point x="115" y="1373" type="line"/>
      <point x="112" y="1322" type="line"/>
      <point x="112" y="1208"/>
      <point x="214" y="1084" type="qcurve"/>
      <point x="240" y="1272"/>
      <point x="333" y="1445" type="qcurve"/>
      <point x="308" y="1457"/>
      <point x="207" y="1471"/>
      <point x="176" y="1480" type="qcurve"/>
      <point x="170" y="1480" type="line" smooth="yes"/>
      <point x="163" y="1480"/>
      <point x="118" y="1477" type="qcurve"/>
      <point x="112" y="1466"/>
      <point x="112" y="1439" type="qcurve"/>
    </contour>
    <contour>
      <point x="335" y="794" type="qcurve"/>
      <point x="334" y="782"/>
      <point x="334" y="758" type="qcurve" smooth="yes"/>
      <point x="334" y="634"/>
      <point x="427" y="376"/>
      <point x="513" y="207" type="qcurve"/>
      <point x="522" y="251"/>
      <point x="522" y="334" type="qcurve" smooth="yes"/>
      <point x="522" y="371" type="line"/>
      <point x="517.5" y="411.5"/>
      <point x="503" y="556"/>
      <point x="480" y="600"/>
      <point x="480" y="601" type="qcurve" smooth="yes"/>
      <point x="442" y="685"/>
    </contour>
    <contour>
      <point x="650" y="325" type="line"/>
      <point x="656" y="186" type="line"/>
      <point x="657" y="118"/>
      <point x="620" y="77" type="qcurve"/>
      <point x="626" y="67"/>
      <point x="608" y="40"/>
      <point x="608" y="39" type="qcurve" smooth="yes"/>
      <point x="614" y="9"/>
      <point x="614" y="-13"/>
      <point x="578" y="-43"/>
      <point x="553" y="-43" type="qcurve" smooth="yes"/>
      <point x="500.2" y="-43"/>
      <point x="484" y="11" type="qcurve"/>
      <point x="481" y="17" type="line"/>
      <point x="445" y="8"/>
      <point x="400.5" y="8" type="qcurve" smooth="yes"/>
      <point x="300.922" y="8"/>
      <point x="199" y="64.5" type="qcurve" smooth="yes"/>
      <point x="154" y="90"/>
      <point x="99" y="118"/>
      <point x="50" y="156" type="qcurve" smooth="yes"/>
      <point x="31" y="172"/>
      <point x="31" y="213"/>
      <point x="68" y="244"/>
      <point x="118" y="244"/>
      <point x="192" y="193"/>
      <point x="220" y="177"/>
      <point x="231" y="171"/>
      <point x="244" y="165"/>
      <point x="247" y="163" type="qcurve" smooth="yes"/>
      <point x="348" y="111"/>
      <point x="401" y="111" type="qcurve" smooth="yes"/>
      <point x="416" y="111"/>
      <point x="423" y="112" type="qcurve"/>
      <point x="421" y="116"/>
      <point x="366" y="224"/>
      <point x="357" y="243"/>
      <point x="309" y="343"/>
      <point x="297" y="375"/>
      <point x="259" y="465"/>
      <point x="247" y="510"/>
      <point x="222" y="592"/>
      <point x="206" y="708"/>
      <point x="206" y="779"/>
      <point x="210" y="827" type="qcurve"/>
      <point x="205" y="876"/>
      <point x="204" y="922" type="qcurve"/>
      <point x="100" y="1025"/>
      <point x="-16" y="1211"/>
      <point x="-16" y="1322" type="qcurve"/>
      <point x="-13" y="1373" type="line"/>
      <point x="-16" y="1439" type="line"/>
      <point x="-16" y="1559"/>
      <point x="92" y="1578" type="qcurve" smooth="yes"/>
      <point x="96" y="1579"/>
      <point x="105" y="1579" type="qcurve" smooth="yes"/>
      <point x="167" y="1582" type="line"/>
      <point x="200" y="1582"/>
      <point x="235" y="1571"/>
      <point x="354" y="1555"/>
      <point x="389" y="1538" type="qcurve"/>
      <point x="422" y="1588"/>
      <point x="480" y="1657"/>
      <point x="542" y="1657"/>
      <point x="579" y="1626"/>
      <point x="579" y="1591"/>
      <point x="568" y="1577" type="qcurve" smooth="yes"/>
      <point x="519" y="1518"/>
      <point x="490" y="1472" type="qcurve"/>
      <point x="522" y="1445"/>
      <point x="522" y="1400"/>
      <point x="486" y="1370"/>
      <point x="445" y="1370"/>
      <point x="434" y="1374" type="qcurve"/>
      <point x="337" y="1178"/>
      <point x="332" y="959" type="qcurve"/>
      <point x="365" y="933"/>
      <point x="502" y="788"/>
      <point x="520" y="764" type="qcurve" smooth="yes"/>
      <point x="628" y="628"/>
      <point x="640" y="512" type="qcurve" smooth="yes"/>
      <point x="642" y="488"/>
      <point x="648" y="399"/>
      <point x="650" y="377" type="qcurve"/>
    </contour>
  </outline>
</glyph>
<glyph name="ampersand" format="2">
  <advance width="821"/>
  <unicode hex="0026"/>
  <outline>
    <contour>
      <point x="601" y="461" type="qcurve"/>
      <point x="627" y="490"/>
      <point x="663" y="490"/>
      <point x="687" y="464"/>
      <point x="687" y="416"/>
      <point x="659" y="400"/>
      <point x="651" y="388" type="qcurve"/>
      <point x="706" y="303"/>
      <point x="742" y="235" type="qcurve"/>
      <point x="772" y="226"/>
      <point x="772" y="198" type="qcurve" smooth="yes"/>
      <point x="772" y="144"/>
      <point x="695" y="144"/>
      <point x="683" y="170" type="qcurve" smooth="yes"/>
      <point x="658" y="221"/>
      <point x="611" y="296" type="qcurve"/>
      <point x="582" y="217"/>
      <point x="533" y="167"/>
      <point x="499" y="125"/>
      <point x="479" y="102" type="qcurve" smooth="yes"/>
      <point x="432" y="48"/>
      <point x="335" y="48" type="qcurve" smooth="yes"/>
      <point x="332" y="48" type="line" smooth="yes"/>
      <point x="284" y="48"/>
      <point x="238" y="81" type="qcurve" smooth="yes"/>
      <point x="225" y="90"/>
      <point x="150" y="134"/>
      <point x="80" y="215"/>
      <point x="80" y="300" type="qcurve" smooth="yes"/>
      <point x="80" y="341"/>
      <point x="125.5" y="418.5" type="qcurve" smooth="yes"/>
      <point x="180.815" y="512.718"/>
      <point x="300" y="654"/>
      <point x="335" y="698" type="qcurve"/>
      <point x="209" y="892"/>
      <point x="113" y="1070"/>
      <point x="86" y="1242"/>
      <point x="86" y="1516"/>
      <point x="136" y="1574" type="qcurve" smooth="yes"/>
      <point x="167" y="1611"/>
      <point x="214" y="1611" type="qcurve" smooth="yes"/>
      <point x="265" y="1612" type="line"/>
      <point x="375" y="1612"/>
      <point x="432" y="1545" type="qcurve" smooth="yes"/>
      <point x="536" y="1422"/>
      <point x="544" y="1128" type="qcurve"/>
      <point x="554" y="1077"/>
      <point x="554" y="1025" type="qcurve" smooth="yes"/>
      <point x="554" y="858"/>
      <point x="438" y="694" type="qcurve"/>
      <point x="465" y="655"/>
      <point x="574" y="500"/>
    </contour>
    <contour>
      <point x="233" y="1242" type="qcurve" smooth="yes"/>
      <point x="233" y="1153" type="line" smooth="yes"/>
      <point x="233" y="1098"/>
      <point x="243" y="1062" type="qcurve"/>
      <point x="243" y="1036"/>
      <point x="344" y="933"/>
      <point x="344" y="903" type="qcurve" smooth="yes"/>
      <point x="344" y="892" type="line"/>
      <point x="360" y="881"/>
      <point x="363" y="881" type="qcurve" smooth="yes"/>
      <point x="384" y="881"/>
      <point x="429" y="1009"/>
      <point x="435" y="1023"/>
      <point x="440" y="1074"/>
      <point x="444" y="1092"/>
      <point x="448.5" y="1118" type="qcurve" smooth="yes"/>
      <point x="452" y="1144"/>
      <point x="462" y="1216"/>
      <point x="458" y="1235" type="qcurve"/>
      <point x="465" y="1305"/>
      <point x="406" y="1422"/>
      <point x="354" y="1452" type="qcurve"/>
      <point x="278" y="1452"/>
      <point x="233" y="1324"/>
    </contour>
    <contour>
      <point x="467" y="256" type="qcurve"/>
      <point x="473" y="345" type="line"/>
      <point x="476" y="369"/>
      <point x="462" y="431"/>
      <point x="460" y="447"/>
      <point x="458.5" y="463" type="qcurve" smooth="yes"/>
      <point x="456.571" y="483.571"/>
      <point x="448" y="505" type="qcurve" smooth="yes"/>
      <point x="439" y="524"/>
      <point x="412" y="518" type="qcurve"/>
      <point x="364" y="503" type="line"/>
      <point x="251" y="414"/>
      <point x="243" y="293" type="qcurve"/>
      <point x="243" y="238" type="line"/>
      <point x="261" y="168"/>
      <point x="369" y="168" type="qcurve" smooth="yes"/>
      <point x="400" y="168"/>
      <point x="467" y="221"/>
    </contour>
  </outline>
</glyph>
<glyph name="quotesingle" format="2">
  <advance width="2048"/>
  <unicode hex="0027"/>
  <outline>
    <contour>
      <point x="1325" y="1348" type="line"/>
      <point x="1325" y="1339" type="line" smooth="yes"/>
      <point x="1325" y="1336"/>
      <point x="1297" y="1311"/>
      <point x="1293" y="1311" type="qcurve" smooth="yes"/>
      <point x="1281" y="1311"/>
      <point x="1266" y="1372"/>
      <point x="1263" y="1382"/>
      <point x="1261" y="1400"/>
      <point x="1262" y="1406" type="qcurve" smooth="yes"/>
      <point x="1265" y="1424"/>
      <point x="1272" y="1434" type="qcurve" smooth="yes"/>
      <point x="1311" y="1495"/>
      <point x="1374" y="1434" type="qcurve" smooth="yes"/>
      <point x="1407" y="1401"/>
      <point x="1407" y="1364" type="qcurve" smooth="yes"/>
      <point x="1408" y="1354"/>
      <point x="1412" y="1330" type="qcurve" smooth="yes"/>
      <point x="1422" y="1280"/>
      <point x="1419" y="1249"/>
      <point x="1418" y="1225"/>
      <point x="1417.5" y="1217" type="qcurve" smooth="yes"/>
      <point x="1417" y="1210"/>
      <point x="1415" y="1200" type="qcurve" smooth="yes"/>
      <point x="1411" y="1180"/>
      <point x="1395" y="1180" type="qcurve" smooth="yes"/>
      <point x="1386" y="1180"/>
      <point x="1376" y="1179" type="qcurve"/>
      <point x="1389" y="1185"/>
      <point x="1394" y="1235"/>
      <point x="1383" y="1281"/>
      <point x="1375" y="1309"/>
      <point x="1363" y="1328"/>
      <point x="1355" y="1337"/>
      <point x="1339" y="1350"/>
      <point x="1337" y="1352" type="qcurve" smooth="yes"/>
    </contour>
    <contour>
      <point x="1376" y="1179" type="qcurve"/>
      <point x="1369" y="1176"/>
      <point x="1358" y="1176" type="qcurve"/>
      <point x="1365" y="1177"/>
      <point x="1374" y="1179"/>
    </contour>
  </outline>
</glyph>
<glyph name="parenleft" format="2">
  <advance width="1097"/>
  <unicode hex="0028"/>
  <outline>
    <contour>
      <point x="569" y="823" type="line"/>
      <point x="606" y="460.4"/>
      <point x="606" y="340" type="qcurve"/>
      <point x="610" y="296" type="line"/>
      <point x="618" y="256"/>
      <point x="654" y="53"/>
      <point x="689" y="-104"/>
      <point x="771" y="-372" type="qcurve"/>
      <point x="787" y="-411" type="line" smooth="yes"/>
      <point x="791" y="-423"/>
      <point x="791" y="-451"/>
      <point x="760" y="-481"/>
      <point x="703" y="-481"/>
      <point x="692" y="-449" type="qcurve"/>
      <point x="675" y="-408" type="line" smooth="yes"/>
      <point x="674" y="-407"/>
      <point x="590" y="-123"/>
      <point x="554" y="34"/>
      <point x="516" y="247"/>
      <point x="508" y="284"/>
      <point x="508" y="291" type="qcurve" smooth="yes"/>
      <point x="504" y="340" type="line"/>
      <point x="504" y="449"/>
      <point x="466" y="819"/>
      <point x="466" y="839" type="qcurve"/>
      <point x="475" y="955" type="line"/>
      <point x="475" y="1005"/>
      <point x="492" y="1071"/>
      <point x="492" y="1090" type="qcurve" smooth="yes"/>
      <point x="492" y="1098" type="line"/>
      <point x="508" y="1192" type="line"/>
      <point x="508" y="1258"/>
      <point x="536" y="1341"/>
      <point x="549" y="1402"/>
      <point x="554" y="1437"/>
      <point x="565" y="1470"/>
      <point x="565" y="1474" type="qcurve" smooth="yes"/>
      <point x="565" y="1479" type="line" smooth="yes"/>
      <point x="565" y="1484"/>
      <point x="569" y="1498" type="qcurve" smooth="yes"/>
      <point x="578" y="1525" type="line"/>
      <point x="581" y="1548"/>
      <point x="588" y="1572"/>
      <point x="602" y="1638"/>
      <point x="630" y="1690"/>
      <point x="683" y="1690"/>
      <point x="713" y="1660"/>
      <point x="713" y="1638" type="qcurve"/>
      <point x="680" y="1517" type="line"/>
      <point x="655" y="1414" type="line"/>
      <point x="655" y="1409" type="line" smooth="yes"/>
      <point x="655" y="1399"/>
      <point x="648" y="1379"/>
      <point x="634" y="1312"/>
      <point x="610" y="1240"/>
      <point x="610" y="1171"/>
      <point x="594" y="1107"/>
      <point x="594" y="1099" type="qcurve" smooth="yes"/>
      <point x="594" y="1088" type="line" smooth="yes"/>
      <point x="594" y="1053"/>
      <point x="578" y="989"/>
      <point x="578" y="954" type="qcurve"/>
      <point x="569" y="839" type="line"/>
    </contour>
  </outline>
</glyph>
<glyph name="parenright" format="2">
  <advance width="1097"/>
  <unicode hex="0029"/>
  <outline>
    <contour>
      <point x="765" y="111" type="line"/>
      <point x="749" y="16" type="line"/>
      <point x="749" y="-49"/>
      <point x="721" y="-132"/>
      <point x="708" y="-194"/>
      <point x="703" y="-228"/>
      <point x="691" y="-264"/>
      <point x="691" y="-266" type="qcurve" smooth="yes"/>
      <point x="691" y="-270" type="line"/>
      <point x="675" y="-338" type="line"/>
      <point x="675" y="-343"/>
      <point x="670" y="-362"/>
      <point x="662.5" y="-394" type="qcurve" smooth="yes"/>
      <point x="655" y="-426"/>
      <point x="626" y="-481"/>
      <point x="574" y="-481"/>
      <point x="544" y="-451"/>
      <point x="544" y="-430" type="qcurve"/>
      <point x="577" y="-309" type="line"/>
      <point x="602" y="-206" type="line"/>
      <point x="601" y="-201" type="line"/>
      <point x="601" y="-192"/>
      <point x="609" y="-170"/>
      <point x="615.5" y="-136" type="qcurve" smooth="yes"/>
      <point x="622" y="-102"/>
      <point x="634" y="-66" type="qcurve" smooth="yes"/>
      <point x="646" y="-30"/>
      <point x="646" y="16" type="qcurve"/>
      <point x="663" y="110" type="line"/>
      <point x="662" y="121" type="line"/>
      <point x="662" y="151"/>
      <point x="679" y="219"/>
      <point x="679" y="254" type="qcurve"/>
      <point x="688" y="369" type="line"/>
      <point x="688" y="385" type="line"/>
      <point x="684" y="435"/>
      <point x="667" y="597" type="qcurve" smooth="yes"/>
      <point x="650" y="759"/>
      <point x="650" y="868" type="qcurve"/>
      <point x="646" y="912" type="line"/>
      <point x="638" y="952"/>
      <point x="602" y="1155"/>
      <point x="567" y="1312"/>
      <point x="485" y="1580" type="qcurve"/>
      <point x="470" y="1619" type="line" smooth="yes"/>
      <point x="466" y="1631"/>
      <point x="466" y="1660"/>
      <point x="496" y="1690"/>
      <point x="524.5" y="1690" type="qcurve" smooth="yes"/>
      <point x="553" y="1690"/>
      <point x="565" y="1657" type="qcurve" smooth="yes"/>
      <point x="581" y="1616" type="line"/>
      <point x="583" y="1614"/>
      <point x="667" y="1331"/>
      <point x="703" y="1174"/>
      <point x="741" y="961"/>
      <point x="749" y="925"/>
      <point x="749" y="918" type="qcurve" smooth="yes"/>
      <point x="753" y="868" type="line"/>
      <point x="754" y="759"/>
      <point x="773" y="574" type="qcurve" smooth="yes"/>
      <point x="792" y="389"/>
      <point x="791" y="369" type="qcurve" smooth="yes"/>
      <point x="782" y="254" type="line"/>
      <point x="782" y="203"/>
      <point x="765" y="137"/>
      <point x="765" y="119" type="qcurve" smooth="yes"/>
    </contour>
  </outline>
</glyph>
<glyph name="asterisk" format="2">
  <advance width="860"/>
  <unicode hex="002A"/>
  <outline>
    <contour>
      <point x="484" y="673" type="qcurve"/>
      <point x="498" y="549" type="line"/>
      <point x="498" y="528"/>
      <point x="468" y="498"/>
      <point x="427" y="498"/>
      <point x="398" y="525"/>
      <point x="394" y="569"/>
      <point x="387" y="628"/>
      <point x="377" y="699"/>
      <point x="375" y="719" type="qcurve"/>
      <point x="327" y="675"/>
      <point x="308" y="644"/>
      <point x="300" y="637" type="qcurve" smooth="yes"/>
      <point x="210" y="559" type="line" smooth="yes"/>
      <point x="195" y="547"/>
      <point x="155" y="547"/>
      <point x="125" y="577"/>
      <point x="125" y="621"/>
      <point x="143" y="637" type="qcurve" smooth="yes"/>
      <point x="225" y="708" type="line"/>
      <point x="233" y="721"/>
      <point x="264" y="754" type="qcurve"/>
      <point x="102" y="756" type="line" smooth="yes"/>
      <point x="81" y="756"/>
      <point x="51" y="786"/>
      <point x="51" y="828"/>
      <point x="81" y="858"/>
      <point x="102" y="858" type="qcurve" smooth="yes"/>
      <point x="253" y="857" type="line"/>
      <point x="233" y="876"/>
      <point x="200" y="919" type="qcurve" smooth="yes"/>
      <point x="162.771" y="969.026"/>
      <point x="121" y="1007"/>
      <point x="121" y="1049"/>
      <point x="151" y="1079"/>
      <point x="170.5" y="1079" type="qcurve" smooth="yes"/>
      <point x="206.37" y="1079"/>
      <point x="326" y="922"/>
      <point x="354" y="908" type="qcurve"/>
      <point x="346" y="994"/>
      <point x="346" y="1069" type="qcurve" smooth="yes"/>
      <point x="346" y="1085" type="line" smooth="yes"/>
      <point x="346" y="1107"/>
      <point x="376" y="1137"/>
      <point x="419" y="1137"/>
      <point x="449" y="1107"/>
      <point x="449" y="1085" type="qcurve" smooth="yes"/>
      <point x="449" y="1069" type="line" smooth="yes"/>
      <point x="449" y="985"/>
      <point x="458" y="895" type="qcurve"/>
      <point x="555" y="960"/>
      <point x="605" y="1066" type="qcurve" smooth="yes"/>
      <point x="620" y="1096"/>
      <point x="651" y="1096" type="qcurve" smooth="yes"/>
      <point x="660" y="1096"/>
      <point x="677" y="1088" type="qcurve" smooth="yes"/>
      <point x="711" y="1072"/>
      <point x="711" y="1009"/>
      <point x="684" y="995" type="qcurve"/>
      <point x="642" y="916"/>
      <point x="573" y="855" type="qcurve"/>
      <point x="639" y="854"/>
      <point x="772" y="850" type="qcurve" smooth="yes"/>
      <point x="791" y="850"/>
      <point x="821" y="820"/>
      <point x="821" y="778"/>
      <point x="791" y="748"/>
      <point x="770" y="748" type="qcurve" smooth="yes"/>
      <point x="768" y="748" type="line"/>
      <point x="624" y="752"/>
      <point x="550" y="752" type="qcurve"/>
      <point x="591" y="710"/>
      <point x="675" y="626" type="qcurve" smooth="yes"/>
      <point x="690" y="611"/>
      <point x="690" y="569"/>
      <point x="660" y="539"/>
      <point x="618" y="539"/>
      <point x="604" y="553" type="qcurve" smooth="yes"/>
      <point x="566" y="592" type="line" smooth="yes"/>
      <point x="542" y="616"/>
      <point x="501" y="655"/>
    </contour>
  </outline>
</glyph>
<glyph name="plus" format="2">
  <advance width="798"/>
  <unicode hex="002B"/>
  <outline>
    <contour>
      <point x="439" y="697" type="line"/>
      <point x="442" y="566" type="line"/>
      <point x="442" y="452"/>
      <point x="413" y="423" type="qcurve" smooth="yes"/>
      <point x="372" y="382" type="line" smooth="yes"/>
      <point x="357" y="367"/>
      <point x="315" y="367"/>
      <point x="285" y="397"/>
      <point x="285" y="439"/>
      <point x="300" y="454" type="qcurve" smooth="yes"/>
      <point x="331" y="486" type="line"/>
      <point x="340" y="522"/>
      <point x="340" y="571" type="qcurve"/>
      <point x="336" y="696" type="line"/>
      <point x="336" y="714" type="line"/>
      <point x="270" y="711"/>
      <point x="215" y="694" type="qcurve"/>
      <point x="108" y="642" type="line" smooth="yes"/>
      <point x="96" y="637"/>
      <point x="65" y="637"/>
      <point x="35" y="667"/>
      <point x="35" y="720"/>
      <point x="64" y="734" type="qcurve" smooth="yes"/>
      <point x="174" y="788" type="line"/>
      <point x="256" y="811"/>
      <point x="326" y="816" type="qcurve"/>
      <point x="310" y="922" type="line"/>
      <point x="272" y="1055"/>
      <point x="272" y="1082"/>
      <point x="302" y="1112"/>
      <point x="331.5" y="1112" type="qcurve" smooth="yes"/>
      <point x="361" y="1112"/>
      <point x="373" y="1075" type="qcurve" smooth="yes"/>
      <point x="375" y="1068"/>
      <point x="401" y="974"/>
      <point x="411" y="944"/>
      <point x="411" y="941" type="qcurve" smooth="yes"/>
      <point x="430" y="817" type="line"/>
      <point x="551" y="814"/>
      <point x="572" y="803" type="qcurve" smooth="yes"/>
      <point x="672" y="752"/>
      <point x="712" y="732" type="qcurve" smooth="yes"/>
      <point x="752" y="712"/>
      <point x="752" y="659"/>
      <point x="722" y="629"/>
      <point x="687" y="629"/>
      <point x="630" y="658"/>
      <point x="534" y="708" type="qcurve"/>
      <point x="497" y="712"/>
      <point x="439" y="714" type="qcurve"/>
    </contour>
  </outline>
</glyph>
<glyph name="comma" format="2">
  <advance width="2048"/>
  <unicode hex="002C"/>
  <outline>
    <contour>
      <point x="1006" y="541" type="line" smooth="yes"/>
      <point x="984" y="541"/>
      <point x="956" y="518"/>
      <point x="956" y="498" type="qcurve" smooth="yes"/>
      <point x="956" y="473" type="line"/>
      <point x="999" y="455" type="line" smooth="yes"/>
      <point x="999" y="454"/>
      <point x="991" y="441"/>
      <point x="989" y="437"/>
      <point x="982" y="425"/>
      <point x="977" y="422"/>
      <point x="969" y="413"/>
      <point x="961" y="411"/>
      <point x="949" y="407"/>
      <point x="932" y="412" type="qcurve"/>
      <point x="900" y="412"/>
      <point x="858" y="473"/>
      <point x="846" y="542"/>
      <point x="848" y="625"/>
      <point x="925" y="689"/>
      <point x="975" y="682" type="qcurve"/>
      <point x="1040" y="696"/>
      <point x="1158" y="666"/>
      <point x="1237" y="595"/>
      <point x="1272" y="482"/>
      <point x="1257" y="418" type="qcurve"/>
      <point x="1258" y="402"/>
      <point x="1260" y="310"/>
      <point x="1264" y="225.5" type="qcurve" smooth="yes"/>
      <point x="1268" y="142"/>
      <point x="1184" y="-58"/>
      <point x="1061" y="-98" type="qcurve" smooth="yes"/>
      <point x="1037" y="-108"/>
      <point x="899" y="-183"/>
      <point x="890" y="-183" type="qcurve" smooth="yes"/>
      <point x="874" y="-184"/>
      <point x="944" y="-117" type="qcurve" smooth="yes"/>
      <point x="959" y="-102"/>
      <point x="1008" y="-59"/>
      <point x="1042" y="-28"/>
      <point x="1086" y="14"/>
      <point x="1116" y="51"/>
      <point x="1148" y="97"/>
      <point x="1166" y="143"/>
      <point x="1179" y="196"/>
      <point x="1178" y="256"/>
      <point x="1164" y="317"/>
      <point x="1174" y="419"/>
      <point x="1164" y="474" type="qcurve" smooth="yes"/>
      <point x="1154" y="535"/>
      <point x="1079" y="535" type="qcurve"/>
    </contour>
  </outline>
</glyph>
<glyph name="hyphen" format="2">
  <advance width="786"/>
  <unicode hex="002D"/>
  <outline>
    <contour>
      <point x="378" y="740" type="qcurve" smooth="yes"/>
      <point x="467" y="734"/>
      <point x="504" y="724"/>
      <point x="509" y="724"/>
      <point x="510" y="723" type="qcurve" smooth="yes"/>
      <point x="629" y="669" type="line" smooth="yes"/>
      <point x="630" y="668"/>
      <point x="632" y="668"/>
      <point x="633" y="667" type="qcurve" smooth="yes"/>
      <point x="699" y="630" type="line" smooth="yes"/>
      <point x="725" y="616"/>
      <point x="725" y="565"/>
      <point x="695" y="535"/>
      <point x="661" y="535"/>
      <point x="649" y="541" type="qcurve" smooth="yes"/>
      <point x="585" y="577" type="line"/>
      <point x="472" y="627" type="line"/>
      <point x="443" y="634"/>
      <point x="389" y="637" type="qcurve" smooth="yes"/>
      <point x="378" y="637" type="line" smooth="yes"/>
      <point x="354" y="637"/>
      <point x="255" y="619"/>
      <point x="215" y="616"/>
      <point x="191" y="610" type="qcurve" smooth="yes"/>
      <point x="156" y="600"/>
      <point x="128" y="600"/>
      <point x="98" y="630"/>
      <point x="98" y="668"/>
      <point x="120" y="697"/>
      <point x="131" y="700" type="qcurve" smooth="yes"/>
      <point x="142" y="704"/>
      <point x="158" y="708" type="qcurve" smooth="yes"/>
      <point x="194" y="718"/>
      <point x="241" y="721"/>
      <point x="342" y="740"/>
    </contour>
  </outline>
</glyph>
<glyph name="period" format="2">
  <advance width="274"/>
  <unicode hex="002E"/>
  <outline>
    <contour>
      <point x="47" y="124" type="qcurve" smooth="yes"/>
      <point x="29" y="175"/>
      <point x="95" y="252"/>
      <point x="197" y="238"/>
      <point x="234" y="137"/>
      <point x="168" y="60"/>
      <point x="66" y="74"/>
    </contour>
  </outline>
</glyph>
<glyph name="slash" format="2">
  <advance width="1400"/>
  <unicode hex="002F"/>
  <outline>
    <contour>
      <point x="1321" y="1579" type="line" smooth="yes"/>
      <point x="1342" y="1579"/>
      <point x="1372" y="1549"/>
      <point x="1372" y="1509"/>
      <point x="1344" y="1479"/>
      <point x="1316" y="1476"/>
      <point x="1266" y="1439"/>
      <point x="1227" y="1421"/>
      <point x="1117" y="1373"/>
      <point x="1088" y="1356"/>
      <point x="1086" y="1356"/>
      <point x="1020" y="1323"/>
      <point x="903" y="1240"/>
      <point x="801" y="1133"/>
      <point x="721" y="1035"/>
      <point x="676.5" y="964.5" type="qcurve" smooth="yes"/>
      <point x="626.385" y="885.104"/>
      <point x="458" y="590"/>
      <point x="451" y="582" type="qcurve" smooth="yes"/>
      <point x="224" y="310"/>
      <point x="146" y="7" type="qcurve" smooth="yes"/>
      <point x="136.5" y="-31"/>
      <point x="94.5" y="-31" type="qcurve" smooth="yes"/>
      <point x="75" y="-31"/>
      <point x="45" y="-1"/>
      <point x="45" y="26"/>
      <point x="47" y="34" type="qcurve" smooth="yes"/>
      <point x="134" y="361"/>
      <point x="370" y="644" type="qcurve"/>
      <point x="396" y="688"/>
      <point x="459.5" y="800" type="qcurve" smooth="yes"/>
      <point x="524" y="912"/>
      <point x="558" y="970" type="qcurve" smooth="yes"/>
      <point x="760" y="1310"/>
      <point x="1039" y="1446" type="qcurve" smooth="yes"/>
      <point x="1071" y="1465"/>
      <point x="1184" y="1514"/>
      <point x="1214" y="1529"/>
      <point x="1276" y="1576"/>
      <point x="1317" y="1579" type="qcurve"/>
    </contour>
  </outline>
</glyph>
<glyph name="zero" format="2">
  <advance width="630"/>
  <unicode hex="0030"/>
  <outline>
    <contour>
      <point x="30" y="1069" type="line"/>
      <point x="28" y="1183" type="line" smooth="yes"/>
      <point x="28" y="1280"/>
      <point x="91" y="1416" type="qcurve" smooth="yes"/>
      <point x="122" y="1483"/>
      <point x="163" y="1518" type="qcurve"/>
      <point x="183" y="1540"/>
      <point x="195" y="1552" type="qcurve" smooth="yes"/>
      <point x="238" y="1594"/>
      <point x="288" y="1594" type="qcurve" smooth="yes"/>
      <point x="306" y="1594" type="line" smooth="yes"/>
      <point x="336" y="1594"/>
      <point x="348" y="1568" type="qcurve" smooth="yes"/>
      <point x="352" y="1564"/>
      <point x="364" y="1554" type="qcurve" smooth="yes"/>
      <point x="414" y="1516"/>
      <point x="415" y="1456" type="qcurve" smooth="yes"/>
      <point x="415" y="1449"/>
      <point x="429" y="1418" type="qcurve" smooth="yes"/>
      <point x="463" y="1342"/>
      <point x="463" y="1224" type="qcurve" smooth="yes"/>
      <point x="463" y="1192"/>
      <point x="483" y="1070"/>
      <point x="491" y="975"/>
      <point x="525" y="855"/>
      <point x="525" y="804"/>
      <point x="568" y="599"/>
      <point x="568" y="485" type="qcurve" smooth="yes"/>
      <point x="568" y="255"/>
      <point x="454" y="93" type="qcurve" smooth="yes"/>
      <point x="450" y="88"/>
      <point x="429" y="57"/>
      <point x="412" y="45"/>
      <point x="387" y="27"/>
      <point x="358" y="20"/>
      <point x="284" y="20"/>
      <point x="242" y="45" type="qcurve" smooth="yes"/>
      <point x="122" y="116"/>
      <point x="96" y="235" type="qcurve" smooth="yes"/>
      <point x="93" y="245"/>
      <point x="72" y="293"/>
      <point x="69" y="321" type="qcurve"/>
      <point x="61" y="343"/>
      <point x="25" y="549"/>
      <point x="25" y="734" type="qcurve" smooth="yes"/>
    </contour>
    <contour>
      <point x="117" y="736" type="line" smooth="yes"/>
      <point x="117" y="559"/>
      <point x="140" y="432"/>
      <point x="153" y="361"/>
      <point x="160" y="339"/>
      <point x="162" y="319"/>
      <point x="182" y="269"/>
      <point x="185" y="256" type="qcurve" smooth="yes"/>
      <point x="201" y="175"/>
      <point x="289" y="124" type="qcurve" smooth="yes"/>
      <point x="309" y="112"/>
      <point x="339" y="112" type="qcurve" smooth="yes"/>
      <point x="343" y="112" type="line" smooth="yes"/>
      <point x="351" y="112"/>
      <point x="368" y="129"/>
      <point x="404" y="187" type="qcurve" smooth="yes"/>
      <point x="475" y="294"/>
      <point x="475" y="489" type="qcurve" smooth="yes"/>
      <point x="474" y="594"/>
      <point x="450" y="707" type="qcurve" smooth="yes"/>
      <point x="432" y="788"/>
      <point x="433" y="832" type="qcurve" smooth="yes"/>
      <point x="430" y="848"/>
      <point x="399" y="957"/>
      <point x="391" y="1059"/>
      <point x="371" y="1184"/>
      <point x="369" y="1239"/>
      <point x="362" y="1322"/>
      <point x="359" y="1349"/>
      <point x="324" y="1426"/>
      <point x="319" y="1473" type="qcurve"/>
      <point x="304" y="1488"/>
      <point x="282" y="1499" type="qcurve"/>
      <point x="269" y="1494"/>
      <point x="226" y="1450"/>
      <point x="224" y="1449" type="qcurve" smooth="yes"/>
      <point x="200" y="1430"/>
      <point x="125" y="1272"/>
      <point x="120" y="1183" type="qcurve"/>
      <point x="122" y="1145"/>
      <point x="122" y="1069" type="qcurve" smooth="yes"/>
    </contour>
  </outline>
</glyph>
<glyph name="one" format="2">
  <advance width="937"/>
  <unicode hex="0031"/>
  <outline>
    <contour>
      <point x="537" y="1539" type="qcurve" smooth="yes"/>
      <point x="518" y="1538" type="line"/>
      <point x="506" y="1538" type="line" smooth="yes"/>
      <point x="486" y="1538"/>
      <point x="458" y="1526"/>
      <point x="430" y="1504" type="qcurve" smooth="yes"/>
      <point x="395" y="1475"/>
      <point x="370" y="1462"/>
      <point x="354" y="1451"/>
      <point x="343" y="1442"/>
      <point x="335" y="1433" type="qcurve" smooth="yes"/>
      <point x="328" y="1424"/>
      <point x="324" y="1420" type="qcurve" smooth="yes"/>
      <point x="294" y="1387" type="line" smooth="yes"/>
      <point x="282" y="1375"/>
      <point x="237" y="1313"/>
      <point x="224" y="1300" type="qcurve"/>
      <point x="184" y="1231"/>
      <point x="133" y="1231" type="qcurve" smooth="yes"/>
      <point x="125" y="1231" type="line" smooth="yes"/>
      <point x="104" y="1231"/>
      <point x="74" y="1261"/>
      <point x="74" y="1303"/>
      <point x="102" y="1331"/>
      <point x="122" y="1333" type="qcurve"/>
      <point x="127" y="1338"/>
      <point x="141" y="1363"/>
      <point x="162" y="1384"/>
      <point x="205" y="1442"/>
      <point x="225" y="1464" type="qcurve" smooth="yes"/>
      <point x="255" y="1497" type="line" smooth="yes"/>
      <point x="288" y="1533"/>
      <point x="336" y="1561"/>
      <point x="370" y="1588" type="qcurve" smooth="yes"/>
      <point x="438" y="1641"/>
      <point x="507" y="1641" type="qcurve" smooth="yes"/>
      <point x="537" y="1641" type="line" smooth="yes"/>
      <point x="628" y="1640"/>
      <point x="678" y="1576" type="qcurve" smooth="yes"/>
      <point x="686" y="1566"/>
      <point x="703" y="1549" type="qcurve" smooth="yes"/>
      <point x="745" y="1507"/>
      <point x="745" y="1472" type="qcurve"/>
      <point x="754" y="1436"/>
      <point x="754" y="1434" type="qcurve" smooth="yes"/>
      <point x="766" y="1360" type="line"/>
      <point x="770" y="1331" type="line"/>
      <point x="782" y="1184" type="line"/>
      <point x="782" y="1181" type="line"/>
      <point x="786" y="967" type="line"/>
      <point x="786" y="463" type="line" smooth="yes"/>
      <point x="786" y="449"/>
      <point x="783" y="443" type="qcurve" smooth="yes"/>
      <point x="619" y="46" type="line" smooth="yes"/>
      <point x="616" y="37"/>
      <point x="608" y="29" type="qcurve" smooth="yes"/>
      <point x="575" y="-3" type="line" smooth="yes"/>
      <point x="560" y="-18"/>
      <point x="517" y="-18"/>
      <point x="487" y="12"/>
      <point x="487" y="54"/>
      <point x="502" y="69" type="qcurve" smooth="yes"/>
      <point x="528" y="94" type="line"/>
      <point x="684" y="473" type="line"/>
      <point x="684" y="966" type="line"/>
      <point x="680" y="1177" type="line"/>
      <point x="668" y="1321" type="line" smooth="yes"/>
      <point x="664" y="1341"/>
      <point x="664" y="1364"/>
      <point x="652" y="1407"/>
      <point x="651" y="1427" type="qcurve"/>
      <point x="644" y="1448"/>
      <point x="643" y="1463" type="qcurve"/>
      <point x="637" y="1470"/>
      <point x="606" y="1500"/>
      <point x="599" y="1510" type="qcurve" smooth="yes"/>
      <point x="578" y="1539"/>
    </contour>
  </outline>
</glyph>
<glyph name="two" format="2">
  <advance width="835"/>
  <unicode hex="0032"/>
  <outline>
    <contour>
      <point x="454" y="1544" type="qcurve"/>
      <point x="424" y="1542" type="line"/>
      <point x="397" y="1544" type="line"/>
      <point x="332" y="1544"/>
      <point x="280" y="1492" type="qcurve" smooth="yes"/>
      <point x="253" y="1465"/>
      <point x="237" y="1432" type="qcurve"/>
      <point x="238" y="1430" type="line"/>
      <point x="238" y="1408"/>
      <point x="208" y="1378"/>
      <point x="165" y="1378"/>
      <point x="131" y="1412"/>
      <point x="131" y="1440"/>
      <point x="135" y="1452" type="qcurve" smooth="yes"/>
      <point x="167" y="1534"/>
      <point x="306" y="1646"/>
      <point x="397" y="1646" type="qcurve" smooth="yes"/>
      <point x="425" y="1646"/>
      <point x="453" y="1646" type="qcurve" smooth="yes"/>
      <point x="568" y="1646"/>
      <point x="735" y="1479"/>
      <point x="737" y="1327" type="qcurve" smooth="yes"/>
      <point x="737" y="1252" type="line" smooth="yes"/>
      <point x="738" y="1246"/>
      <point x="738" y="1200"/>
      <point x="719" y="1138"/>
      <point x="686" y="1068"/>
      <point x="662" y="994"/>
      <point x="626" y="928" type="qcurve" smooth="yes"/>
      <point x="580" y="842"/>
      <point x="446" y="643"/>
      <point x="419.5" y="600.5" type="qcurve" smooth="yes"/>
      <point x="392" y="558"/>
      <point x="360" y="494" type="qcurve" smooth="yes"/>
      <point x="298" y="373"/>
      <point x="299" y="251" type="qcurve" smooth="yes"/>
      <point x="299" y="240" type="line"/>
      <point x="307" y="217"/>
      <point x="329" y="190" type="qcurve"/>
      <point x="418" y="162" type="line"/>
      <point x="591" y="169" type="line"/>
      <point x="662" y="205" type="line"/>
      <point x="668" y="260" type="line" smooth="yes"/>
      <point x="670" y="279"/>
      <point x="700" y="305"/>
      <point x="740" y="305"/>
      <point x="770" y="275"/>
      <point x="770" y="254" type="qcurve" smooth="yes"/>
      <point x="770" y="248" type="line"/>
      <point x="762" y="175" type="line" smooth="yes"/>
      <point x="760" y="157"/>
      <point x="725" y="122"/>
      <point x="717" y="118" type="qcurve" smooth="yes"/>
      <point x="627" y="73" type="line" smooth="yes"/>
      <point x="615" y="68"/>
      <point x="606" y="68" type="qcurve" smooth="yes"/>
      <point x="414" y="59" type="line"/>
      <point x="412" y="59" type="line" smooth="yes"/>
      <point x="404" y="59"/>
      <point x="397" y="62" type="qcurve" smooth="yes"/>
      <point x="299" y="92" type="line"/>
      <point x="279" y="94"/>
      <point x="223" y="150"/>
      <point x="197" y="226"/>
      <point x="197" y="236" type="qcurve" smooth="yes"/>
      <point x="196" y="252" type="line"/>
      <point x="196" y="420"/>
      <point x="293" y="588" type="qcurve" smooth="yes"/>
      <point x="338" y="667"/>
      <point x="545" y="971"/>
      <point x="584" y="1085" type="qcurve" smooth="yes"/>
      <point x="590" y="1099"/>
      <point x="604" y="1131" type="qcurve" smooth="yes"/>
      <point x="636" y="1203"/>
      <point x="636" y="1235" type="qcurve" smooth="yes"/>
      <point x="635" y="1249" type="line"/>
      <point x="635" y="1327" type="line" smooth="yes"/>
      <point x="635" y="1434"/>
      <point x="525" y="1544"/>
    </contour>
  </outline>
</glyph>
<glyph name="three" format="2">
  <advance width="901"/>
  <unicode hex="0033"/>
  <outline>
    <contour>
      <point x="411.5" y="112" type="qcurve"/>
      <point x="567" y="97" type="line"/>
      <point x="652" y="97"/>
      <point x="690" y="135" type="qcurve" smooth="yes"/>
      <point x="712" y="157"/>
      <point x="712" y="201"/>
      <point x="709" y="216" type="qcurve"/>
      <point x="709" y="245" type="line"/>
      <point x="700" y="311" type="line"/>
      <point x="700" y="325"/>
      <point x="652" y="406"/>
      <point x="582" y="459"/>
      <point x="515" y="519"/>
      <point x="490" y="529"/>
      <point x="476" y="543"/>
      <point x="452" y="556" type="qcurve" smooth="yes"/>
      <point x="394" y="587"/>
      <point x="393" y="627" type="qcurve" smooth="yes"/>
      <point x="393" y="632"/>
      <point x="377" y="673"/>
      <point x="377" y="696" type="qcurve"/>
      <point x="374" y="752" type="line"/>
      <point x="374" y="778"/>
      <point x="381" y="799"/>
      <point x="384" y="841"/>
      <point x="385" y="849" type="qcurve" smooth="yes"/>
      <point x="389" y="926"/>
      <point x="484" y="964" type="qcurve" smooth="yes"/>
      <point x="521" y="978"/>
      <point x="615" y="1000"/>
      <point x="694" y="1077"/>
      <point x="694" y="1129" type="qcurve"/>
      <point x="692" y="1155" type="line"/>
      <point x="693" y="1180" type="line" smooth="yes"/>
      <point x="693" y="1181"/>
      <point x="684" y="1286" type="qcurve"/>
      <point x="684" y="1290" type="line" smooth="yes"/>
      <point x="684" y="1358"/>
      <point x="644" y="1398" type="qcurve" smooth="yes"/>
      <point x="632" y="1410"/>
      <point x="531" y="1483"/>
      <point x="507" y="1509" type="qcurve"/>
      <point x="410" y="1509" type="line"/>
      <point x="240" y="1466" type="line" smooth="yes"/>
      <point x="232" y="1464"/>
      <point x="206" y="1464"/>
      <point x="176" y="1494"/>
      <point x="176" y="1514" type="qcurve" smooth="yes"/>
      <point x="176" y="1555"/>
      <point x="215" y="1565" type="qcurve" smooth="yes"/>
      <point x="391" y="1610" type="line" smooth="yes"/>
      <point x="399" y="1612"/>
      <point x="403" y="1612" type="qcurve" smooth="yes"/>
      <point x="530" y="1612" type="line" smooth="yes"/>
      <point x="556" y="1612"/>
      <point x="592" y="1565"/>
      <point x="698" y="1489"/>
      <point x="716" y="1471" type="qcurve" smooth="yes"/>
      <point x="785" y="1402"/>
      <point x="786" y="1293" type="qcurve"/>
      <point x="795" y="1182"/>
      <point x="795" y="1180" type="qcurve" smooth="yes"/>
      <point x="795" y="1157" type="line"/>
      <point x="796" y="1148"/>
      <point x="796" y="1130" type="qcurve" smooth="yes"/>
      <point x="796" y="1040"/>
      <point x="673" y="909"/>
      <point x="509" y="868"/>
      <point x="487" y="846"/>
      <point x="487" y="845" type="qcurve" smooth="yes"/>
      <point x="487" y="844" type="line"/>
      <point x="476" y="754" type="line"/>
      <point x="479" y="696" type="line" smooth="yes"/>
      <point x="479" y="694"/>
      <point x="488" y="671"/>
      <point x="493" y="649" type="qcurve"/>
      <point x="498" y="646"/>
      <point x="532" y="631"/>
      <point x="547" y="617" type="qcurve"/>
      <point x="576" y="604"/>
      <point x="648" y="538"/>
      <point x="674" y="519"/>
      <point x="746" y="447"/>
      <point x="801" y="355"/>
      <point x="803" y="319" type="qcurve"/>
      <point x="811" y="286"/>
      <point x="811" y="240" type="qcurve" smooth="yes"/>
      <point x="811" y="229" type="line"/>
      <point x="814" y="210"/>
      <point x="814" y="193" type="qcurve" smooth="yes"/>
      <point x="814" y="114"/>
      <point x="768" y="68" type="qcurve" smooth="yes"/>
      <point x="694" y="-6"/>
      <point x="568" y="-6" type="qcurve"/>
      <point x="393" y="9" type="line"/>
      <point x="350" y="6" type="line" smooth="yes"/>
      <point x="342" y="6"/>
      <point x="333" y="9" type="qcurve" smooth="yes"/>
      <point x="263" y="34" type="line" smooth="yes"/>
      <point x="229" y="47"/>
      <point x="229" y="103"/>
      <point x="259" y="133"/>
      <point x="289" y="133"/>
      <point x="298" y="130" type="qcurve" smooth="yes"/>
      <point x="355" y="110" type="line"/>
      <point x="377" y="112"/>
    </contour>
  </outline>
</glyph>
<glyph name="four" format="2">
  <advance width="1196"/>
  <unicode hex="0034"/>
  <outline>
    <contour>
      <point x="954" y="1107" type="qcurve" smooth="yes"/>
      <point x="953" y="1223" type="line"/>
      <point x="955" y="1285" type="line"/>
      <point x="955" y="1373"/>
      <point x="881" y="1532"/>
      <point x="823" y="1587" type="qcurve" smooth="yes"/>
      <point x="804" y="1605"/>
      <point x="804" y="1658"/>
      <point x="840" y="1694"/>
      <point x="889" y="1694"/>
      <point x="908" y="1677" type="qcurve" smooth="yes"/>
      <point x="983" y="1606"/>
      <point x="1079" y="1402"/>
      <point x="1079" y="1286" type="qcurve"/>
      <point x="1076" y="1223" type="line"/>
      <point x="1078" y="1097" type="line"/>
      <point x="1078" y="1021"/>
      <point x="1070" y="960" type="qcurve"/>
      <point x="1110" y="965"/>
      <point x="1144" y="965"/>
      <point x="1181" y="928"/>
      <point x="1181" y="880"/>
      <point x="1149" y="845"/>
      <point x="1126" y="842" type="qcurve" smooth="yes"/>
      <point x="1043" y="832" type="line"/>
      <point x="993" y="492"/>
      <point x="767" y="192" type="qcurve" smooth="yes"/>
      <point x="758" y="180"/>
      <point x="693" y="106" type="qcurve" smooth="yes"/>
      <point x="628" y="32"/>
      <point x="618" y="26" type="qcurve" smooth="yes"/>
      <point x="574" y="2" type="line" smooth="yes"/>
      <point x="560" y="-6"/>
      <point x="518" y="-6"/>
      <point x="482" y="30"/>
      <point x="482" y="92"/>
      <point x="514" y="110" type="qcurve" smooth="yes"/>
      <point x="549" y="129" type="line"/>
      <point x="559" y="140"/>
      <point x="655" y="251"/>
      <point x="668" y="266" type="qcurve" smooth="yes"/>
      <point x="863" y="524"/>
      <point x="915" y="815" type="qcurve"/>
      <point x="790" y="797" type="line"/>
      <point x="785" y="797" type="line"/>
      <point x="571" y="787" type="line"/>
      <point x="559" y="787" type="line"/>
      <point x="426" y="807" type="line"/>
      <point x="374" y="816"/>
      <point x="235" y="888"/>
      <point x="191" y="926" type="qcurve" smooth="yes"/>
      <point x="14" y="1081"/>
      <point x="14" y="1258" type="qcurve" smooth="yes"/>
      <point x="14" y="1269"/>
      <point x="16" y="1293" type="qcurve"/>
      <point x="13" y="1357" type="line"/>
      <point x="13" y="1380"/>
      <point x="19" y="1410"/>
      <point x="29" y="1530"/>
      <point x="41" y="1564" type="qcurve"/>
      <point x="41" y="1597" type="line"/>
      <point x="42" y="1612"/>
      <point x="52" y="1637" type="qcurve" smooth="yes"/>
      <point x="72" y="1684"/>
      <point x="138" y="1684"/>
      <point x="174" y="1648"/>
      <point x="174" y="1610"/>
      <point x="165" y="1585" type="qcurve"/>
      <point x="165" y="1553" type="line" smooth="yes"/>
      <point x="165" y="1541"/>
      <point x="153" y="1512"/>
      <point x="142" y="1392"/>
      <point x="138" y="1373"/>
      <point x="138" y="1356" type="qcurve" smooth="yes"/>
      <point x="140" y="1290" type="line"/>
      <point x="138" y="1259" type="line"/>
      <point x="138" y="1140"/>
      <point x="272" y="1019" type="qcurve" smooth="yes"/>
      <point x="301" y="994"/>
      <point x="406" y="939"/>
      <point x="447" y="929" type="qcurve"/>
      <point x="572" y="911" type="line"/>
      <point x="776" y="920" type="line"/>
      <point x="942" y="944" type="line"/>
      <point x="954" y="1011"/>
    </contour>
  </outline>
</glyph>
<glyph name="five" format="2">
  <advance width="1060"/>
  <unicode hex="0035"/>
  <outline>
    <contour>
      <point x="848" y="1509" type="line"/>
      <point x="847" y="1513" type="line"/>
      <point x="847" y="1544"/>
      <point x="883" y="1576"/>
      <point x="920" y="1576"/>
      <point x="949" y="1547"/>
      <point x="949" y="1515"/>
      <point x="945" y="1503" type="qcurve" smooth="yes"/>
      <point x="941" y="1465" type="line" smooth="yes"/>
      <point x="941" y="1439"/>
      <point x="902" y="1400" type="qcurve" smooth="yes"/>
      <point x="851" y="1349"/>
      <point x="732" y="1349" type="qcurve" smooth="yes"/>
      <point x="671" y="1349"/>
      <point x="595" y="1385"/>
      <point x="540" y="1416"/>
      <point x="506" y="1432"/>
      <point x="500" y="1438" type="qcurve" smooth="yes"/>
      <point x="421" y="1517" type="line"/>
      <point x="297" y="1540" type="line"/>
      <point x="187" y="1537" type="line"/>
      <point x="139" y="1476"/>
      <point x="132" y="1395" type="qcurve" smooth="yes"/>
      <point x="127" y="1375"/>
      <point x="127" y="1337" type="qcurve" smooth="yes"/>
      <point x="127" y="1181"/>
      <point x="270" y="1038" type="qcurve" smooth="yes"/>
      <point x="383" y="925"/>
      <point x="550" y="852" type="qcurve"/>
      <point x="556" y="849" type="line"/>
      <point x="594" y="825"/>
      <point x="756" y="754"/>
      <point x="781" y="742" type="qcurve" smooth="yes"/>
      <point x="983" y="649"/>
      <point x="1014" y="489" type="qcurve" smooth="yes"/>
      <point x="1034" y="389"/>
      <point x="1034" y="305" type="qcurve" smooth="yes"/>
      <point x="1034" y="300" type="line"/>
      <point x="998" y="-19"/>
      <point x="820" y="-19" type="qcurve" smooth="yes"/>
      <point x="789" y="-19"/>
      <point x="767" y="-13" type="qcurve"/>
      <point x="743" y="-15"/>
      <point x="600" y="-15"/>
      <point x="405" y="30"/>
      <point x="291" y="144"/>
      <point x="270" y="209" type="qcurve" smooth="yes"/>
      <point x="268" y="214"/>
      <point x="268" y="244"/>
      <point x="296" y="272"/>
      <point x="314" y="272" type="qcurve" smooth="yes"/>
      <point x="351" y="272"/>
      <point x="363" y="238" type="qcurve" smooth="yes"/>
      <point x="396" y="134"/>
      <point x="544" y="98" type="qcurve" smooth="yes"/>
      <point x="612" y="82"/>
      <point x="732" y="82"/>
      <point x="768" y="85" type="qcurve" smooth="yes"/>
      <point x="772" y="85" type="line"/>
      <point x="820" y="78" type="line"/>
      <point x="915" y="78"/>
      <point x="937" y="308" type="qcurve"/>
      <point x="937" y="499"/>
      <point x="863" y="573" type="qcurve" smooth="yes"/>
      <point x="809" y="627"/>
      <point x="549" y="739"/>
      <point x="508" y="764" type="qcurve"/>
      <point x="328" y="843"/>
      <point x="202" y="969" type="qcurve" smooth="yes"/>
      <point x="29" y="1142"/>
      <point x="29" y="1337" type="qcurve" smooth="yes"/>
      <point x="29" y="1519"/>
      <point x="130" y="1620" type="qcurve" smooth="yes"/>
      <point x="144" y="1634"/>
      <point x="163" y="1634" type="qcurve" smooth="yes"/>
      <point x="300" y="1638" type="line"/>
      <point x="301" y="1638" type="line" smooth="yes"/>
      <point x="307" y="1638"/>
      <point x="310" y="1637" type="qcurve" smooth="yes"/>
      <point x="454" y="1610" type="line" smooth="yes"/>
      <point x="468" y="1607"/>
      <point x="479" y="1596" type="qcurve" smooth="yes"/>
      <point x="563" y="1513" type="line"/>
      <point x="583" y="1503"/>
      <point x="639" y="1471"/>
      <point x="654" y="1464" type="qcurve" smooth="yes"/>
      <point x="693" y="1446"/>
      <point x="729" y="1446" type="qcurve" smooth="yes"/>
      <point x="817" y="1446"/>
      <point x="844" y="1480" type="qcurve"/>
    </contour>
  </outline>
</glyph>
<glyph name="six" format="2">
  <advance width="942"/>
  <unicode hex="0036"/>
  <outline>
    <contour>
      <point x="885" y="315" type="line"/>
      <point x="878" y="220" type="line"/>
      <point x="882" y="176" type="line"/>
      <point x="868" y="106" type="line"/>
      <point x="868" y="66"/>
      <point x="807" y="-0"/>
      <point x="786" y="-31"/>
      <point x="760" y="-31" type="qcurve" smooth="yes"/>
      <point x="481" y="-31" type="line"/>
      <point x="377" y="-18" type="line" smooth="yes"/>
      <point x="363" y="-16"/>
      <point x="354" y="-10" type="qcurve" smooth="yes"/>
      <point x="276" y="44" type="line" smooth="yes"/>
      <point x="269" y="49"/>
      <point x="244" y="89"/>
      <point x="199" y="138"/>
      <point x="172" y="221"/>
      <point x="172" y="229" type="qcurve" smooth="yes"/>
      <point x="131" y="414" type="line"/>
      <point x="127" y="450" type="line" smooth="yes"/>
      <point x="123" y="462"/>
      <point x="123" y="470" type="qcurve" smooth="yes"/>
      <point x="119" y="660" type="line"/>
      <point x="103" y="826" type="line" smooth="yes"/>
      <point x="102" y="830"/>
      <point x="102" y="831" type="qcurve" smooth="yes"/>
      <point x="98" y="1147" type="line"/>
      <point x="99" y="1152" type="line"/>
      <point x="107" y="1242" type="line" smooth="yes"/>
      <point x="109" y="1258"/>
      <point x="112.5" y="1286.5" type="qcurve" smooth="yes"/>
      <point x="116" y="1316"/>
      <point x="121" y="1334" type="qcurve" smooth="yes"/>
      <point x="130" y="1368"/>
      <point x="137" y="1389"/>
      <point x="139" y="1405" type="qcurve" smooth="yes"/>
      <point x="139" y="1485"/>
      <point x="213" y="1559" type="qcurve" smooth="yes"/>
      <point x="248" y="1594"/>
      <point x="298" y="1616" type="qcurve" smooth="yes"/>
      <point x="362" y="1644"/>
      <point x="408" y="1645"/>
      <point x="438" y="1615"/>
      <point x="438" y="1574"/>
      <point x="414" y="1546"/>
      <point x="380" y="1540"/>
      <point x="307" y="1508"/>
      <point x="242" y="1443"/>
      <point x="242" y="1405" type="qcurve"/>
      <point x="238" y="1372" type="line" smooth="yes"/>
      <point x="238" y="1363"/>
      <point x="235" y="1356" type="qcurve" smooth="yes"/>
      <point x="223" y="1316" type="line" smooth="yes"/>
      <point x="220" y="1305"/>
      <point x="209" y="1231" type="qcurve"/>
      <point x="201" y="1145" type="line"/>
      <point x="205" y="834" type="line"/>
      <point x="221" y="669" type="line"/>
      <point x="221" y="665" type="line"/>
      <point x="225" y="480" type="line"/>
      <point x="230" y="470"/>
      <point x="230" y="460" type="qcurve" smooth="yes"/>
      <point x="229" y="455" type="line"/>
      <point x="233" y="420" type="line"/>
      <point x="250" y="370"/>
      <point x="263" y="284"/>
      <point x="268" y="268" type="qcurve" smooth="yes"/>
      <point x="272" y="252"/>
      <point x="274" y="243" type="qcurve" smooth="yes"/>
      <point x="281" y="200"/>
      <point x="315" y="164"/>
      <point x="343" y="122" type="qcurve"/>
      <point x="402" y="82" type="line"/>
      <point x="484" y="72" type="line"/>
      <point x="735" y="72" type="line"/>
      <point x="738" y="76"/>
      <point x="756" y="95"/>
      <point x="766" y="110" type="qcurve"/>
      <point x="767" y="125"/>
      <point x="779" y="168"/>
      <point x="779" y="177" type="qcurve" smooth="yes"/>
      <point x="779" y="179" type="line" smooth="yes"/>
      <point x="776" y="193"/>
      <point x="776" y="220" type="qcurve" smooth="yes"/>
      <point x="782" y="315" type="line"/>
      <point x="770" y="419" type="line" smooth="yes"/>
      <point x="769" y="423"/>
      <point x="762" y="444"/>
      <point x="762" y="454" type="qcurve" smooth="yes"/>
      <point x="760" y="465"/>
      <point x="759" y="469" type="qcurve" smooth="yes"/>
      <point x="752" y="472"/>
      <point x="687" y="478"/>
      <point x="673" y="481" type="qcurve" smooth="yes"/>
      <point x="672" y="481" type="line"/>
      <point x="490" y="512" type="line"/>
      <point x="481" y="461" type="line"/>
      <point x="477" y="376" type="line" smooth="yes"/>
      <point x="475" y="356"/>
      <point x="447" y="328"/>
      <point x="405" y="328"/>
      <point x="375" y="358"/>
      <point x="375" y="379" type="qcurve" smooth="yes"/>
      <point x="379" y="461" type="line" smooth="yes"/>
      <point x="379" y="477"/>
      <point x="388" y="519" type="qcurve" smooth="yes"/>
      <point x="387" y="523"/>
      <point x="387" y="567"/>
      <point x="406" y="586" type="qcurve" smooth="yes"/>
      <point x="435" y="615"/>
      <point x="514" y="615"/>
      <point x="661" y="584"/>
      <point x="674" y="584" type="qcurve" smooth="yes"/>
      <point x="678" y="584" type="line" smooth="yes"/>
      <point x="681" y="584"/>
      <point x="701" y="580"/>
      <point x="732" y="578" type="qcurve" smooth="yes"/>
      <point x="802" y="572"/>
      <point x="850" y="524"/>
      <point x="854" y="510" type="qcurve" smooth="yes"/>
      <point x="861" y="488"/>
      <point x="864" y="463" type="qcurve"/>
      <point x="872" y="441"/>
      <point x="872" y="422" type="qcurve" smooth="yes"/>
    </contour>
  </outline>
</glyph>
<glyph name="seven" format="2">
  <advance width="897"/>
  <unicode hex="0037"/>
  <outline>
    <contour>
      <point x="388" y="1345" type="qcurve"/>
      <point x="310" y="1346" type="line"/>
      <point x="284" y="1345" type="line"/>
      <point x="165" y="1345"/>
      <point x="53" y="1457" type="qcurve" smooth="yes"/>
      <point x="24" y="1486"/>
      <point x="-30" y="1554" type="qcurve" smooth="yes"/>
      <point x="-41" y="1568"/>
      <point x="-41" y="1606"/>
      <point x="-11" y="1636"/>
      <point x="37" y="1636"/>
      <point x="51" y="1617" type="qcurve" smooth="yes"/>
      <point x="99" y="1556"/>
      <point x="126" y="1529" type="qcurve" smooth="yes"/>
      <point x="207" y="1448"/>
      <point x="284" y="1448" type="qcurve" smooth="yes"/>
      <point x="310" y="1448" type="line"/>
      <point x="380" y="1447" type="line"/>
      <point x="470" y="1447"/>
      <point x="514" y="1476" type="qcurve" smooth="yes"/>
      <point x="524" y="1483"/>
      <point x="548" y="1488"/>
      <point x="630" y="1528"/>
      <point x="748" y="1528"/>
      <point x="838" y="1443"/>
      <point x="852" y="1348"/>
      <point x="852" y="1294" type="qcurve" smooth="yes"/>
      <point x="852" y="1290" type="line"/>
      <point x="849" y="1242"/>
      <point x="817" y="1178"/>
      <point x="799" y="1145"/>
      <point x="786" y="1119"/>
      <point x="697" y="955"/>
      <point x="682" y="900" type="qcurve" smooth="yes"/>
      <point x="602" y="593"/>
      <point x="602" y="391" type="qcurve" smooth="yes"/>
      <point x="602" y="336" type="line"/>
      <point x="601" y="293" type="line"/>
      <point x="601" y="204"/>
      <point x="642" y="68"/>
      <point x="648" y="46" type="qcurve"/>
      <point x="664" y="24"/>
      <point x="664" y="-13"/>
      <point x="634" y="-43"/>
      <point x="587" y="-43"/>
      <point x="552" y="4"/>
      <point x="548" y="22"/>
      <point x="498" y="193"/>
      <point x="498" y="308"/>
      <point x="500" y="338" type="qcurve"/>
      <point x="500" y="394" type="line" smooth="yes"/>
      <point x="500" y="615"/>
      <point x="583" y="927" type="qcurve" smooth="yes"/>
      <point x="603" y="1001"/>
      <point x="649" y="1083" type="qcurve" smooth="yes"/>
      <point x="699.6" y="1173.2"/>
      <point x="746" y="1257"/>
      <point x="750" y="1297" type="qcurve"/>
      <point x="750" y="1344"/>
      <point x="743" y="1391"/>
      <point x="709" y="1425"/>
      <point x="687" y="1425" type="qcurve"/>
      <point x="666" y="1423" type="line"/>
      <point x="648" y="1423"/>
      <point x="575" y="1389"/>
      <point x="563" y="1386" type="qcurve" smooth="yes"/>
      <point x="497" y="1345"/>
    </contour>
  </outline>
</glyph>
<glyph name="eight" format="2">
  <advance width="1007"/>
  <unicode hex="0038"/>
  <outline>
    <contour>
      <point x="889" y="494" type="line"/>
      <point x="885" y="542" type="line" smooth="yes"/>
      <point x="885" y="555"/>
      <point x="879" y="577" type="qcurve" smooth="yes"/>
      <point x="830" y="761"/>
      <point x="732" y="836" type="qcurve"/>
      <point x="690" y="862"/>
      <point x="690" y="896" type="qcurve" smooth="yes"/>
      <point x="690" y="918"/>
      <point x="723" y="952"/>
      <point x="775" y="967" type="qcurve" smooth="yes"/>
      <point x="809" y="977"/>
      <point x="835" y="1003" type="qcurve" smooth="yes"/>
      <point x="861" y="1029"/>
      <point x="896" y="1124" type="qcurve" smooth="yes"/>
      <point x="897" y="1129"/>
      <point x="899" y="1138" type="qcurve" smooth="yes"/>
      <point x="910" y="1286" type="line"/>
      <point x="910" y="1346"/>
      <point x="880" y="1358" type="qcurve" smooth="yes"/>
      <point x="874" y="1360"/>
      <point x="860" y="1376" type="qcurve" smooth="yes"/>
      <point x="854" y="1382"/>
      <point x="856" y="1384"/>
      <point x="840" y="1408"/>
      <point x="791" y="1426"/>
      <point x="786" y="1430" type="qcurve" smooth="yes"/>
      <point x="754" y="1454" type="line" smooth="yes"/>
      <point x="752" y="1455"/>
      <point x="656" y="1486"/>
      <point x="651" y="1491" type="qcurve" smooth="yes"/>
      <point x="625" y="1518"/>
      <point x="586" y="1516" type="qcurve" smooth="yes"/>
      <point x="571" y="1516"/>
      <point x="519" y="1510"/>
      <point x="503" y="1510" type="qcurve" smooth="yes"/>
      <point x="400" y="1510"/>
      <point x="242" y="1437" type="qcurve" smooth="yes"/>
      <point x="230" y="1432"/>
      <point x="192" y="1398" type="qcurve" smooth="yes"/>
      <point x="176" y="1384"/>
      <point x="169" y="1379" type="qcurve" smooth="yes"/>
      <point x="127" y="1351"/>
      <point x="127" y="1300" type="qcurve" smooth="yes"/>
      <point x="137" y="1152" type="line" smooth="yes"/>
      <point x="139" y="1143"/>
      <point x="175" y="1043"/>
      <point x="227" y="991"/>
      <point x="252" y="986"/>
      <point x="261" y="982" type="qcurve" smooth="yes"/>
      <point x="266" y="980"/>
      <point x="298" y="970"/>
      <point x="321" y="959"/>
      <point x="346" y="934"/>
      <point x="346" y="877"/>
      <point x="304" y="850" type="qcurve"/>
      <point x="229" y="793"/>
      <point x="151" y="590"/>
      <point x="151" y="556" type="qcurve" smooth="yes"/>
      <point x="147" y="508" type="line"/>
      <point x="148" y="470" type="line"/>
      <point x="144" y="411" type="line"/>
      <point x="144" y="316"/>
      <point x="309" y="151"/>
      <point x="363" y="140" type="qcurve" smooth="yes"/>
      <point x="547" y="113" type="line"/>
      <point x="675" y="126" type="line"/>
      <point x="680" y="126" type="line" smooth="yes"/>
      <point x="686" y="126"/>
      <point x="699" y="134" type="qcurve" smooth="yes"/>
      <point x="892" y="253"/>
      <point x="892" y="397" type="qcurve"/>
      <point x="888" y="456" type="line"/>
    </contour>
    <contour>
      <point x="987" y="1136" type="line" smooth="yes"/>
      <point x="987" y="1124"/>
      <point x="981" y="1100" type="qcurve" smooth="yes"/>
      <point x="915" y="911"/>
      <point x="809" y="887" type="qcurve"/>
      <point x="884" y="825"/>
      <point x="934" y="696" type="qcurve" smooth="yes"/>
      <point x="977" y="586"/>
      <point x="977" y="498" type="qcurve" smooth="yes"/>
      <point x="976" y="455" type="line"/>
      <point x="976" y="445" type="line"/>
      <point x="980" y="424"/>
      <point x="980" y="397" type="qcurve" smooth="yes"/>
      <point x="980" y="203"/>
      <point x="745" y="59" type="qcurve" smooth="yes"/>
      <point x="710" y="38"/>
      <point x="682" y="38" type="qcurve" smooth="yes"/>
      <point x="546" y="24" type="line"/>
      <point x="540" y="25" type="line"/>
      <point x="353" y="53" type="line"/>
      <point x="325" y="53"/>
      <point x="292" y="73" type="qcurve" smooth="yes"/>
      <point x="56" y="217"/>
      <point x="56" y="411" type="qcurve" smooth="yes"/>
      <point x="56" y="438"/>
      <point x="60" y="459" type="qcurve"/>
      <point x="60" y="513" type="line" smooth="yes"/>
      <point x="60" y="555"/>
      <point x="72" y="613" type="qcurve" smooth="yes"/>
      <point x="121" y="795"/>
      <point x="210" y="884" type="qcurve" smooth="yes"/>
      <point x="219" y="893"/>
      <point x="224" y="899"/>
      <point x="227" y="901" type="qcurve"/>
      <point x="192" y="910"/>
      <point x="164" y="932" type="qcurve" smooth="yes"/>
      <point x="103" y="980"/>
      <point x="55" y="1114" type="qcurve"/>
      <point x="49" y="1144"/>
      <point x="49" y="1150" type="qcurve" smooth="yes"/>
      <point x="39" y="1299" type="line"/>
      <point x="39" y="1392"/>
      <point x="114" y="1447" type="qcurve" smooth="yes"/>
      <point x="125" y="1455"/>
      <point x="177" y="1503"/>
      <point x="205" y="1516" type="qcurve" smooth="yes"/>
      <point x="385" y="1598"/>
      <point x="592" y="1598"/>
      <point x="740" y="1539" type="qcurve" smooth="yes"/>
      <point x="802" y="1514"/>
      <point x="906" y="1442"/>
      <point x="915" y="1438" type="qcurve" smooth="yes"/>
      <point x="998" y="1406"/>
      <point x="998" y="1287" type="qcurve"/>
    </contour>
  </outline>
</glyph>
<glyph name="nine" format="2">
  <advance width="942"/>
  <unicode hex="0039"/>
  <outline>
    <contour>
      <point x="98" y="1298" type="line"/>
      <point x="105" y="1394" type="line"/>
      <point x="101" y="1437" type="line"/>
      <point x="115" y="1508" type="line"/>
      <point x="115" y="1548"/>
      <point x="176" y="1614"/>
      <point x="197" y="1645"/>
      <point x="223" y="1645" type="qcurve" smooth="yes"/>
      <point x="502" y="1645" type="line"/>
      <point x="606" y="1632" type="line" smooth="yes"/>
      <point x="619" y="1630"/>
      <point x="629" y="1623" type="qcurve" smooth="yes"/>
      <point x="707" y="1570" type="line" smooth="yes"/>
      <point x="714" y="1565"/>
      <point x="739" y="1525"/>
      <point x="784" y="1476"/>
      <point x="811" y="1393"/>
      <point x="811" y="1384" type="qcurve"/>
      <point x="852" y="1200" type="line"/>
      <point x="856" y="1164" type="line"/>
      <point x="860" y="1152"/>
      <point x="860" y="1144" type="qcurve" smooth="yes"/>
      <point x="864" y="953" type="line"/>
      <point x="880" y="787" type="line"/>
      <point x="881" y="783" type="line"/>
      <point x="885" y="467" type="line"/>
      <point x="885" y="462" type="line"/>
      <point x="876" y="372" type="line" smooth="yes"/>
      <point x="874" y="356"/>
      <point x="870.5" y="327.5" type="qcurve" smooth="yes"/>
      <point x="866.222" y="292.667"/>
      <point x="847" y="236"/>
      <point x="844" y="209" type="qcurve" smooth="yes"/>
      <point x="844" y="129"/>
      <point x="770" y="55" type="qcurve" smooth="yes"/>
      <point x="734" y="20"/>
      <point x="620" y="-30"/>
      <point x="575" y="-31"/>
      <point x="545" y="-1"/>
      <point x="545" y="39"/>
      <point x="569" y="68"/>
      <point x="603" y="74"/>
      <point x="678" y="107"/>
      <point x="741" y="170"/>
      <point x="741" y="209" type="qcurve"/>
      <point x="745" y="242" type="line" smooth="yes"/>
      <point x="745" y="250"/>
      <point x="764" y="303"/>
      <point x="775" y="383" type="qcurve"/>
      <point x="782" y="469" type="line"/>
      <point x="778" y="779" type="line"/>
      <point x="762" y="945" type="line"/>
      <point x="762" y="949" type="line"/>
      <point x="758" y="1134" type="line"/>
      <point x="753" y="1144"/>
      <point x="753" y="1154" type="qcurve"/>
      <point x="754" y="1159" type="line"/>
      <point x="750" y="1194" type="line"/>
      <point x="733" y="1244"/>
      <point x="720" y="1330"/>
      <point x="710" y="1362"/>
      <point x="700" y="1416"/>
      <point x="668" y="1450"/>
      <point x="640" y="1492" type="qcurve"/>
      <point x="581" y="1532" type="line"/>
      <point x="499" y="1542" type="line"/>
      <point x="248" y="1542" type="line"/>
      <point x="245" y="1538"/>
      <point x="227" y="1519"/>
      <point x="217" y="1504" type="qcurve"/>
      <point x="216" y="1489"/>
      <point x="204" y="1446"/>
      <point x="204" y="1437" type="qcurve" smooth="yes"/>
      <point x="204" y="1434" type="line"/>
      <point x="207" y="1420"/>
      <point x="207" y="1393" type="qcurve"/>
      <point x="201" y="1298" type="line"/>
      <point x="213" y="1194" type="line"/>
      <point x="221" y="1160" type="line"/>
      <point x="224" y="1145" type="line"/>
      <point x="231" y="1142"/>
      <point x="296" y="1136"/>
      <point x="310" y="1133" type="qcurve"/>
      <point x="311" y="1133" type="line"/>
      <point x="493" y="1102" type="line"/>
      <point x="502" y="1153" type="line"/>
      <point x="506" y="1238" type="line"/>
      <point x="508" y="1258"/>
      <point x="536" y="1286"/>
      <point x="578" y="1286"/>
      <point x="608" y="1256"/>
      <point x="608" y="1235" type="qcurve"/>
      <point x="604" y="1153" type="line" smooth="yes"/>
      <point x="604" y="1137"/>
      <point x="595" y="1095" type="qcurve" smooth="yes"/>
      <point x="596" y="1091"/>
      <point x="596" y="1047"/>
      <point x="548" y="999"/>
      <point x="469" y="999"/>
      <point x="322" y="1030"/>
      <point x="309" y="1030" type="qcurve" smooth="yes"/>
      <point x="305" y="1030" type="line" smooth="yes"/>
      <point x="298" y="1030"/>
      <point x="284" y="1033"/>
      <point x="181" y="1043"/>
      <point x="132" y="1090"/>
      <point x="121" y="1126"/>
      <point x="119" y="1151" type="qcurve"/>
      <point x="111" y="1173"/>
      <point x="111" y="1192" type="qcurve"/>
    </contour>
  </outline>
</glyph>
<glyph name="colon" format="2">
  <advance width="274"/>
  <unicode hex="003A"/>
  <outline>
    <contour>
      <point x="61" y="365" type="qcurve" smooth="yes"/>
      <point x="94" y="403"/>
      <point x="197" y="388"/>
      <point x="216" y="339" type="qcurve" smooth="yes"/>
      <point x="234" y="289"/>
      <point x="167" y="211"/>
      <point x="66" y="225"/>
      <point x="47" y="276" type="qcurve" smooth="yes"/>
      <point x="29" y="327"/>
    </contour>
    <contour>
      <point x="47" y="861" type="qcurve" smooth="yes"/>
      <point x="29" y="912"/>
      <point x="95" y="989"/>
      <point x="197" y="974"/>
      <point x="216" y="925" type="qcurve" smooth="yes"/>
      <point x="234" y="875"/>
      <point x="167" y="797"/>
      <point x="66" y="811"/>
    </contour>
  </outline>
</glyph>
<glyph name="semicolon" format="2">
  <advance width="901"/>
  <unicode hex="003B"/>
  <outline>
    <contour>
      <point x="436" y="541" type="line" smooth="yes"/>
      <point x="387" y="541"/>
      <point x="387" y="498" type="qcurve" smooth="yes"/>
      <point x="387" y="473" type="line"/>
      <point x="430" y="455" type="line"/>
      <point x="420" y="437"/>
      <point x="411" y="422"/>
      <point x="381" y="406"/>
      <point x="362" y="412" type="qcurve"/>
      <point x="330" y="412"/>
      <point x="288" y="473"/>
      <point x="276" y="542"/>
      <point x="278" y="625"/>
      <point x="356" y="689"/>
      <point x="406" y="682" type="qcurve"/>
      <point x="471" y="696"/>
      <point x="589" y="666"/>
      <point x="668" y="595"/>
      <point x="703" y="482"/>
      <point x="688" y="418" type="qcurve"/>
      <point x="689" y="402"/>
      <point x="691" y="310"/>
      <point x="695" y="225.5" type="qcurve" smooth="yes"/>
      <point x="699" y="142"/>
      <point x="615" y="-58"/>
      <point x="492" y="-98" type="qcurve" smooth="yes"/>
      <point x="468" y="-108"/>
      <point x="330" y="-183"/>
      <point x="321" y="-183" type="qcurve" smooth="yes"/>
      <point x="305" y="-184"/>
      <point x="375" y="-117" type="qcurve" smooth="yes"/>
      <point x="390" y="-102"/>
      <point x="439" y="-59"/>
      <point x="473" y="-28"/>
      <point x="517" y="14"/>
      <point x="547" y="51"/>
      <point x="579" y="97"/>
      <point x="597" y="143"/>
      <point x="610" y="196"/>
      <point x="609" y="256"/>
      <point x="595" y="317"/>
      <point x="600" y="368" type="qcurve" smooth="yes"/>
      <point x="606" y="419"/>
      <point x="596" y="474" type="qcurve" smooth="yes"/>
      <point x="586" y="535"/>
      <point x="510" y="535" type="qcurve"/>
    </contour>
    <contour>
      <point x="480" y="1193" type="qcurve" smooth="yes"/>
      <point x="498" y="1143"/>
      <point x="431" y="1065"/>
      <point x="330" y="1079"/>
      <point x="293" y="1180"/>
      <point x="359" y="1257"/>
      <point x="461" y="1242"/>
    </contour>
  </outline>
</glyph>
<glyph name="less" format="2">
  <advance width="851"/>
  <unicode hex="003C"/>
  <outline>
    <contour>
      <point x="369" y="853"/>
      <point x="581" y="895"/>
      <point x="650" y="932"/>
      <point x="685" y="932"/>
      <point x="715" y="902"/>
      <point x="715" y="849"/>
      <point x="687" y="835" type="qcurve" smooth="yes"/>
      <point x="617" y="798"/>
      <point x="362" y="747"/>
      <point x="275" y="715"/>
      <point x="222" y="662"/>
      <point x="222" y="552"/>
      <point x="294" y="480"/>
      <point x="560" y="368"/>
      <point x="634" y="319"/>
      <point x="670" y="291"/>
      <point x="670" y="245"/>
      <point x="640" y="215"/>
      <point x="601" y="215"/>
      <point x="587" y="226" type="qcurve" smooth="yes"/>
      <point x="533" y="269"/>
      <point x="272" y="379"/>
      <point x="226" y="411" type="qcurve" smooth="yes"/>
      <point x="120" y="486"/>
      <point x="120" y="595" type="qcurve" smooth="yes"/>
      <point x="120" y="755"/>
      <point x="256" y="816" type="qcurve" smooth="yes"/>
      <point x="301" y="836"/>
    </contour>
  </outline>
</glyph>
<glyph name="equal" format="2">
  <advance width="768"/>
  <unicode hex="003D"/>
  <outline>
    <contour>
      <point x="210" y="496" type="qcurve"/>
      <point x="137" y="479" type="line"/>
      <point x="116" y="479"/>
      <point x="86" y="509"/>
      <point x="86" y="547"/>
      <point x="108" y="576"/>
      <point x="130" y="582"/>
      <point x="146" y="586" type="qcurve" smooth="yes"/>
      <point x="182" y="596"/>
      <point x="229" y="600"/>
      <point x="330" y="619"/>
      <point x="366" y="619" type="qcurve" smooth="yes"/>
      <point x="472" y="612"/>
      <point x="497" y="602"/>
      <point x="498" y="602" type="qcurve" smooth="yes"/>
      <point x="617" y="548" type="line"/>
      <point x="687" y="510" type="line" smooth="yes"/>
      <point x="713" y="496"/>
      <point x="713" y="444"/>
      <point x="683" y="414"/>
      <point x="648" y="414"/>
      <point x="636" y="420" type="qcurve" smooth="yes"/>
      <point x="573" y="456" type="line"/>
      <point x="460" y="507" type="line"/>
      <point x="436" y="513"/>
      <point x="376" y="516" type="qcurve" smooth="yes"/>
      <point x="366" y="516" type="line" smooth="yes"/>
      <point x="337" y="516"/>
      <point x="234" y="497"/>
    </contour>
    <contour>
      <point x="210" y="754" type="qcurve"/>
      <point x="137" y="737" type="line"/>
      <point x="116" y="737"/>
      <point x="86" y="767"/>
      <point x="86" y="805"/>
      <point x="108" y="834"/>
      <point x="130" y="840"/>
      <point x="146" y="844" type="qcurve" smooth="yes"/>
      <point x="182" y="854"/>
      <point x="229" y="858"/>
      <point x="330" y="877"/>
      <point x="366" y="877" type="qcurve" smooth="yes"/>
      <point x="472" y="870"/>
      <point x="497" y="860"/>
      <point x="498" y="860" type="qcurve" smooth="yes"/>
      <point x="617" y="807" type="line" smooth="yes"/>
      <point x="620" y="804"/>
      <point x="621" y="804" type="qcurve" smooth="yes"/>
      <point x="687" y="768" type="line" smooth="yes"/>
      <point x="713" y="754"/>
      <point x="713" y="702"/>
      <point x="683" y="672"/>
      <point x="648" y="672"/>
      <point x="636" y="678" type="qcurve" smooth="yes"/>
      <point x="573" y="714" type="line"/>
      <point x="460" y="765" type="line"/>
      <point x="436" y="771"/>
      <point x="376" y="774" type="qcurve" smooth="yes"/>
      <point x="366" y="774" type="line" smooth="yes"/>
      <point x="337" y="774"/>
      <point x="234" y="755"/>
    </contour>
  </outline>
</glyph>
<glyph name="greater" format="2">
  <advance width="851"/>
  <unicode hex="003E"/>
  <outline>
    <contour>
      <point x="195" y="926" type="qcurve" smooth="yes"/>
      <point x="254" y="895"/>
      <point x="517" y="843"/>
      <point x="579" y="816" type="qcurve" smooth="yes"/>
      <point x="715" y="756"/>
      <point x="715" y="595" type="qcurve" smooth="yes"/>
      <point x="715" y="485"/>
      <point x="609" y="411" type="qcurve" smooth="yes"/>
      <point x="563" y="379"/>
      <point x="302" y="269"/>
      <point x="248" y="226" type="qcurve" smooth="yes"/>
      <point x="234" y="215"/>
      <point x="195" y="215"/>
      <point x="165" y="245"/>
      <point x="165" y="291"/>
      <point x="201" y="319"/>
      <point x="275" y="368"/>
      <point x="541" y="480"/>
      <point x="612" y="551"/>
      <point x="612" y="663"/>
      <point x="560" y="715"/>
      <point x="473" y="747"/>
      <point x="218" y="798"/>
      <point x="148" y="835" type="qcurve" smooth="yes"/>
      <point x="120" y="849"/>
      <point x="120" y="902"/>
      <point x="150" y="932"/>
      <point x="184" y="932"/>
    </contour>
  </outline>
</glyph>
<glyph name="question" format="2">
  <advance width="688"/>
  <unicode hex="003F"/>
  <outline>
    <contour>
      <point x="570" y="69" type="qcurve" smooth="yes"/>
      <point x="569" y="51" type="line" smooth="yes"/>
      <point x="571" y="35"/>
      <point x="571" y="24" type="qcurve" smooth="yes"/>
      <point x="571" y="15" type="line" smooth="yes"/>
      <point x="569" y="-14"/>
      <point x="532" y="-51"/>
      <point x="500" y="-51" type="qcurve" smooth="yes"/>
      <point x="452" y="-51"/>
      <point x="436" y="-11" type="qcurve"/>
      <point x="406" y="4"/>
      <point x="406" y="46" type="qcurve" smooth="yes"/>
      <point x="406" y="49" type="line" smooth="yes"/>
      <point x="406" y="87"/>
      <point x="430" y="111" type="qcurve" smooth="yes"/>
      <point x="457" y="138"/>
      <point x="495" y="138" type="qcurve" smooth="yes"/>
      <point x="562" y="138"/>
      <point x="569" y="81" type="qcurve" smooth="yes"/>
      <point x="570" y="76"/>
    </contour>
    <contour>
      <point x="262" y="1373" type="line"/>
      <point x="267" y="1339" type="line"/>
      <point x="267" y="1330" type="line" smooth="yes"/>
      <point x="268" y="1325"/>
      <point x="272" y="1315" type="qcurve" smooth="yes"/>
      <point x="280" y="1294"/>
      <point x="279" y="1274" type="qcurve" smooth="yes"/>
      <point x="279" y="1266" type="line" smooth="yes"/>
      <point x="279" y="1244"/>
      <point x="249" y="1214"/>
      <point x="206" y="1214"/>
      <point x="176" y="1244"/>
      <point x="176" y="1266" type="qcurve" smooth="yes"/>
      <point x="176" y="1273" type="line" smooth="yes"/>
      <point x="176" y="1278"/>
      <point x="172" y="1288" type="qcurve" smooth="yes"/>
      <point x="164" y="1310"/>
      <point x="164" y="1331" type="qcurve" smooth="yes"/>
      <point x="164" y="1339" type="line"/>
      <point x="160" y="1359"/>
      <point x="160" y="1372" type="qcurve" smooth="yes"/>
      <point x="156" y="1454" type="line" smooth="yes"/>
      <point x="156" y="1462"/>
      <point x="165" y="1499.5" type="qcurve" smooth="yes"/>
      <point x="174" y="1536"/>
      <point x="202" y="1584" type="qcurve" smooth="yes"/>
      <point x="245" y="1656"/>
      <point x="327" y="1657" type="qcurve" smooth="yes"/>
      <point x="339" y="1657"/>
      <point x="363" y="1653" type="qcurve"/>
      <point x="378" y="1653" type="line" smooth="yes"/>
      <point x="522" y="1652"/>
      <point x="604" y="1566" type="qcurve" smooth="yes"/>
      <point x="648" y="1520"/>
      <point x="648" y="1454" type="qcurve" smooth="yes"/>
      <point x="648" y="1439" type="line" smooth="yes"/>
      <point x="649" y="1430"/>
      <point x="649" y="1390"/>
      <point x="642" y="1353"/>
      <point x="627" y="1307"/>
      <point x="623" y="1290"/>
      <point x="614" y="1265"/>
      <point x="603" y="1239"/>
      <point x="602" y="1235" type="qcurve" smooth="yes"/>
      <point x="598" y="1204" type="line" smooth="yes"/>
      <point x="598" y="1197"/>
      <point x="597" y="1193" type="qcurve" smooth="yes"/>
      <point x="571" y="1079"/>
      <point x="511" y="994" type="qcurve" smooth="yes"/>
      <point x="505" y="986"/>
      <point x="452" y="916" type="qcurve" smooth="yes"/>
      <point x="348" y="780"/>
      <point x="348" y="730" type="qcurve" smooth="yes"/>
      <point x="348" y="722" type="line" smooth="yes"/>
      <point x="348" y="711"/>
      <point x="340" y="652" type="qcurve"/>
      <point x="340" y="553" type="line"/>
      <point x="348" y="475" type="line" smooth="yes"/>
      <point x="350" y="467"/>
      <point x="360" y="427"/>
      <point x="360" y="404"/>
      <point x="373" y="365"/>
      <point x="373" y="321"/>
      <point x="387" y="293" type="qcurve"/>
      <point x="400" y="305"/>
      <point x="442" y="305"/>
      <point x="456.5" y="290.5" type="qcurve" smooth="yes"/>
      <point x="470" y="276"/>
      <point x="474" y="262" type="qcurve" smooth="yes"/>
      <point x="478" y="245"/>
      <point x="479" y="229" type="qcurve"/>
      <point x="483" y="221"/>
      <point x="483" y="209" type="qcurve" smooth="yes"/>
      <point x="483" y="206" type="line" smooth="yes"/>
      <point x="483" y="183"/>
      <point x="452" y="152"/>
      <point x="430" y="152" type="qcurve" smooth="yes"/>
      <point x="419" y="154" type="line"/>
      <point x="337" y="154"/>
      <point x="291" y="258" type="qcurve" smooth="yes"/>
      <point x="270" y="305"/>
      <point x="270" y="344" type="qcurve"/>
      <point x="258" y="406" type="line"/>
      <point x="246" y="475" type="line"/>
      <point x="238" y="553" type="line"/>
      <point x="238" y="655" type="line"/>
      <point x="246" y="723" type="line"/>
      <point x="246" y="729" type="line" smooth="yes"/>
      <point x="246" y="785"/>
      <point x="308" y="892"/>
      <point x="354" y="958"/>
      <point x="413" y="1034"/>
      <point x="427" y="1054" type="qcurve" smooth="yes"/>
      <point x="477" y="1126"/>
      <point x="496" y="1211" type="qcurve" smooth="yes"/>
      <point x="497" y="1218"/>
      <point x="500" y="1234"/>
      <point x="500" y="1257"/>
      <point x="525" y="1317"/>
      <point x="528" y="1332"/>
      <point x="534" y="1351" type="qcurve" smooth="yes"/>
      <point x="547" y="1392"/>
      <point x="547" y="1411" type="qcurve" smooth="yes"/>
      <point x="545" y="1438" type="line"/>
      <point x="546" y="1456" type="line" smooth="yes"/>
      <point x="546" y="1480"/>
      <point x="524" y="1502" type="qcurve" smooth="yes"/>
      <point x="475" y="1551"/>
      <point x="377" y="1551" type="qcurve"/>
      <point x="358" y="1550" type="line"/>
      <point x="327" y="1554" type="line" smooth="yes"/>
      <point x="310" y="1554"/>
      <point x="277" y="1521"/>
      <point x="258" y="1448" type="qcurve"/>
    </contour>
  </outline>
</glyph>
<glyph name="at" format="2">
  <advance width="1380"/>
  <unicode hex="0040"/>
  <outline>
    <contour>
      <point x="1150" y="521" type="qcurve"/>
      <point x="1148" y="444" type="line"/>
      <point x="1148" y="364"/>
      <point x="1068" y="256"/>
      <point x="996" y="256" type="qcurve" smooth="yes"/>
      <point x="980" y="256"/>
      <point x="963" y="259" type="qcurve"/>
      <point x="940" y="257"/>
      <point x="922" y="257" type="qcurve" smooth="yes"/>
      <point x="860" y="257"/>
      <point x="788" y="328"/>
      <point x="786" y="379" type="qcurve"/>
      <point x="778" y="411"/>
      <point x="778" y="418" type="qcurve" smooth="yes"/>
      <point x="778" y="432" type="line"/>
      <point x="687" y="286"/>
      <point x="572" y="286" type="qcurve" smooth="yes"/>
      <point x="485" y="286"/>
      <point x="374" y="397"/>
      <point x="346" y="529"/>
      <point x="346" y="613"/>
      <point x="348" y="657" type="qcurve"/>
      <point x="348" y="661" type="line" smooth="yes"/>
      <point x="348" y="753"/>
      <point x="442" y="847"/>
      <point x="506" y="847" type="qcurve" smooth="yes"/>
      <point x="517" y="847"/>
      <point x="523" y="846" type="qcurve"/>
      <point x="537" y="847" type="line"/>
      <point x="594" y="847"/>
      <point x="735" y="747"/>
      <point x="745" y="683" type="qcurve"/>
      <point x="745" y="673" type="line"/>
      <point x="746" y="670"/>
      <point x="746" y="645"/>
      <point x="714" y="613"/>
      <point x="668" y="613"/>
      <point x="639" y="643"/>
      <point x="639" y="669"/>
      <point x="641" y="677" type="qcurve"/>
      <point x="630" y="698"/>
      <point x="563" y="744"/>
      <point x="539" y="744" type="qcurve"/>
      <point x="522" y="743" type="line"/>
      <point x="504" y="745" type="line"/>
      <point x="450" y="745"/>
      <point x="450" y="660" type="qcurve"/>
      <point x="451" y="655" type="line"/>
      <point x="448" y="640"/>
      <point x="448" y="592" type="qcurve" smooth="yes"/>
      <point x="448" y="434"/>
      <point x="527" y="399" type="qcurve" smooth="yes"/>
      <point x="552" y="388"/>
      <point x="608" y="388"/>
      <point x="672" y="452"/>
      <point x="737" y="564"/>
      <point x="773" y="600"/>
      <point x="800" y="600" type="qcurve" smooth="yes"/>
      <point x="849" y="600"/>
      <point x="862" y="526" type="qcurve" smooth="yes"/>
      <point x="864" y="510"/>
      <point x="880" y="481"/>
      <point x="881" y="423" type="qcurve"/>
      <point x="889" y="396"/>
      <point x="890" y="371"/>
      <point x="902" y="359"/>
      <point x="940" y="359"/>
      <point x="957" y="362" type="qcurve"/>
      <point x="965" y="362" type="line"/>
      <point x="999" y="358" type="line"/>
      <point x="1013" y="358"/>
      <point x="1046" y="391"/>
      <point x="1046" y="444" type="qcurve"/>
      <point x="1044" y="471" type="line"/>
      <point x="1047" y="489"/>
      <point x="1047" y="521" type="qcurve" smooth="yes"/>
      <point x="1047" y="690"/>
      <point x="896" y="836" type="qcurve" smooth="yes"/>
      <point x="894" y="840"/>
      <point x="893" y="840" type="qcurve" smooth="yes"/>
      <point x="828" y="918"/>
      <point x="592" y="1062"/>
      <point x="345" y="1062"/>
      <point x="161" y="866"/>
      <point x="161" y="734" type="qcurve" smooth="yes"/>
      <point x="161" y="704"/>
      <point x="164" y="689" type="qcurve" smooth="yes"/>
      <point x="174" y="266"/>
      <point x="362" y="180" type="qcurve"/>
      <point x="519" y="148"/>
      <point x="819" y="148"/>
      <point x="1007" y="158" type="qcurve"/>
      <point x="1092" y="177"/>
      <point x="1179" y="219" type="qcurve" smooth="yes"/>
      <point x="1181" y="223"/>
      <point x="1183" y="225" type="qcurve" smooth="yes"/>
      <point x="1224" y="274" type="line" smooth="yes"/>
      <point x="1240" y="293"/>
      <point x="1285" y="293"/>
      <point x="1315" y="263"/>
      <point x="1315" y="224"/>
      <point x="1303" y="209" type="qcurve" smooth="yes"/>
      <point x="1270" y="169" type="line"/>
      <point x="1252" y="124"/>
      <point x="1057" y="66" type="qcurve" smooth="yes"/>
      <point x="1051" y="64"/>
      <point x="1033" y="60"/>
      <point x="1021" y="56"/>
      <point x="842" y="46"/>
      <point x="502" y="46"/>
      <point x="336" y="81" type="qcurve" smooth="yes"/>
      <point x="333" y="84"/>
      <point x="326" y="84" type="qcurve" smooth="yes"/>
      <point x="161" y="158"/>
      <point x="100" y="380" type="qcurve" smooth="yes"/>
      <point x="68" y="493"/>
      <point x="62" y="685" type="qcurve"/>
      <point x="59" y="734" type="line"/>
      <point x="59" y="848"/>
      <point x="168" y="1046"/>
      <point x="361" y="1164"/>
      <point x="475" y="1164" type="qcurve" smooth="yes"/>
      <point x="522" y="1164"/>
      <point x="558" y="1156" type="qcurve" smooth="yes"/>
      <point x="783" y="1107"/>
      <point x="1150" y="711"/>
    </contour>
  </outline>
</glyph>
<glyph name="A" format="2">
  <advance width="1490"/>
  <unicode hex="0041"/>
  <outline>
    <contour>
      <point x="948" y="854" type="qcurve" smooth="yes"/>
      <point x="915" y="857"/>
      <point x="853" y="857"/>
      <point x="648" y="807"/>
      <point x="631" y="804" type="qcurve" smooth="yes"/>
      <point x="448" y="772"/>
      <point x="374" y="684" type="qcurve" smooth="yes"/>
      <point x="328" y="631"/>
      <point x="297" y="600" type="qcurve" smooth="yes"/>
      <point x="196" y="508" type="line" smooth="yes"/>
      <point x="184" y="497"/>
      <point x="155" y="488" type="qcurve"/>
      <point x="154" y="373" type="line"/>
      <point x="161" y="299" type="line"/>
      <point x="180" y="220" type="line" smooth="yes"/>
      <point x="182" y="208"/>
      <point x="182" y="203" type="qcurve" smooth="yes"/>
      <point x="182" y="199" type="line"/>
      <point x="190" y="178" type="line"/>
      <point x="214" y="134"/>
      <point x="230" y="114" type="qcurve"/>
      <point x="274" y="93"/>
      <point x="274" y="17"/>
      <point x="227" y="-27"/>
      <point x="197" y="-27" type="qcurve" smooth="yes"/>
      <point x="188" y="-27" type="line" smooth="yes"/>
      <point x="158" y="-27"/>
      <point x="128" y="3" type="qcurve" smooth="yes"/>
      <point x="98" y="34"/>
      <point x="72" y="80" type="qcurve" smooth="yes"/>
      <point x="31" y="153"/>
      <point x="31" y="194" type="qcurve"/>
      <point x="12" y="269" type="line" smooth="yes"/>
      <point x="11" y="272"/>
      <point x="11" y="279" type="qcurve" smooth="yes"/>
      <point x="2" y="363" type="line"/>
      <point x="2" y="370" type="line"/>
      <point x="4" y="525" type="line" smooth="yes"/>
      <point x="2" y="535"/>
      <point x="2" y="547"/>
      <point x="4" y="557" type="qcurve" smooth="yes"/>
      <point x="6" y="768" type="line" smooth="yes"/>
      <point x="6" y="797"/>
      <point x="13" y="818" type="qcurve" smooth="yes"/>
      <point x="38" y="906" type="line" smooth="yes"/>
      <point x="38" y="909"/>
      <point x="39" y="911" type="qcurve" smooth="yes"/>
      <point x="87" y="1042" type="line"/>
      <point x="123" y="1186" type="line" smooth="yes"/>
      <point x="124" y="1188"/>
      <point x="130" y="1208"/>
      <point x="154" y="1287"/>
      <point x="162.5" y="1315" type="qcurve" smooth="yes"/>
      <point x="172" y="1344"/>
      <point x="188" y="1388" type="qcurve" smooth="yes"/>
      <point x="208" y="1440"/>
      <point x="252" y="1478" type="qcurve" smooth="yes"/>
      <point x="258" y="1484"/>
      <point x="277" y="1500"/>
      <point x="308" y="1521"/>
      <point x="347" y="1542"/>
      <point x="381" y="1564"/>
      <point x="451" y="1590"/>
      <point x="460" y="1591" type="qcurve" smooth="yes"/>
      <point x="560" y="1607" type="line" smooth="yes"/>
      <point x="564" y="1608"/>
      <point x="573" y="1608" type="qcurve" smooth="yes"/>
      <point x="821" y="1604" type="line" smooth="yes"/>
      <point x="828" y="1604"/>
      <point x="832" y="1603" type="qcurve" smooth="yes"/>
      <point x="962" y="1583" type="line" smooth="yes"/>
      <point x="973" y="1577"/>
      <point x="1015" y="1571" type="qcurve" smooth="yes"/>
      <point x="1090" y="1559"/>
      <point x="1134" y="1532" type="qcurve"/>
      <point x="1176" y="1511"/>
      <point x="1201" y="1496"/>
      <point x="1239" y="1474"/>
      <point x="1250" y="1466" type="qcurve" smooth="yes"/>
      <point x="1334" y="1409"/>
      <point x="1398" y="1257"/>
      <point x="1402" y="1236" type="qcurve" smooth="yes"/>
      <point x="1422" y="1112" type="line"/>
      <point x="1423" y="1110" type="line"/>
      <point x="1472" y="748" type="line"/>
      <point x="1472" y="742" type="line" smooth="yes"/>
      <point x="1474" y="696"/>
      <point x="1474" y="540"/>
      <point x="1446" y="344"/>
      <point x="1444" y="318" type="qcurve" smooth="yes"/>
      <point x="1440" y="271"/>
      <point x="1431" y="252" type="qcurve" smooth="yes"/>
      <point x="1370" y="136" type="line" smooth="yes"/>
      <point x="1366" y="132"/>
      <point x="1366" y="130" type="qcurve" smooth="yes"/>
      <point x="1303" y="34" type="line"/>
      <point x="1268" y="-34" type="line" smooth="yes"/>
      <point x="1247" y="-76"/>
      <point x="1199" y="-76" type="qcurve" smooth="yes"/>
      <point x="1186" y="-76" type="line" smooth="yes"/>
      <point x="1152" y="-76"/>
      <point x="1106" y="-32"/>
      <point x="1106" y="40"/>
      <point x="1143" y="62" type="qcurve"/>
      <point x="1166" y="105" type="line" smooth="yes"/>
      <point x="1168" y="109"/>
      <point x="1170" y="111" type="qcurve" smooth="yes"/>
      <point x="1237" y="208" type="line"/>
      <point x="1290" y="308" type="line" smooth="yes"/>
      <point x="1291" y="317"/>
      <point x="1294" y="347"/>
      <point x="1297" y="374"/>
      <point x="1297" y="377" type="qcurve" smooth="yes"/>
      <point x="1305" y="428"/>
      <point x="1339" y="462" type="qcurve" smooth="yes"/>
      <point x="1350" y="474"/>
      <point x="1350" y="488"/>
      <point x="1337" y="512"/>
      <point x="1324" y="548"/>
      <point x="1293" y="683"/>
      <point x="1287" y="702" type="qcurve"/>
      <point x="1208" y="800"/>
      <point x="1152" y="814" type="qcurve" smooth="yes"/>
      <point x="1021" y="854"/>
    </contour>
    <contour>
      <point x="607" y="952"/>
      <point x="832" y="1009"/>
      <point x="927" y="1009"/>
      <point x="986" y="1006"/>
      <point x="1061" y="994"/>
      <point x="1080" y="990" type="qcurve" smooth="yes"/>
      <point x="1117" y="981"/>
      <point x="1200" y="957" type="qcurve" smooth="yes"/>
      <point x="1232" y="949"/>
      <point x="1291" y="884"/>
      <point x="1324" y="837" type="qcurve"/>
      <point x="1289" y="1120"/>
      <point x="1254" y="1215" type="qcurve" smooth="yes"/>
      <point x="1231" y="1284"/>
      <point x="1217" y="1313"/>
      <point x="1162" y="1365"/>
      <point x="1039" y="1433"/>
      <point x="1015" y="1439"/>
      <point x="945" y="1454"/>
      <point x="930" y="1458" type="qcurve" smooth="yes"/>
      <point x="812" y="1477" type="line"/>
      <point x="580" y="1481" type="line"/>
      <point x="491" y="1466" type="line"/>
      <point x="457" y="1453"/>
      <point x="449.5" y="1448" type="qcurve" smooth="yes"/>
      <point x="442" y="1442"/>
      <point x="424" y="1432" type="qcurve" smooth="yes"/>
      <point x="383" y="1409"/>
      <point x="368" y="1392"/>
      <point x="362" y="1388" type="qcurve" smooth="yes"/>
      <point x="336" y="1369"/>
      <point x="272" y="1164"/>
      <point x="271" y="1160" type="qcurve" smooth="yes"/>
      <point x="233" y="1010" type="line" smooth="yes"/>
      <point x="232" y="1009"/>
      <point x="232" y="1004"/>
      <point x="231" y="1003" type="qcurve" smooth="yes"/>
      <point x="183" y="866" type="line"/>
      <point x="161" y="784" type="line" smooth="yes"/>
      <point x="160" y="776"/>
      <point x="157" y="671" type="qcurve"/>
      <point x="186" y="699" type="line" smooth="yes"/>
      <point x="189" y="702"/>
      <point x="217" y="735"/>
      <point x="242" y="764"/>
      <point x="258" y="784" type="qcurve" smooth="yes"/>
      <point x="322" y="862"/>
      <point x="502" y="933"/>
    </contour>
  </outline>
</glyph>
<glyph name="B" format="2">
  <advance width="1540"/>
  <unicode hex="0042"/>
  <outline>
    <contour>
      <point x="1439" y="140" type="line"/>
      <point x="1428" y="120" type="line" smooth="yes"/>
      <point x="1417" y="98"/>
      <point x="1385" y="71" type="qcurve" smooth="yes"/>
      <point x="1300" y="2"/>
      <point x="1221" y="-3" type="qcurve" smooth="yes"/>
      <point x="1177" y="-6"/>
      <point x="957" y="-6" type="qcurve" smooth="yes"/>
      <point x="948" y="-6" type="line"/>
      <point x="932" y="-29"/>
      <point x="924" y="-29"/>
      <point x="908" y="-6" type="qcurve"/>
      <point x="899" y="-6" type="line" smooth="yes"/>
      <point x="586" y="-6"/>
      <point x="524" y="1" type="qcurve" smooth="yes"/>
      <point x="498" y="4"/>
      <point x="498" y="18" type="qcurve" smooth="yes"/>
      <point x="498" y="24"/>
      <point x="502" y="30" type="qcurve" smooth="yes"/>
      <point x="505" y="32"/>
      <point x="513" y="38"/>
      <point x="535" y="54"/>
      <point x="619" y="111"/>
      <point x="631" y="120" type="qcurve"/>
      <point x="668" y="116" type="line" smooth="yes"/>
      <point x="704" y="112"/>
      <point x="997" y="112" type="qcurve" smooth="yes"/>
      <point x="1280" y="112" type="line"/>
      <point x="1280" y="212" type="line" smooth="yes"/>
      <point x="1280" y="326"/>
      <point x="1268" y="372"/>
      <point x="1247" y="392" type="qcurve" smooth="yes"/>
      <point x="1176" y="455"/>
      <point x="1106" y="472" type="qcurve" smooth="yes"/>
      <point x="967" y="508"/>
      <point x="926" y="514"/>
      <point x="878" y="524"/>
      <point x="839" y="529"/>
      <point x="697" y="537"/>
      <point x="637" y="562" type="qcurve" smooth="yes"/>
      <point x="482" y="628"/>
      <point x="482" y="694" type="qcurve" smooth="yes"/>
      <point x="482" y="726"/>
      <point x="528" y="767"/>
      <point x="634" y="830"/>
      <point x="717" y="867"/>
      <point x="792" y="876" type="qcurve" smooth="yes"/>
      <point x="833" y="881"/>
      <point x="926" y="894"/>
      <point x="1003" y="903"/>
      <point x="1136" y="908"/>
      <point x="1196" y="920" type="qcurve"/>
      <point x="1199" y="970"/>
      <point x="1199" y="1206"/>
      <point x="1189" y="1255"/>
      <point x="1155" y="1300"/>
      <point x="1036" y="1391"/>
      <point x="894" y="1472"/>
      <point x="866" y="1482" type="qcurve" smooth="yes"/>
      <point x="778" y="1514"/>
      <point x="619" y="1514" type="qcurve" smooth="yes"/>
      <point x="524" y="1514"/>
      <point x="457" y="1507" type="qcurve"/>
      <point x="440" y="1482"/>
      <point x="380" y="1322" type="qcurve" smooth="yes"/>
      <point x="324" y="1172"/>
      <point x="314" y="1076"/>
      <point x="314" y="556"/>
      <point x="321" y="438"/>
      <point x="323" y="203" type="qcurve"/>
      <point x="186" y="133"/>
      <point x="173" y="133"/>
      <point x="164" y="142"/>
      <point x="164" y="146" type="qcurve" smooth="yes"/>
      <point x="164" y="148" type="line"/>
      <point x="163" y="213" type="line"/>
      <point x="164" y="305" type="line" smooth="yes"/>
      <point x="164" y="373"/>
      <point x="154" y="499"/>
      <point x="154" y="634" type="qcurve" smooth="yes"/>
      <point x="155" y="846" type="line" smooth="yes"/>
      <point x="156" y="1028"/>
      <point x="164" y="1111"/>
      <point x="266" y="1407"/>
      <point x="316" y="1507"/>
      <point x="350" y="1543"/>
      <point x="446" y="1605"/>
      <point x="483" y="1618"/>
      <point x="577" y="1627"/>
      <point x="611" y="1632"/>
      <point x="858" y="1632"/>
      <point x="887" y="1624"/>
      <point x="929" y="1616" type="qcurve" smooth="yes"/>
      <point x="1034" y="1598"/>
      <point x="1222" y="1458" type="qcurve" smooth="yes"/>
      <point x="1304" y="1398"/>
      <point x="1348" y="1340"/>
      <point x="1361" y="1257"/>
      <point x="1362" y="1119" type="qcurve" smooth="yes"/>
      <point x="1362" y="1030" type="line" smooth="yes"/>
      <point x="1362" y="974"/>
      <point x="1349" y="943"/>
      <point x="1326" y="928" type="qcurve" smooth="yes"/>
      <point x="1196" y="849"/>
      <point x="1099" y="803"/>
      <point x="1024" y="798"/>
      <point x="978" y="793"/>
      <point x="857" y="787"/>
      <point x="804" y="776"/>
      <point x="720" y="768"/>
      <point x="639" y="758" type="qcurve"/>
      <point x="663" y="726"/>
      <point x="697" y="700"/>
      <point x="810" y="646"/>
      <point x="972" y="641"/>
      <point x="1026" y="628"/>
      <point x="1095" y="615"/>
      <point x="1148" y="603"/>
      <point x="1209" y="585"/>
      <point x="1288" y="567"/>
      <point x="1406" y="475"/>
      <point x="1440" y="414"/>
      <point x="1440" y="309" type="qcurve" smooth="yes"/>
    </contour>
  </outline>
</glyph>
<glyph name="C" format="2">
  <advance width="921"/>
  <unicode hex="0043"/>
  <outline>
    <contour>
      <point x="837" y="1382" type="qcurve" smooth="yes"/>
      <point x="837" y="1381" type="line" smooth="yes"/>
      <point x="837" y="1376"/>
      <point x="713" y="1307"/>
      <point x="702" y="1307" type="qcurve" smooth="yes"/>
      <point x="690" y="1307"/>
      <point x="674" y="1342" type="qcurve" smooth="yes"/>
      <point x="662" y="1369"/>
      <point x="615" y="1444"/>
      <point x="606" y="1453" type="qcurve" smooth="yes"/>
      <point x="566" y="1484"/>
      <point x="455" y="1484" type="qcurve" smooth="yes"/>
      <point x="406" y="1484" type="line"/>
      <point x="364" y="1444"/>
      <point x="333.5" y="1386.5" type="qcurve" smooth="yes"/>
      <point x="302" y="1330"/>
      <point x="294" y="1286" type="qcurve" smooth="yes"/>
      <point x="288" y="1252"/>
      <point x="267" y="1157"/>
      <point x="267" y="1083" type="qcurve"/>
      <point x="268" y="1067" type="line"/>
      <point x="268" y="1063" type="line" smooth="yes"/>
      <point x="268" y="1054"/>
      <point x="260" y="969"/>
      <point x="260" y="821" type="qcurve" smooth="yes"/>
      <point x="260" y="678" type="line" smooth="yes"/>
      <point x="260" y="397"/>
      <point x="268" y="375" type="qcurve" smooth="yes"/>
      <point x="274" y="358"/>
      <point x="332" y="256"/>
      <point x="349" y="236" type="qcurve" smooth="yes"/>
      <point x="388" y="187"/>
      <point x="469" y="164" type="qcurve" smooth="yes"/>
      <point x="507" y="153"/>
      <point x="556" y="149"/>
      <point x="663" y="149" type="qcurve" smooth="yes"/>
      <point x="846" y="149" type="line"/>
      <point x="866" y="144" type="line"/>
      <point x="874" y="144" type="line" smooth="yes"/>
      <point x="890" y="144"/>
      <point x="890" y="116"/>
      <point x="832" y="84" type="qcurve" smooth="yes"/>
      <point x="818" y="76"/>
      <point x="790" y="61"/>
      <point x="750" y="36" type="qcurve"/>
      <point x="592" y="36" type="line" smooth="yes"/>
      <point x="466" y="36"/>
      <point x="426" y="39" type="qcurve" smooth="yes"/>
      <point x="268" y="51"/>
      <point x="196" y="154" type="qcurve" smooth="yes"/>
      <point x="141" y="239"/>
      <point x="116" y="307" type="qcurve" smooth="yes"/>
      <point x="107" y="331" type="line"/>
      <point x="106" y="741" type="line" smooth="yes"/>
      <point x="106" y="917"/>
      <point x="112" y="969"/>
      <point x="117" y="1149"/>
      <point x="138" y="1216"/>
      <point x="152" y="1292"/>
      <point x="208" y="1414"/>
      <point x="306" y="1509"/>
      <point x="461" y="1588"/>
      <point x="467" y="1588" type="qcurve" smooth="yes"/>
      <point x="480" y="1588" type="line" smooth="yes"/>
      <point x="502" y="1589"/>
      <point x="671" y="1589"/>
      <point x="741" y="1554"/>
      <point x="773" y="1519"/>
      <point x="836" y="1400"/>
      <point x="836" y="1388" type="qcurve" smooth="yes"/>
      <point x="836" y="1385" type="line" smooth="yes"/>
      <point x="836" y="1384"/>
    </contour>
  </outline>
</glyph>
<glyph name="D" format="2">
  <advance width="1568"/>
  <unicode hex="0044"/>
  <outline>
    <contour>
      <point x="1366" y="722" type="line" smooth="yes"/>
      <point x="1366" y="790"/>
      <point x="1352" y="851" type="qcurve" smooth="yes"/>
      <point x="1338" y="912"/>
      <point x="1334" y="963.5" type="qcurve" smooth="yes"/>
      <point x="1330" y="1015"/>
      <point x="1299" y="1086.5" type="qcurve" smooth="yes"/>
      <point x="1268" y="1158"/>
      <point x="1239" y="1190"/>
      <point x="1099" y="1295"/>
      <point x="945" y="1355"/>
      <point x="672" y="1425"/>
      <point x="571" y="1436"/>
      <point x="295" y="1436"/>
      <point x="259" y="1418" type="qcurve" smooth="yes"/>
      <point x="253" y="1415"/>
      <point x="217" y="1376"/>
      <point x="200" y="1318"/>
      <point x="195" y="1303"/>
      <point x="194" y="1299" type="qcurve"/>
      <point x="194" y="545" type="line"/>
      <point x="211" y="461"/>
      <point x="220" y="373"/>
      <point x="225" y="338"/>
      <point x="233" y="80"/>
      <point x="237" y="54"/>
      <point x="237" y="51" type="qcurve" smooth="yes"/>
      <point x="237" y="48" type="line" smooth="yes"/>
      <point x="237" y="46"/>
      <point x="238" y="45" type="qcurve"/>
      <point x="233" y="38" type="line"/>
      <point x="120" y="-30"/>
      <point x="97" y="-30" type="qcurve" smooth="yes"/>
      <point x="94" y="-30" type="line" smooth="yes"/>
      <point x="91" y="-30"/>
      <point x="84" y="-23"/>
      <point x="84" y="-20"/>
      <point x="82" y="-10"/>
      <point x="73" y="78"/>
      <point x="73" y="324"/>
      <point x="38" y="481" type="qcurve"/>
      <point x="38" y="1250" type="line"/>
      <point x="48" y="1282" type="line" smooth="yes"/>
      <point x="64" y="1333"/>
      <point x="108" y="1395"/>
      <point x="202" y="1465"/>
      <point x="230" y="1481" type="qcurve" smooth="yes"/>
      <point x="349" y="1548"/>
      <point x="524" y="1548" type="qcurve"/>
      <point x="717" y="1546" type="line"/>
      <point x="767" y="1536" type="line" smooth="yes"/>
      <point x="875" y="1514"/>
      <point x="1127" y="1443"/>
      <point x="1246" y="1389"/>
      <point x="1400" y="1273"/>
      <point x="1417" y="1241" type="qcurve" smooth="yes"/>
      <point x="1475" y="1130"/>
      <point x="1493" y="998" type="qcurve" smooth="yes"/>
      <point x="1498" y="962"/>
      <point x="1522" y="858"/>
      <point x="1522" y="706"/>
      <point x="1520" y="580" type="qcurve"/>
      <point x="1473" y="440"/>
      <point x="1442" y="334"/>
      <point x="1408" y="259" type="qcurve" smooth="yes"/>
      <point x="1356" y="140"/>
      <point x="1126" y="8"/>
      <point x="1104" y="2" type="qcurve" smooth="yes"/>
      <point x="1082" y="-4"/>
      <point x="862" y="-4" type="qcurve" smooth="yes"/>
      <point x="642" y="-4"/>
      <point x="501" y="-3" type="qcurve"/>
      <point x="658" y="108" type="line"/>
      <point x="1169" y="108" type="line"/>
      <point x="1219" y="158"/>
      <point x="1283" y="285"/>
      <point x="1351" y="501"/>
      <point x="1364" y="536"/>
      <point x="1364" y="540" type="qcurve" smooth="yes"/>
    </contour>
  </outline>
</glyph>
<glyph name="E" format="2">
  <advance width="1048"/>
  <unicode hex="0045"/>
  <outline>
    <contour>
      <point x="323" y="1464" type="qcurve" smooth="yes"/>
      <point x="317" y="1464" type="line"/>
      <point x="214" y="1346"/>
      <point x="214" y="1146" type="qcurve"/>
      <point x="215" y="1113" type="line" smooth="yes"/>
      <point x="216" y="1058"/>
      <point x="221" y="1050" type="qcurve" smooth="yes"/>
      <point x="248" y="1004"/>
      <point x="288" y="964" type="qcurve" smooth="yes"/>
      <point x="306" y="946"/>
      <point x="374" y="915"/>
      <point x="544" y="873"/>
      <point x="606.5" y="869.5" type="qcurve" smooth="yes"/>
      <point x="670" y="866"/>
      <point x="784" y="830" type="qcurve" smooth="yes"/>
      <point x="824" y="818"/>
      <point x="909" y="767"/>
      <point x="944" y="726"/>
      <point x="944" y="660"/>
      <point x="924" y="627"/>
      <point x="864" y="583"/>
      <point x="778" y="561"/>
      <point x="701" y="560" type="qcurve" smooth="yes"/>
      <point x="675" y="560" type="line" smooth="yes"/>
      <point x="629" y="560"/>
      <point x="390" y="622"/>
      <point x="251" y="631" type="qcurve"/>
      <point x="160" y="495"/>
      <point x="160" y="414" type="qcurve" smooth="yes"/>
      <point x="160" y="412" type="line" smooth="yes"/>
      <point x="160" y="406"/>
      <point x="175" y="380"/>
      <point x="265" y="311" type="qcurve" smooth="yes"/>
      <point x="286" y="295"/>
      <point x="331" y="249" type="qcurve" smooth="yes"/>
      <point x="418" y="156"/>
      <point x="486" y="136" type="qcurve" smooth="yes"/>
      <point x="516" y="126"/>
      <point x="541" y="119"/>
      <point x="548" y="117" type="qcurve" smooth="yes"/>
      <point x="1016" y="115" type="line"/>
      <point x="882" y="23" type="line"/>
      <point x="685" y="23" type="line" smooth="yes"/>
      <point x="493" y="23"/>
      <point x="466" y="26" type="qcurve" smooth="yes"/>
      <point x="337" y="38"/>
      <point x="222" y="158" type="qcurve" smooth="yes"/>
      <point x="155" y="228"/>
      <point x="40" y="322"/>
      <point x="30" y="342" type="qcurve" smooth="yes"/>
      <point x="24" y="354"/>
      <point x="25" y="394"/>
      <point x="56" y="517"/>
      <point x="94" y="569" type="qcurve" smooth="yes"/>
      <point x="100" y="578"/>
      <point x="143" y="648"/>
      <point x="177" y="672" type="qcurve" smooth="yes"/>
      <point x="260" y="730"/>
      <point x="348" y="730" type="qcurve" smooth="yes"/>
      <point x="404" y="730"/>
      <point x="514" y="706"/>
      <point x="643" y="679"/>
      <point x="720" y="661"/>
      <point x="766" y="660" type="qcurve" smooth="yes"/>
      <point x="823" y="659" type="line"/>
      <point x="778" y="690" type="line" smooth="yes"/>
      <point x="732" y="724"/>
      <point x="639" y="754"/>
      <point x="508" y="780"/>
      <point x="458" y="784"/>
      <point x="237" y="831"/>
      <point x="180" y="877" type="qcurve" smooth="yes"/>
      <point x="160" y="893"/>
      <point x="103" y="963"/>
      <point x="91" y="986" type="qcurve" smooth="yes"/>
      <point x="80" y="1007" type="line"/>
      <point x="81" y="1095" type="line" smooth="yes"/>
      <point x="81" y="1200"/>
      <point x="99" y="1279.5" type="qcurve" smooth="yes"/>
      <point x="118" y="1358"/>
      <point x="178" y="1436" type="qcurve" smooth="yes"/>
      <point x="206" y="1472"/>
      <point x="325" y="1548"/>
      <point x="384" y="1557" type="qcurve" smooth="yes"/>
      <point x="394" y="1559"/>
      <point x="458" y="1559" type="qcurve" smooth="yes"/>
      <point x="490" y="1559" type="line" smooth="yes"/>
      <point x="698" y="1559"/>
      <point x="764" y="1554"/>
      <point x="935" y="1538"/>
      <point x="943" y="1534" type="qcurve" smooth="yes"/>
      <point x="950" y="1531"/>
      <point x="950" y="1511"/>
      <point x="914" y="1488" type="qcurve" smooth="yes"/>
      <point x="897" y="1477"/>
      <point x="855" y="1449"/>
      <point x="844" y="1442" type="qcurve"/>
      <point x="685" y="1457"/>
      <point x="545" y="1464"/>
    </contour>
  </outline>
</glyph>
<glyph name="F" format="2">
  <advance width="987"/>
  <unicode hex="0046"/>
  <outline>
    <contour>
      <point x="192" y="36" type="qcurve" smooth="yes"/>
      <point x="186" y="36"/>
      <point x="173" y="49"/>
      <point x="120" y="142"/>
      <point x="103" y="216"/>
      <point x="77" y="296"/>
      <point x="52" y="407" type="qcurve"/>
      <point x="52" y="518" type="line" smooth="yes"/>
      <point x="52" y="630"/>
      <point x="66" y="699"/>
      <point x="88" y="741"/>
      <point x="153" y="804"/>
      <point x="240" y="842"/>
      <point x="280" y="848"/>
      <point x="329" y="848" type="qcurve" smooth="yes"/>
      <point x="523" y="848" type="line"/>
      <point x="375" y="886" type="line" smooth="yes"/>
      <point x="298" y="905"/>
      <point x="155" y="915"/>
      <point x="121" y="927" type="qcurve" smooth="yes"/>
      <point x="87" y="939"/>
      <point x="73" y="951"/>
      <point x="61" y="975" type="qcurve"/>
      <point x="62" y="1123" type="line" smooth="yes"/>
      <point x="63" y="1235"/>
      <point x="67" y="1287"/>
      <point x="83" y="1333"/>
      <point x="109" y="1424"/>
      <point x="177" y="1513"/>
      <point x="280" y="1579"/>
      <point x="326" y="1590"/>
      <point x="657" y="1590" type="qcurve" smooth="yes"/>
      <point x="676" y="1590" type="line" smooth="yes"/>
      <point x="819" y="1590"/>
      <point x="887" y="1589" type="qcurve"/>
      <point x="917" y="1588" type="line" smooth="yes"/>
      <point x="931" y="1588"/>
      <point x="931" y="1567"/>
      <point x="888" y="1537"/>
      <point x="846" y="1508" type="qcurve"/>
      <point x="272" y="1508" type="line"/>
      <point x="228" y="1464"/>
      <point x="213" y="1415" type="qcurve" smooth="yes"/>
      <point x="198" y="1366"/>
      <point x="176" y="1298"/>
      <point x="176" y="1200" type="qcurve"/>
      <point x="179" y="1011" type="line"/>
      <point x="255" y="992"/>
      <point x="383" y="982"/>
      <point x="546" y="942"/>
      <point x="583" y="923"/>
      <point x="654" y="868"/>
      <point x="679" y="843"/>
      <point x="679" y="827"/>
      <point x="677" y="822" type="qcurve" smooth="yes"/>
      <point x="651" y="796"/>
      <point x="599" y="773" type="qcurve" smooth="yes"/>
      <point x="574" y="762"/>
      <point x="203" y="762" type="qcurve"/>
      <point x="184" y="738"/>
      <point x="165" y="665"/>
      <point x="165" y="551" type="qcurve" smooth="yes"/>
      <point x="165" y="451" type="line"/>
      <point x="172" y="422"/>
      <point x="187" y="352"/>
      <point x="216" y="260"/>
      <point x="237" y="177"/>
      <point x="290" y="96"/>
      <point x="290" y="94" type="qcurve" smooth="yes"/>
      <point x="290" y="92" type="line" smooth="yes"/>
      <point x="290" y="89"/>
      <point x="211" y="43"/>
    </contour>
  </outline>
</glyph>
<glyph name="G" format="2">
  <advance width="1490"/>
  <unicode hex="0047"/>
  <outline>
    <contour>
      <point x="722" y="735" type="line"/>
      <point x="712" y="719"/>
      <point x="706" y="703" type="qcurve"/>
      <point x="597" y="656"/>
      <point x="587" y="651"/>
      <point x="583" y="651" type="qcurve" smooth="yes"/>
      <point x="565" y="651"/>
      <point x="565" y="666" type="qcurve" smooth="yes"/>
      <point x="565" y="667" type="line" smooth="yes"/>
      <point x="565" y="674"/>
      <point x="609" y="759" type="qcurve"/>
      <point x="658" y="795"/>
      <point x="704" y="820" type="qcurve" smooth="yes"/>
      <point x="734" y="835" type="line"/>
      <point x="782" y="836"/>
      <point x="878.5" y="836" type="qcurve" smooth="yes"/>
      <point x="974" y="836"/>
      <point x="1034" y="818" type="qcurve" smooth="yes"/>
      <point x="1064" y="808"/>
      <point x="1163" y="783"/>
      <point x="1193" y="774" type="qcurve" smooth="yes"/>
      <point x="1340" y="712"/>
      <point x="1399" y="595" type="qcurve" smooth="yes"/>
      <point x="1456" y="486"/>
      <point x="1456" y="408" type="qcurve" smooth="yes"/>
      <point x="1456" y="253"/>
      <point x="1348" y="148" type="qcurve" smooth="yes"/>
      <point x="1262" y="64"/>
      <point x="1160" y="43" type="qcurve" smooth="yes"/>
      <point x="1106" y="33" type="line"/>
      <point x="950" y="33" type="line" smooth="yes"/>
      <point x="786" y="33"/>
      <point x="705" y="45"/>
      <point x="622" y="54" type="qcurve" smooth="yes"/>
      <point x="460" y="72"/>
      <point x="378" y="122" type="qcurve" smooth="yes"/>
      <point x="342" y="144"/>
      <point x="179" y="297"/>
      <point x="71" y="527"/>
      <point x="28" y="666" type="qcurve" smooth="yes"/>
      <point x="14" y="710" type="line"/>
      <point x="14" y="872" type="line" smooth="yes"/>
      <point x="14" y="1007"/>
      <point x="21" y="1076"/>
      <point x="39" y="1129" type="qcurve" smooth="yes"/>
      <point x="80" y="1250"/>
      <point x="220" y="1407"/>
      <point x="274.5" y="1446" type="qcurve" smooth="yes"/>
      <point x="329" y="1486"/>
      <point x="496" y="1564" type="qcurve" smooth="yes"/>
      <point x="567" y="1598"/>
      <point x="628" y="1616.5" type="qcurve" smooth="yes"/>
      <point x="690" y="1635"/>
      <point x="796" y="1635" type="qcurve" smooth="yes"/>
      <point x="858" y="1635"/>
      <point x="941" y="1626"/>
      <point x="1121" y="1587"/>
      <point x="1215" y="1571"/>
      <point x="1294" y="1552" type="qcurve" smooth="yes"/>
      <point x="1319" y="1546"/>
      <point x="1319" y="1533" type="qcurve" smooth="yes"/>
      <point x="1319" y="1526"/>
      <point x="1279" y="1497"/>
      <point x="1209" y="1449" type="qcurve"/>
      <point x="1131" y="1476"/>
      <point x="1037" y="1492" type="qcurve" smooth="yes"/>
      <point x="980" y="1502"/>
      <point x="975" y="1502" type="qcurve" smooth="yes"/>
      <point x="827" y="1536"/>
      <point x="609" y="1536"/>
      <point x="559" y="1520" type="qcurve" smooth="yes"/>
      <point x="439" y="1480"/>
      <point x="387" y="1447" type="qcurve" smooth="yes"/>
      <point x="365" y="1433"/>
      <point x="276" y="1348"/>
      <point x="249" y="1311" type="qcurve" smooth="yes"/>
      <point x="134" y="1150"/>
      <point x="134" y="902" type="qcurve" smooth="yes"/>
      <point x="134" y="829"/>
      <point x="147" y="758"/>
      <point x="221" y="550"/>
      <point x="290" y="409"/>
      <point x="429" y="253"/>
      <point x="530" y="188"/>
      <point x="645" y="158"/>
      <point x="863" y="134" type="qcurve" smooth="yes"/>
      <point x="896" y="131"/>
      <point x="1030" y="131" type="qcurve" smooth="yes"/>
      <point x="1207" y="131" type="line"/>
      <point x="1232" y="145" type="line"/>
      <point x="1302" y="218"/>
      <point x="1320" y="325" type="qcurve" smooth="yes"/>
      <point x="1324" y="345"/>
      <point x="1324" y="375"/>
      <point x="1293" y="496"/>
      <point x="1242" y="572" type="qcurve"/>
      <point x="1205" y="601"/>
      <point x="1120" y="632" type="qcurve"/>
      <point x="1067" y="670"/>
      <point x="1033" y="688" type="qcurve" smooth="yes"/>
      <point x="942" y="736"/>
      <point x="823" y="736" type="qcurve" smooth="yes"/>
    </contour>
  </outline>
</glyph>
<glyph name="H" format="2">
  <advance width="1777"/>
  <unicode hex="0048"/>
  <outline>
    <contour>
      <point x="1675" y="486" type="line"/>
      <point x="1647" y="354" type="line"/>
      <point x="1636" y="270" type="line" smooth="yes"/>
      <point x="1635" y="259"/>
      <point x="1614.5" y="231.5" type="qcurve" smooth="yes"/>
      <point x="1469.69" y="37.2428"/>
      <point x="1433" y="5" type="qcurve" smooth="yes"/>
      <point x="1356" y="-62"/>
      <point x="1314" y="-21" type="qcurve" smooth="yes"/>
      <point x="1298" y="-6"/>
      <point x="1298" y="22" type="qcurve" smooth="yes"/>
      <point x="1298" y="56"/>
      <point x="1360" y="77" type="qcurve"/>
      <point x="1406" y="119"/>
      <point x="1536" y="297" type="qcurve"/>
      <point x="1546" y="370" type="line"/>
      <point x="1546" y="374" type="line"/>
      <point x="1573" y="499" type="line"/>
      <point x="1584" y="616" type="line"/>
      <point x="1588" y="716" type="line"/>
      <point x="1536" y="688"/>
      <point x="1332" y="642"/>
      <point x="1297" y="627"/>
      <point x="1142" y="588"/>
      <point x="1081" y="588" type="qcurve" smooth="yes"/>
      <point x="1076" y="588" type="line"/>
      <point x="822" y="596" type="line"/>
      <point x="817" y="596" type="line"/>
      <point x="612" y="621" type="line"/>
      <point x="610" y="621" type="line"/>
      <point x="459" y="646" type="line" smooth="yes"/>
      <point x="449" y="648"/>
      <point x="312" y="708"/>
      <point x="284" y="724" type="qcurve" smooth="yes"/>
      <point x="246" y="746" type="line" smooth="yes"/>
      <point x="236" y="752"/>
      <point x="233" y="754" type="qcurve"/>
      <point x="238" y="616" type="line"/>
      <point x="250" y="499" type="line"/>
      <point x="276" y="374" type="line"/>
      <point x="287" y="297" type="line"/>
      <point x="314" y="260"/>
      <point x="381" y="174"/>
      <point x="432" y="83"/>
      <point x="453" y="75" type="qcurve" smooth="yes"/>
      <point x="494" y="60"/>
      <point x="494" y="3"/>
      <point x="464" y="-27"/>
      <point x="449" y="-27" type="qcurve" smooth="yes"/>
      <point x="410" y="-27"/>
      <point x="337" y="45"/>
      <point x="292" y="120"/>
      <point x="272" y="146"/>
      <point x="208" y="233"/>
      <point x="188" y="259"/>
      <point x="187" y="270" type="qcurve" smooth="yes"/>
      <point x="176" y="354" type="line"/>
      <point x="149" y="481" type="line"/>
      <point x="136" y="607" type="line"/>
      <point x="136" y="610" type="line"/>
      <point x="129" y="804" type="line"/>
      <point x="56" y="833"/>
      <point x="9" y="869" type="qcurve" smooth="yes"/>
      <point x="-10" y="883"/>
      <point x="-10" y="931"/>
      <point x="20" y="961"/>
      <point x="59" y="961"/>
      <point x="92" y="935"/>
      <point x="136" y="914" type="qcurve"/>
      <point x="136" y="920" type="line"/>
      <point x="174" y="1034" type="line"/>
      <point x="183" y="1052" type="line"/>
      <point x="229" y="1182" type="line" smooth="yes"/>
      <point x="229" y="1184"/>
      <point x="230" y="1185" type="qcurve" smooth="yes"/>
      <point x="276" y="1288" type="line"/>
      <point x="330" y="1446" type="line" smooth="yes"/>
      <point x="330" y="1448"/>
      <point x="333" y="1454" type="qcurve" smooth="yes"/>
      <point x="392" y="1559" type="line" smooth="yes"/>
      <point x="406" y="1585"/>
      <point x="458" y="1585"/>
      <point x="488" y="1555"/>
      <point x="488" y="1523"/>
      <point x="481" y="1509" type="qcurve" smooth="yes"/>
      <point x="425" y="1408" type="line"/>
      <point x="372" y="1253" type="line" smooth="yes"/>
      <point x="372" y="1251"/>
      <point x="370" y="1249" type="qcurve"/>
      <point x="324" y="1146" type="line"/>
      <point x="278" y="1015" type="line" smooth="yes"/>
      <point x="277" y="1010"/>
      <point x="270" y="997" type="qcurve"/>
      <point x="238" y="905" type="line"/>
      <point x="235" y="868" type="line"/>
      <point x="265" y="854"/>
      <point x="360" y="800"/>
      <point x="482" y="746" type="qcurve"/>
      <point x="626" y="722" type="line"/>
      <point x="827" y="698" type="line"/>
      <point x="1078" y="690" type="line"/>
      <point x="1081" y="690" type="line" smooth="yes"/>
      <point x="1128" y="690"/>
      <point x="1266" y="725" type="qcurve"/>
      <point x="1302" y="740"/>
      <point x="1450" y="774"/>
      <point x="1478" y="782" type="qcurve" smooth="yes"/>
      <point x="1555" y="804"/>
      <point x="1589" y="845" type="qcurve"/>
      <point x="1585" y="905" type="line"/>
      <point x="1553" y="997" type="line"/>
      <point x="1544" y="1015" type="line"/>
      <point x="1498" y="1146" type="line"/>
      <point x="1452" y="1249" type="line" smooth="yes"/>
      <point x="1451" y="1250"/>
      <point x="1451" y="1253" type="qcurve" smooth="yes"/>
      <point x="1398" y="1408" type="line"/>
      <point x="1344" y="1506" type="line"/>
      <point x="1319" y="1538" type="line" smooth="yes"/>
      <point x="1308" y="1552"/>
      <point x="1308" y="1590"/>
      <point x="1338" y="1620"/>
      <point x="1386" y="1620"/>
      <point x="1400" y="1601" type="qcurve" smooth="yes"/>
      <point x="1427" y="1566" type="line" smooth="yes"/>
      <point x="1428" y="1565"/>
      <point x="1431" y="1559" type="qcurve" smooth="yes"/>
      <point x="1490" y="1454" type="line"/>
      <point x="1490" y="1449"/>
      <point x="1493" y="1446" type="qcurve"/>
      <point x="1547" y="1288" type="line"/>
      <point x="1593" y="1185" type="line" smooth="yes"/>
      <point x="1594" y="1184"/>
      <point x="1594" y="1182" type="qcurve" smooth="yes"/>
      <point x="1640" y="1052" type="line"/>
      <point x="1649" y="1034" type="line"/>
      <point x="1671" y="969" type="line"/>
      <point x="1686" y="981"/>
      <point x="1725" y="981"/>
      <point x="1755" y="951"/>
      <point x="1755" y="914"/>
      <point x="1739" y="889"/>
      <point x="1706" y="836"/>
      <point x="1695" y="819" type="qcurve"/>
      <point x="1695" y="818" type="line"/>
      <point x="1694" y="817" type="line"/>
      <point x="1694" y="812" type="line"/>
      <point x="1687" y="610" type="line" smooth="yes"/>
      <point x="1686" y="608"/>
      <point x="1686" y="607" type="qcurve" smooth="yes"/>
    </contour>
  </outline>
</glyph>
<glyph name="I" format="2">
  <advance width="565"/>
  <unicode hex="0049"/>
  <outline>
    <contour>
      <point x="462" y="685" type="line" smooth="yes"/>
      <point x="462" y="599"/>
      <point x="460" y="564"/>
      <point x="430" y="441"/>
      <point x="407" y="372"/>
      <point x="292" y="194"/>
      <point x="271.5" y="144.5" type="qcurve" smooth="yes"/>
      <point x="250" y="95"/>
      <point x="226" y="72" type="qcurve" smooth="yes"/>
      <point x="210" y="56"/>
      <point x="115" y="20"/>
      <point x="102" y="15" type="qcurve"/>
      <point x="82" y="15" type="line"/>
      <point x="84" y="29"/>
      <point x="99" y="50" type="qcurve"/>
      <point x="122" y="72"/>
      <point x="163" y="174"/>
      <point x="289" y="364"/>
      <point x="309" y="467"/>
      <point x="325" y="536" type="qcurve"/>
      <point x="325" y="921" type="line"/>
      <point x="312" y="974"/>
      <point x="295" y="1080"/>
      <point x="226" y="1272"/>
      <point x="166" y="1356" type="qcurve" smooth="yes"/>
      <point x="133" y="1402"/>
      <point x="55" y="1528" type="qcurve"/>
      <point x="55" y="1605" type="line"/>
      <point x="87" y="1623"/>
      <point x="150" y="1623"/>
      <point x="184" y="1601" type="qcurve"/>
      <point x="200" y="1582" type="line"/>
      <point x="225" y="1535"/>
      <point x="292" y="1437" type="qcurve" smooth="yes"/>
      <point x="358" y="1338"/>
      <point x="380" y="1274" type="qcurve" smooth="yes"/>
      <point x="390" y="1246"/>
      <point x="426" y="1159"/>
      <point x="441" y="1071"/>
      <point x="463" y="959" type="qcurve"/>
    </contour>
  </outline>
</glyph>
<glyph name="J" format="2">
  <advance width="966"/>
  <unicode hex="004A"/>
  <outline>
    <contour>
      <point x="709" y="1620" type="qcurve"/>
      <point x="719" y="1620" type="line" smooth="yes"/>
      <point x="733" y="1620"/>
      <point x="737" y="1619" type="qcurve" smooth="yes"/>
      <point x="737" y="1617"/>
      <point x="740" y="1610"/>
      <point x="749" y="1582"/>
      <point x="788" y="1489" type="qcurve"/>
      <point x="853" y="1351"/>
      <point x="868" y="1262" type="qcurve" smooth="yes"/>
      <point x="871" y="1248"/>
      <point x="891" y="1160"/>
      <point x="896" y="1111"/>
      <point x="920" y="933"/>
      <point x="920" y="706" type="qcurve" smooth="yes"/>
      <point x="920" y="661" type="line" smooth="yes"/>
      <point x="920" y="567"/>
      <point x="910" y="497"/>
      <point x="820" y="369" type="qcurve" smooth="yes"/>
      <point x="698" y="199"/>
      <point x="507" y="118" type="qcurve" smooth="yes"/>
      <point x="387" y="67"/>
      <point x="331" y="67" type="qcurve" smooth="yes"/>
      <point x="245.613" y="67"/>
      <point x="54" y="202" type="qcurve" smooth="yes"/>
      <point x="39" y="210"/>
      <point x="30" y="217" type="qcurve"/>
      <point x="32" y="237"/>
      <point x="48" y="252" type="qcurve" smooth="yes"/>
      <point x="93" y="283"/>
      <point x="124" y="299"/>
      <point x="130" y="305"/>
      <point x="135" y="308"/>
      <point x="141" y="308"/>
      <point x="149" y="301.5" type="qcurve" smooth="yes"/>
      <point x="181.88" y="274.785"/>
      <point x="246" y="237" type="qcurve" smooth="yes"/>
      <point x="384" y="164"/>
      <point x="415" y="164" type="qcurve" smooth="yes"/>
      <point x="498" y="164"/>
      <point x="586" y="233" type="qcurve" smooth="yes"/>
      <point x="636" y="273"/>
      <point x="664" y="310"/>
      <point x="680" y="330" type="qcurve" smooth="yes"/>
      <point x="704" y="360" type="line"/>
      <point x="764" y="437"/>
      <point x="788" y="506" type="qcurve"/>
      <point x="787" y="685" type="line" smooth="yes"/>
      <point x="786" y="930"/>
      <point x="766" y="1056"/>
      <point x="764" y="1090"/>
      <point x="762" y="1110" type="qcurve"/>
      <point x="752" y="1128"/>
      <point x="724" y="1296"/>
      <point x="672" y="1395" type="qcurve"/>
      <point x="608" y="1530"/>
      <point x="597" y="1564" type="qcurve"/>
      <point x="610" y="1564"/>
      <point x="610" y="1574" type="qcurve" smooth="yes"/>
      <point x="610" y="1578"/>
    </contour>
  </outline>
</glyph>
<glyph name="K" format="2">
  <advance width="1421"/>
  <unicode hex="004B"/>
  <outline>
    <contour>
      <point x="60" y="28" type="line"/>
      <point x="50" y="24"/>
      <point x="44" y="24" type="qcurve" smooth="yes"/>
      <point x="29" y="24"/>
      <point x="29" y="38" type="qcurve" smooth="yes"/>
      <point x="29" y="46"/>
      <point x="39" y="53"/>
      <point x="96" y="86"/>
      <point x="122" y="122" type="qcurve" smooth="yes"/>
      <point x="127" y="129"/>
      <point x="130" y="132" type="qcurve" smooth="yes"/>
      <point x="180" y="188"/>
      <point x="200" y="283" type="qcurve" smooth="yes"/>
      <point x="208" y="323"/>
      <point x="218" y="370"/>
      <point x="238" y="449"/>
      <point x="247" y="545"/>
      <point x="258" y="576"/>
      <point x="258" y="658" type="qcurve" smooth="yes"/>
      <point x="258" y="733" type="line"/>
      <point x="250" y="743"/>
      <point x="236" y="754" type="qcurve"/>
      <point x="251" y="769" type="line"/>
      <point x="246" y="808"/>
      <point x="242" y="852"/>
      <point x="230" y="907"/>
      <point x="214" y="993"/>
      <point x="206" y="1020"/>
      <point x="196" y="1068"/>
      <point x="149" y="1227"/>
      <point x="106" y="1384"/>
      <point x="92" y="1407" type="qcurve" smooth="yes"/>
      <point x="55" y="1474"/>
      <point x="55" y="1553" type="qcurve" smooth="yes"/>
      <point x="55" y="1598" type="line"/>
      <point x="147" y="1649"/>
      <point x="166" y="1649"/>
      <point x="174" y="1634" type="qcurve"/>
      <point x="174" y="1591" type="line" smooth="yes"/>
      <point x="174" y="1520"/>
      <point x="204" y="1465" type="qcurve" smooth="yes"/>
      <point x="222" y="1432"/>
      <point x="260" y="1298"/>
      <point x="294" y="1199"/>
      <point x="313" y="1126" type="qcurve"/>
      <point x="387" y="1226"/>
      <point x="419" y="1256"/>
      <point x="435" y="1274" type="qcurve" smooth="yes"/>
      <point x="512" y="1363"/>
      <point x="598" y="1415" type="qcurve" smooth="yes"/>
      <point x="735" y="1491"/>
      <point x="813" y="1499" type="qcurve" smooth="yes"/>
      <point x="851" y="1503"/>
      <point x="903" y="1508"/>
      <point x="924" y="1512"/>
      <point x="981" y="1512" type="qcurve" smooth="yes"/>
      <point x="1101" y="1512" type="line" smooth="yes"/>
      <point x="1187" y="1512"/>
      <point x="1282" y="1484" type="qcurve" smooth="yes"/>
      <point x="1297" y="1480"/>
      <point x="1297" y="1461"/>
      <point x="1223" y="1401"/>
      <point x="1202" y="1401" type="qcurve" smooth="yes"/>
      <point x="1198" y="1401" type="line" smooth="yes"/>
      <point x="1197" y="1401"/>
      <point x="1119" y="1422"/>
      <point x="1094" y="1428"/>
      <point x="990" y="1428" type="qcurve" smooth="yes"/>
      <point x="972" y="1428" type="line" smooth="yes"/>
      <point x="907" y="1428"/>
      <point x="849" y="1427" type="qcurve" smooth="yes"/>
      <point x="847" y="1427" type="line"/>
      <point x="821" y="1421"/>
      <point x="776" y="1418" type="qcurve" smooth="yes"/>
      <point x="775" y="1418" type="line"/>
      <point x="721" y="1412"/>
      <point x="615" y="1376"/>
      <point x="559" y="1298" type="qcurve" smooth="yes"/>
      <point x="554" y="1291"/>
      <point x="545" y="1281"/>
      <point x="499" y="1233"/>
      <point x="447" y="1164" type="qcurve" smooth="yes"/>
      <point x="370" y="1067"/>
      <point x="355" y="995" type="qcurve"/>
      <point x="355" y="993" type="line" smooth="yes"/>
      <point x="355" y="984"/>
      <point x="349" y="976" type="qcurve"/>
      <point x="357" y="938"/>
      <point x="366" y="896"/>
      <point x="374" y="810"/>
      <point x="377" y="794" type="qcurve"/>
      <point x="440" y="731"/>
      <point x="571" y="589"/>
      <point x="614" y="553"/>
      <point x="689" y="508"/>
      <point x="714" y="486" type="qcurve" smooth="yes"/>
      <point x="804" y="411"/>
      <point x="1008" y="344" type="qcurve" smooth="yes"/>
      <point x="1088" y="318"/>
      <point x="1135" y="307"/>
      <point x="1172" y="300"/>
      <point x="1206" y="292"/>
      <point x="1258" y="278"/>
      <point x="1339" y="271"/>
      <point x="1360" y="266"/>
      <point x="1374" y="252" type="qcurve"/>
      <point x="1366" y="247"/>
      <point x="1282" y="190"/>
      <point x="1272" y="184" type="qcurve"/>
      <point x="1272" y="186" type="line"/>
      <point x="1260" y="186" type="line" smooth="yes"/>
      <point x="1200" y="186"/>
      <point x="1138" y="206"/>
      <point x="1068" y="222" type="qcurve" smooth="yes"/>
      <point x="755" y="291"/>
      <point x="598" y="421" type="qcurve" smooth="yes"/>
      <point x="596" y="423"/>
      <point x="472" y="508"/>
      <point x="400" y="584" type="qcurve" smooth="yes"/>
      <point x="380" y="605" type="line"/>
      <point x="366" y="545"/>
      <point x="353" y="436"/>
      <point x="294" y="208"/>
      <point x="261" y="170" type="qcurve" smooth="yes"/>
      <point x="190" y="87"/>
      <point x="160" y="69" type="qcurve" smooth="yes"/>
      <point x="140" y="57"/>
      <point x="67" y="17" type="qcurve"/>
    </contour>
  </outline>
</glyph>
<glyph name="L" format="2">
  <advance width="1064"/>
  <unicode hex="004C"/>
  <outline>
    <contour>
      <point x="504" y="-31" type="line" smooth="yes"/>
      <point x="502" y="-31"/>
      <point x="488" y="-28"/>
      <point x="464" y="-23" type="qcurve" smooth="yes"/>
      <point x="352.842" y="0.157895"/>
      <point x="249" y="104" type="qcurve"/>
      <point x="152" y="212"/>
      <point x="106" y="348" type="qcurve" smooth="yes"/>
      <point x="88" y="402"/>
      <point x="71" y="440"/>
      <point x="53" y="514" type="qcurve"/>
      <point x="38" y="567" type="line" smooth="yes"/>
      <point x="35" y="576"/>
      <point x="35" y="759" type="qcurve" smooth="yes"/>
      <point x="35" y="961" type="line" smooth="yes"/>
      <point x="35" y="990"/>
      <point x="44" y="1041"/>
      <point x="51.5" y="1113.5" type="qcurve" smooth="yes"/>
      <point x="60" y="1186"/>
      <point x="86" y="1308"/>
      <point x="93" y="1353"/>
      <point x="115" y="1436"/>
      <point x="150" y="1582"/>
      <point x="188" y="1632"/>
      <point x="269" y="1671"/>
      <point x="270" y="1671" type="qcurve" smooth="yes"/>
      <point x="274" y="1671" type="line" smooth="yes"/>
      <point x="280" y="1671"/>
      <point x="294" y="1652"/>
      <point x="294" y="1615"/>
      <point x="270" y="1592"/>
      <point x="254" y="1568"/>
      <point x="205" y="1363"/>
      <point x="192" y="1296"/>
      <point x="184" y="1265"/>
      <point x="152" y="1030"/>
      <point x="152" y="1018" type="qcurve" smooth="yes"/>
      <point x="152" y="1012" type="line"/>
      <point x="150" y="972"/>
      <point x="150" y="776" type="qcurve" smooth="yes"/>
      <point x="150" y="767" type="line"/>
      <point x="151" y="663" type="line"/>
      <point x="149" y="631" type="line"/>
      <point x="149" y="609"/>
      <point x="177" y="529"/>
      <point x="184" y="507" type="qcurve" smooth="yes"/>
      <point x="210" y="429" type="line" smooth="yes"/>
      <point x="234" y="357"/>
      <point x="326" y="220"/>
      <point x="377" y="177"/>
      <point x="392" y="161"/>
      <point x="404" y="153"/>
      <point x="433" y="138"/>
      <point x="449" y="128.5" type="qcurve" smooth="yes"/>
      <point x="476.065" y="112.43"/>
      <point x="539" y="98"/>
      <point x="563" y="92"/>
      <point x="782" y="90" type="qcurve"/>
      <point x="1022" y="90" type="line" smooth="yes"/>
      <point x="1047" y="90"/>
      <point x="1047" y="52" type="qcurve" smooth="yes"/>
      <point x="1047" y="36"/>
      <point x="1030" y="20" type="qcurve" smooth="yes"/>
      <point x="970.434" y="-36.062"/>
      <point x="963" y="-35" type="qcurve"/>
      <point x="544" y="-35" type="line"/>
    </contour>
  </outline>
</glyph>
<glyph name="M" format="2">
  <advance width="2322"/>
  <unicode hex="004D"/>
  <outline>
    <contour>
      <point x="36" y="548" type="qcurve" smooth="yes"/>
      <point x="29" y="727" type="line"/>
      <point x="29" y="799" type="line"/>
      <point x="31" y="881"/>
      <point x="40" y="938"/>
      <point x="67" y="996"/>
      <point x="94" y="1057"/>
      <point x="110" y="1092"/>
      <point x="188" y="1230"/>
      <point x="207" y="1256" type="qcurve" smooth="yes"/>
      <point x="252" y="1318"/>
      <point x="391" y="1409"/>
      <point x="455" y="1437"/>
      <point x="511" y="1448" type="qcurve" smooth="yes"/>
      <point x="565" y="1458" type="line"/>
      <point x="757" y="1461"/>
      <point x="824" y="1461"/>
      <point x="850" y="1453" type="qcurve" smooth="yes"/>
      <point x="910" y="1435"/>
      <point x="1031" y="1314" type="qcurve" smooth="yes"/>
      <point x="1120" y="1222"/>
      <point x="1126" y="1145" type="qcurve" smooth="yes"/>
      <point x="1128" y="1109"/>
      <point x="1136" y="1061"/>
      <point x="1140" y="944"/>
      <point x="1158" y="897"/>
      <point x="1180" y="849" type="qcurve"/>
      <point x="1193" y="885" type="line" smooth="yes"/>
      <point x="1224" y="969"/>
      <point x="1263" y="1121"/>
      <point x="1271" y="1344"/>
      <point x="1320" y="1446"/>
      <point x="1453" y="1537"/>
      <point x="1489" y="1544" type="qcurve"/>
      <point x="1518" y="1546" type="line"/>
      <point x="1574" y="1548"/>
      <point x="1613" y="1548" type="qcurve" smooth="yes"/>
      <point x="1636" y="1548" type="line" smooth="yes"/>
      <point x="1704" y="1548"/>
      <point x="1753" y="1541"/>
      <point x="1813" y="1516"/>
      <point x="1881" y="1498"/>
      <point x="2036" y="1413"/>
      <point x="2084" y="1366"/>
      <point x="2201" y="1224"/>
      <point x="2239" y="1156"/>
      <point x="2278" y="967"/>
      <point x="2278" y="781"/>
      <point x="2256" y="627"/>
      <point x="2250" y="565"/>
      <point x="2236" y="487" type="qcurve"/>
      <point x="2231" y="431"/>
      <point x="2193" y="312"/>
      <point x="2186.5" y="280" type="qcurve" smooth="yes"/>
      <point x="2172.08" y="209"/>
      <point x="2139" y="209" type="qcurve"/>
      <point x="2130" y="210" type="line"/>
      <point x="2084" y="168"/>
      <point x="1981" y="117"/>
      <point x="1917" y="61"/>
      <point x="1896" y="49"/>
      <point x="1830" y="26"/>
      <point x="1728" y="-13" type="qcurve"/>
      <point x="1810" y="64" type="line"/>
      <point x="1874" y="121"/>
      <point x="2012" y="190"/>
      <point x="2032" y="227" type="qcurve" smooth="yes"/>
      <point x="2077" y="314"/>
      <point x="2090" y="437"/>
      <point x="2099" y="484"/>
      <point x="2110" y="571"/>
      <point x="2114" y="595"/>
      <point x="2116" y="635"/>
      <point x="2134" y="755"/>
      <point x="2134" y="810" type="qcurve" smooth="yes"/>
      <point x="2134" y="971"/>
      <point x="2093" y="1085" type="qcurve" smooth="yes"/>
      <point x="2072" y="1144"/>
      <point x="1934" y="1297"/>
      <point x="1918" y="1311" type="qcurve" smooth="yes"/>
      <point x="1793.03" y="1387.3"/>
      <point x="1742" y="1403"/>
      <point x="1705" y="1412"/>
      <point x="1632" y="1440" type="qcurve"/>
      <point x="1538" y="1442" type="line"/>
      <point x="1493" y="1466"/>
      <point x="1448" y="1442" type="qcurve"/>
      <point x="1424" y="1384"/>
      <point x="1412" y="1166"/>
      <point x="1387" y="1075"/>
      <point x="1378" y="1028"/>
      <point x="1364" y="991"/>
      <point x="1320" y="861"/>
      <point x="1284" y="813"/>
      <point x="1208" y="772" type="qcurve" smooth="yes"/>
      <point x="1170" y="751" type="line"/>
      <point x="1159" y="769"/>
      <point x="1124" y="769"/>
      <point x="1112" y="745" type="qcurve"/>
      <point x="1103" y="745" type="line" smooth="yes"/>
      <point x="1052" y="745"/>
      <point x="992" y="871"/>
      <point x="990" y="951" type="qcurve"/>
      <point x="990" y="952" type="line" smooth="yes"/>
      <point x="990" y="989"/>
      <point x="984" y="1015"/>
      <point x="976" y="1132"/>
      <point x="920" y="1206"/>
      <point x="807" y="1311"/>
      <point x="765" y="1341"/>
      <point x="733" y="1352"/>
      <point x="674" y="1352" type="qcurve" smooth="yes"/>
      <point x="534" y="1351" type="line" smooth="yes"/>
      <point x="449" y="1350"/>
      <point x="392" y="1335" type="qcurve" smooth="yes"/>
      <point x="390" y="1332"/>
      <point x="382" y="1324" type="qcurve" smooth="yes"/>
      <point x="359" y="1300" type="line" smooth="yes"/>
      <point x="344" y="1284"/>
      <point x="264" y="1152"/>
      <point x="236" y="1092" type="qcurve"/>
      <point x="212" y="1031"/>
      <point x="181" y="973"/>
      <point x="174" y="929"/>
      <point x="174" y="688"/>
      <point x="182" y="624"/>
      <point x="182" y="545"/>
      <point x="194" y="490"/>
      <point x="211" y="377"/>
      <point x="225" y="318"/>
      <point x="297" y="110"/>
      <point x="329" y="78" type="qcurve"/>
      <point x="348" y="73"/>
      <point x="348" y="57" type="qcurve" smooth="yes"/>
      <point x="348" y="47"/>
      <point x="290" y="10"/>
      <point x="236" y="-26" type="qcurve" smooth="yes"/>
      <point x="224" y="-38"/>
      <point x="180" y="0"/>
      <point x="157" y="53" type="qcurve" smooth="yes"/>
      <point x="81" y="224"/>
      <point x="62" y="354" type="qcurve" smooth="yes"/>
      <point x="53" y="414"/>
      <point x="38" y="484"/>
    </contour>
  </outline>
</glyph>
<glyph name="N" format="2">
  <advance width="2002"/>
  <unicode hex="004E"/>
  <outline>
    <contour>
      <point x="1866" y="1628" type="line"/>
      <point x="1886" y="1575"/>
      <point x="1907" y="1497"/>
      <point x="1964" y="1367"/>
      <point x="1970" y="1327" type="qcurve" smooth="yes"/>
      <point x="1975" y="1294"/>
      <point x="1975" y="1189" type="qcurve" smooth="yes"/>
      <point x="1974" y="1040" type="line" smooth="yes"/>
      <point x="1972" y="831"/>
      <point x="1964" y="617"/>
      <point x="1908" y="386" type="qcurve" smooth="yes"/>
      <point x="1902" y="366"/>
      <point x="1884" y="334" type="qcurve" smooth="yes"/>
      <point x="1876" y="322"/>
      <point x="1853" y="281"/>
      <point x="1829" y="239"/>
      <point x="1757" y="134" type="qcurve" smooth="yes"/>
      <point x="1728" y="93"/>
      <point x="1631" y="36"/>
      <point x="1530" y="26"/>
      <point x="1511" y="26"/>
      <point x="1446" y="32"/>
      <point x="1353" y="36"/>
      <point x="1219" y="80"/>
      <point x="1171" y="119"/>
      <point x="1102" y="240"/>
      <point x="1081" y="314" type="qcurve" smooth="yes"/>
      <point x="1058" y="393" type="line" smooth="yes"/>
      <point x="1041" y="450"/>
      <point x="1033" y="538"/>
      <point x="1021" y="589"/>
      <point x="1003" y="706"/>
      <point x="984" y="813"/>
      <point x="984" y="975" type="qcurve" smooth="yes"/>
      <point x="984" y="1014" type="line" smooth="yes"/>
      <point x="984" y="1120"/>
      <point x="978" y="1173"/>
      <point x="952" y="1251"/>
      <point x="902" y="1353"/>
      <point x="871" y="1397"/>
      <point x="806" y="1453"/>
      <point x="776" y="1466"/>
      <point x="766" y="1473" type="qcurve"/>
      <point x="310" y="1473" type="line"/>
      <point x="204" y="1346"/>
      <point x="182" y="1238" type="qcurve" smooth="yes"/>
      <point x="176" y="1213"/>
      <point x="176" y="886"/>
      <point x="181" y="855"/>
      <point x="191" y="736"/>
      <point x="208" y="674"/>
      <point x="211" y="652" type="qcurve" smooth="yes"/>
      <point x="231" y="532"/>
      <point x="298" y="382" type="qcurve" smooth="yes"/>
      <point x="333" y="303"/>
      <point x="360" y="161"/>
      <point x="361" y="158" type="qcurve" smooth="yes"/>
      <point x="358" y="152" type="line" smooth="yes"/>
      <point x="358" y="151"/>
      <point x="360" y="149" type="qcurve"/>
      <point x="354" y="144"/>
      <point x="248" y="84"/>
      <point x="229" y="84" type="qcurve" smooth="yes"/>
      <point x="218" y="84" type="line"/>
      <point x="214" y="98"/>
      <point x="201" y="202"/>
      <point x="139" y="345"/>
      <point x="126" y="383" type="qcurve" smooth="yes"/>
      <point x="99" y="464" type="line" smooth="yes"/>
      <point x="83" y="510"/>
      <point x="64" y="604"/>
      <point x="51" y="667"/>
      <point x="41" y="718"/>
      <point x="38" y="750"/>
      <point x="34" y="805"/>
      <point x="31" y="825"/>
      <point x="31" y="921" type="qcurve" smooth="yes"/>
      <point x="31" y="999" type="line" smooth="yes"/>
      <point x="31" y="1134"/>
      <point x="37" y="1207"/>
      <point x="54" y="1254" type="qcurve" smooth="yes"/>
      <point x="96" y="1377"/>
      <point x="193" y="1471" type="qcurve" smooth="yes"/>
      <point x="233" y="1511"/>
      <point x="360" y="1573"/>
      <point x="437" y="1579"/>
      <point x="615" y="1579" type="qcurve" smooth="yes"/>
      <point x="682" y="1579" type="line" smooth="yes"/>
      <point x="805" y="1579"/>
      <point x="908" y="1576"/>
      <point x="968" y="1517" type="qcurve" smooth="yes"/>
      <point x="1015" y="1471"/>
      <point x="1025" y="1456" type="qcurve" smooth="yes"/>
      <point x="1069" y="1400"/>
      <point x="1112" y="1270" type="qcurve" smooth="yes"/>
      <point x="1129" y="1220"/>
      <point x="1136" y="1145"/>
      <point x="1136" y="1001" type="qcurve" smooth="yes"/>
      <point x="1136" y="986" type="line" smooth="yes"/>
      <point x="1136" y="800"/>
      <point x="1146" y="754" type="qcurve" smooth="yes"/>
      <point x="1152" y="726"/>
      <point x="1168" y="616"/>
      <point x="1182" y="553"/>
      <point x="1192" y="451"/>
      <point x="1218" y="366"/>
      <point x="1243" y="263"/>
      <point x="1318" y="134"/>
      <point x="1340" y="123" type="qcurve" smooth="yes"/>
      <point x="1410" y="89"/>
      <point x="1527" y="89" type="qcurve" smooth="yes"/>
      <point x="1582" y="89"/>
      <point x="1635" y="106"/>
      <point x="1664" y="138" type="qcurve" smooth="yes"/>
      <point x="1752" y="237"/>
      <point x="1789" y="383"/>
      <point x="1795" y="440"/>
      <point x="1800" y="470"/>
      <point x="1818" y="548"/>
      <point x="1823" y="690"/>
      <point x="1831" y="771"/>
      <point x="1831" y="987" type="qcurve" smooth="yes"/>
      <point x="1831" y="1005" type="line" smooth="yes"/>
      <point x="1831" y="1188"/>
      <point x="1824" y="1274"/>
      <point x="1805" y="1322" type="qcurve" smooth="yes"/>
      <point x="1719" y="1543"/>
      <point x="1719" y="1578" type="qcurve" smooth="yes"/>
      <point x="1718" y="1586"/>
      <point x="1732" y="1592" type="qcurve" smooth="yes"/>
      <point x="1736" y="1594"/>
      <point x="1818" y="1641"/>
      <point x="1849" y="1651" type="qcurve" smooth="yes"/>
      <point x="1853" y="1651"/>
      <point x="1866" y="1641"/>
      <point x="1866" y="1638" type="qcurve" smooth="yes"/>
    </contour>
  </outline>
</glyph>
<glyph name="O" format="2">
  <advance width="1347"/>
  <unicode hex="004F"/>
  <outline>
    <contour>
      <point x="1188" y="512" type="line"/>
      <point x="1190" y="684" type="line"/>
      <point x="1190" y="839" type="line" smooth="yes"/>
      <point x="1190" y="889"/>
      <point x="1186" y="908" type="qcurve" smooth="yes"/>
      <point x="1140" y="1144"/>
      <point x="1078" y="1264"/>
      <point x="966" y="1384"/>
      <point x="894" y="1390" type="qcurve" smooth="yes"/>
      <point x="864" y="1392"/>
      <point x="800" y="1417"/>
      <point x="800" y="1425" type="qcurve"/>
      <point x="798" y="1434" type="line"/>
      <point x="629" y="1510"/>
      <point x="541" y="1516" type="qcurve" smooth="yes"/>
      <point x="512" y="1518"/>
      <point x="361" y="1518"/>
      <point x="330" y="1510" type="qcurve"/>
      <point x="291" y="1477"/>
      <point x="245" y="1427" type="qcurve"/>
      <point x="186" y="1347"/>
      <point x="146" y="1188"/>
      <point x="143" y="1129"/>
      <point x="143" y="898" type="qcurve"/>
      <point x="145" y="664" type="line"/>
      <point x="154" y="623"/>
      <point x="168" y="549" type="qcurve" smooth="yes"/>
      <point x="186" y="418"/>
      <point x="218" y="372" type="qcurve" smooth="yes"/>
      <point x="230" y="354"/>
      <point x="324" y="241"/>
      <point x="410" y="185"/>
      <point x="580" y="131"/>
      <point x="652" y="124"/>
      <point x="703" y="120"/>
      <point x="724" y="117"/>
      <point x="857" y="117"/>
      <point x="921" y="129"/>
      <point x="1024" y="173"/>
      <point x="1103" y="254"/>
      <point x="1143" y="344"/>
      <point x="1187" y="478" type="qcurve"/>
    </contour>
    <contour>
      <point x="673" y="1614" type="qcurve"/>
      <point x="735" y="1594" type="line" smooth="yes"/>
      <point x="927" y="1532"/>
      <point x="950" y="1500" type="qcurve"/>
      <point x="966" y="1496"/>
      <point x="994" y="1493" type="qcurve" smooth="yes"/>
      <point x="1076" y="1482"/>
      <point x="1150" y="1402" type="qcurve" smooth="yes"/>
      <point x="1189" y="1360"/>
      <point x="1224" y="1307"/>
      <point x="1264" y="1210"/>
      <point x="1300" y="1052"/>
      <point x="1324" y="960"/>
      <point x="1327" y="947" type="qcurve"/>
      <point x="1327" y="697" type="line" smooth="yes"/>
      <point x="1327" y="572"/>
      <point x="1317" y="499"/>
      <point x="1260" y="328"/>
      <point x="1215" y="249"/>
      <point x="1086" y="130"/>
      <point x="853" y="31"/>
      <point x="772" y="16"/>
      <point x="536" y="16"/>
      <point x="320" y="81"/>
      <point x="289" y="97" type="qcurve" smooth="yes"/>
      <point x="212" y="135"/>
      <point x="140" y="227" type="qcurve" smooth="yes"/>
      <point x="99" y="279"/>
      <point x="74" y="319"/>
      <point x="42" y="415"/>
      <point x="31" y="499"/>
      <point x="13" y="591"/>
      <point x="10" y="611" type="qcurve"/>
      <point x="10" y="1148" type="line"/>
      <point x="21" y="1195" type="line" smooth="yes"/>
      <point x="49.0331" y="1315.99"/>
      <point x="104" y="1395" type="qcurve" smooth="yes"/>
      <point x="120" y="1418"/>
      <point x="194" y="1492"/>
      <point x="262" y="1540"/>
      <point x="377" y="1601"/>
      <point x="430" y="1616"/>
      <point x="543" y="1616" type="qcurve" smooth="yes"/>
      <point x="549" y="1616" type="line" smooth="yes"/>
      <point x="591" y="1616"/>
    </contour>
  </outline>
</glyph>
<glyph name="P" format="2">
  <advance width="1294"/>
  <unicode hex="0050"/>
  <outline>
    <contour>
      <point x="157" y="1002" type="qcurve" smooth="yes"/>
      <point x="158" y="991" type="line"/>
      <point x="158" y="948" type="line"/>
      <point x="156" y="874" type="line" smooth="yes"/>
      <point x="156" y="783"/>
      <point x="180" y="579"/>
      <point x="193" y="537"/>
      <point x="224" y="450"/>
      <point x="233" y="416"/>
      <point x="256" y="370" type="qcurve" smooth="yes"/>
      <point x="296" y="291"/>
      <point x="322" y="263" type="qcurve" smooth="yes"/>
      <point x="446" y="126"/>
      <point x="516" y="74" type="qcurve" smooth="yes"/>
      <point x="537" y="58"/>
      <point x="537" y="4"/>
      <point x="513" y="-11" type="qcurve" smooth="yes"/>
      <point x="474" y="-35" type="line" smooth="yes"/>
      <point x="461" y="-43"/>
      <point x="428" y="-43"/>
      <point x="375" y="5"/>
      <point x="251" y="129"/>
      <point x="215" y="162"/>
      <point x="196" y="185"/>
      <point x="185" y="201"/>
      <point x="176" y="215" type="qcurve" smooth="yes"/>
      <point x="167" y="230"/>
      <point x="164" y="234" type="qcurve" smooth="yes"/>
      <point x="104" y="324"/>
      <point x="84" y="398" type="qcurve"/>
      <point x="28" y="545"/>
      <point x="22" y="695" type="qcurve" smooth="yes"/>
      <point x="20" y="734"/>
      <point x="19" y="750" type="qcurve" smooth="yes"/>
      <point x="19" y="752" type="line" smooth="yes"/>
      <point x="16" y="803"/>
      <point x="16" y="853" type="qcurve" smooth="yes"/>
      <point x="16" y="856" type="line"/>
      <point x="14" y="928" type="line"/>
      <point x="14" y="971" type="line" smooth="yes"/>
      <point x="14" y="1052"/>
      <point x="72" y="1214" type="qcurve"/>
      <point x="93" y="1285"/>
      <point x="151" y="1375" type="qcurve" smooth="yes"/>
      <point x="159" y="1389"/>
      <point x="190" y="1425"/>
      <point x="213" y="1459"/>
      <point x="278" y="1524"/>
      <point x="381" y="1585"/>
      <point x="402" y="1593"/>
      <point x="421" y="1600"/>
      <point x="424" y="1602" type="qcurve" smooth="yes"/>
      <point x="457" y="1619"/>
      <point x="640" y="1642"/>
      <point x="677" y="1642" type="qcurve" smooth="yes"/>
      <point x="817" y="1642" type="line"/>
      <point x="839" y="1641" type="line" smooth="yes"/>
      <point x="885" y="1638"/>
      <point x="941" y="1619"/>
      <point x="989" y="1584" type="qcurve"/>
      <point x="1010" y="1563"/>
      <point x="1039" y="1545" type="qcurve" smooth="yes"/>
      <point x="1110" y="1501"/>
      <point x="1134" y="1477" type="qcurve" smooth="yes"/>
      <point x="1177" y="1434"/>
      <point x="1219" y="1328"/>
      <point x="1238" y="1271"/>
      <point x="1246" y="1218"/>
      <point x="1256" y="1179"/>
      <point x="1256" y="1136" type="qcurve" smooth="yes"/>
      <point x="1255" y="1102" type="line"/>
      <point x="1257" y="993" type="line"/>
      <point x="1257" y="911" type="line"/>
      <point x="1258" y="882" type="line" smooth="yes"/>
      <point x="1258" y="836"/>
      <point x="1217" y="801"/>
      <point x="1200" y="782"/>
      <point x="1206" y="775" type="qcurve" smooth="yes"/>
      <point x="1221" y="758"/>
      <point x="1168" y="737" type="qcurve" smooth="yes"/>
      <point x="1118" y="717"/>
      <point x="1078" y="709"/>
      <point x="994" y="671"/>
      <point x="985" y="668"/>
      <point x="954" y="656"/>
      <point x="946" y="654" type="qcurve" smooth="yes"/>
      <point x="885" y="610"/>
      <point x="828" y="610" type="qcurve" smooth="yes"/>
      <point x="817" y="610" type="line"/>
      <point x="770" y="612" type="line"/>
      <point x="727" y="611" type="line" smooth="yes"/>
      <point x="674" y="611"/>
      <point x="594" y="636"/>
      <point x="532" y="655"/>
      <point x="441" y="683"/>
      <point x="431" y="690"/>
      <point x="441" y="691" type="qcurve" smooth="yes"/>
      <point x="468" y="694"/>
      <point x="467" y="699"/>
      <point x="368" y="715"/>
      <point x="348" y="722"/>
      <point x="304" y="740"/>
      <point x="291" y="745"/>
      <point x="231" y="778"/>
      <point x="213" y="796"/>
      <point x="213" y="844"/>
      <point x="236" y="860" type="qcurve" smooth="yes"/>
      <point x="273" y="884" type="line" smooth="yes"/>
      <point x="286" y="893"/>
      <point x="315" y="893"/>
      <point x="324" y="888" type="qcurve" smooth="yes"/>
      <point x="366" y="866" type="line"/>
      <point x="511" y="815"/>
      <point x="543" y="800" type="qcurve" smooth="yes"/>
      <point x="634" y="758"/>
      <point x="708" y="746"/>
      <point x="724" y="744" type="qcurve" smooth="yes"/>
      <point x="748" y="741" type="line" smooth="yes"/>
      <point x="767" y="739"/>
      <point x="807" y="739" type="qcurve" smooth="yes"/>
      <point x="854" y="739" type="line" smooth="yes"/>
      <point x="870" y="739"/>
      <point x="872" y="740" type="qcurve" smooth="yes"/>
      <point x="921" y="775"/>
      <point x="968" y="786" type="qcurve" smooth="yes"/>
      <point x="973" y="788"/>
      <point x="991" y="794" type="qcurve" smooth="yes"/>
      <point x="1041" y="812"/>
      <point x="1078" y="831"/>
      <point x="1102" y="837" type="qcurve"/>
      <point x="1116" y="853"/>
      <point x="1116" y="858" type="qcurve" smooth="yes"/>
      <point x="1116" y="1083" type="line" smooth="yes"/>
      <point x="1116" y="1128"/>
      <point x="1107" y="1171"/>
      <point x="1098" y="1223"/>
      <point x="1096" y="1229" type="qcurve" smooth="yes"/>
      <point x="1094" y="1234"/>
      <point x="1092" y="1240" type="qcurve" smooth="yes"/>
      <point x="1073" y="1308"/>
      <point x="1049.5" y="1343.5" type="qcurve" smooth="yes"/>
      <point x="1026" y="1380"/>
      <point x="1024" y="1380" type="qcurve" smooth="yes"/>
      <point x="1021" y="1381"/>
      <point x="997" y="1400"/>
      <point x="922" y="1448"/>
      <point x="854" y="1504"/>
      <point x="820" y="1516"/>
      <point x="782" y="1516" type="qcurve" smooth="yes"/>
      <point x="696" y="1513" type="line" smooth="yes"/>
      <point x="637" y="1513"/>
      <point x="591" y="1507"/>
      <point x="521" y="1501"/>
      <point x="494" y="1494"/>
      <point x="439" y="1482"/>
      <point x="429.5" y="1478.5" type="qcurve" smooth="yes"/>
      <point x="420" y="1474"/>
      <point x="412" y="1472" type="qcurve" smooth="yes"/>
      <point x="368" y="1458"/>
      <point x="303" y="1371" type="qcurve" smooth="yes"/>
      <point x="294" y="1360"/>
      <point x="269" y="1320"/>
      <point x="232" y="1266"/>
      <point x="222" y="1229" type="qcurve" smooth="yes"/>
      <point x="208" y="1180"/>
      <point x="181" y="1118"/>
      <point x="167" y="1045"/>
      <point x="157" y="1012"/>
    </contour>
  </outline>
</glyph>
<glyph name="Q" format="2">
  <advance width="1359"/>
  <unicode hex="0051"/>
  <outline>
    <contour>
      <point x="924" y="175" type="qcurve" smooth="yes"/>
      <point x="905" y="175" type="line" smooth="yes"/>
      <point x="878" y="174"/>
      <point x="850" y="180" type="qcurve" smooth="yes"/>
      <point x="800" y="190"/>
      <point x="663" y="290" type="qcurve"/>
      <point x="664" y="284"/>
      <point x="684" y="238" type="qcurve" smooth="yes"/>
      <point x="719" y="154"/>
      <point x="898" y="-22"/>
      <point x="929" y="-48" type="qcurve" smooth="yes"/>
      <point x="1014" y="-119"/>
      <point x="1182" y="-121" type="qcurve" smooth="yes"/>
      <point x="1259" y="-121" type="line" smooth="yes"/>
      <point x="1267" y="-121"/>
      <point x="1292" y="-38"/>
      <point x="1298" y="-37"/>
      <point x="1305" y="-44"/>
      <point x="1314" y="-150"/>
      <point x="1314" y="-199"/>
      <point x="1292" y="-214" type="qcurve" smooth="yes"/>
      <point x="1263" y="-235" type="line" smooth="yes"/>
      <point x="1250" y="-245"/>
      <point x="1229" y="-245" type="qcurve" smooth="yes"/>
      <point x="1030" y="-245"/>
      <point x="925" y="-201" type="qcurve" smooth="yes"/>
      <point x="877" y="-182"/>
      <point x="799" y="-113" type="qcurve" smooth="yes"/>
      <point x="702" y="-27"/>
      <point x="620" y="82" type="qcurve"/>
      <point x="563" y="53"/>
      <point x="469" y="41"/>
      <point x="412" y="32"/>
      <point x="382" y="27"/>
      <point x="364" y="27" type="qcurve" smooth="yes"/>
      <point x="286" y="27"/>
      <point x="185" y="153" type="qcurve" smooth="yes"/>
      <point x="120" y="230"/>
      <point x="48" y="454" type="qcurve" smooth="yes"/>
      <point x="40" y="482"/>
      <point x="34.5" y="527" type="qcurve" smooth="yes"/>
      <point x="28" y="572"/>
      <point x="24" y="604" type="qcurve" smooth="yes"/>
      <point x="12" y="694"/>
      <point x="12" y="794" type="qcurve" smooth="yes"/>
      <point x="12" y="885" type="line" smooth="yes"/>
      <point x="12" y="958"/>
      <point x="14" y="978" type="qcurve" smooth="yes"/>
      <point x="21" y="1078"/>
      <point x="75" y="1330"/>
      <point x="82" y="1347" type="qcurve" smooth="yes"/>
      <point x="108" y="1410"/>
      <point x="145" y="1455"/>
      <point x="148" y="1459"/>
      <point x="160" y="1471"/>
      <point x="187" y="1490"/>
      <point x="201" y="1498"/>
      <point x="219" y="1507" type="qcurve" smooth="yes"/>
      <point x="241" y="1518" type="line" smooth="yes"/>
      <point x="363" y="1583"/>
      <point x="531" y="1583" type="qcurve" smooth="yes"/>
      <point x="577" y="1583" type="line" smooth="yes"/>
      <point x="716" y="1583"/>
      <point x="893" y="1469" type="qcurve" smooth="yes"/>
      <point x="972" y="1422"/>
      <point x="1024" y="1357" type="qcurve" smooth="yes"/>
      <point x="1034" y="1346"/>
      <point x="1052" y="1324" type="qcurve" smooth="yes"/>
      <point x="1094" y="1274"/>
      <point x="1157" y="1050" type="qcurve" smooth="yes"/>
      <point x="1173" y="997"/>
      <point x="1193" y="820"/>
      <point x="1193" y="759" type="qcurve" smooth="yes"/>
      <point x="1194" y="670" type="line"/>
      <point x="1194" y="584" type="line" smooth="yes"/>
      <point x="1194" y="440"/>
      <point x="1085" y="284" type="qcurve" smooth="yes"/>
      <point x="1039" y="219"/>
      <point x="1026" y="212" type="qcurve" smooth="yes"/>
      <point x="974" y="175"/>
    </contour>
    <contour>
      <point x="948" y="299" type="line"/>
      <point x="1061" y="455"/>
      <point x="1061" y="569" type="qcurve" smooth="yes"/>
      <point x="1061" y="718" type="line" smooth="yes"/>
      <point x="1061" y="892"/>
      <point x="1024" y="1021" type="qcurve" smooth="yes"/>
      <point x="969" y="1211"/>
      <point x="886" y="1312"/>
      <point x="873" y="1321" type="qcurve" smooth="yes"/>
      <point x="810" y="1363" type="line" smooth="yes"/>
      <point x="662" y="1460"/>
      <point x="562" y="1460" type="qcurve" smooth="yes"/>
      <point x="358" y="1460"/>
      <point x="255" y="1402" type="qcurve"/>
      <point x="219" y="1360"/>
      <point x="192" y="1256"/>
      <point x="184" y="1222" type="qcurve" smooth="yes"/>
      <point x="167" y="1150"/>
      <point x="160" y="1096"/>
      <point x="154" y="1058" type="qcurve" smooth="yes"/>
      <point x="144" y="984"/>
      <point x="144" y="900" type="qcurve" smooth="yes"/>
      <point x="144" y="720"/>
      <point x="148.5" y="692" type="qcurve" smooth="yes"/>
      <point x="152" y="664"/>
      <point x="156" y="628" type="qcurve" smooth="yes"/>
      <point x="165" y="539"/>
      <point x="173" y="514" type="qcurve" smooth="yes"/>
      <point x="192" y="448"/>
      <point x="206" y="420"/>
      <point x="212" y="400"/>
      <point x="234" y="349" type="qcurve" smooth="yes"/>
      <point x="286" y="229"/>
      <point x="348" y="177" type="qcurve" smooth="yes"/>
      <point x="379" y="151"/>
      <point x="391.5" y="151" type="qcurve" smooth="yes"/>
      <point x="404" y="150"/>
      <point x="413" y="152" type="qcurve" smooth="yes"/>
      <point x="440" y="156"/>
      <point x="544" y="172"/>
      <point x="562" y="179" type="qcurve"/>
      <point x="525" y="235"/>
      <point x="525" y="298" type="qcurve" smooth="yes"/>
      <point x="525" y="388" type="line" smooth="yes"/>
      <point x="524" y="418"/>
      <point x="538" y="432" type="qcurve" smooth="yes"/>
      <point x="578" y="472"/>
      <point x="616" y="472" type="qcurve" smooth="yes"/>
      <point x="635" y="472"/>
      <point x="651" y="462" type="qcurve" smooth="yes"/>
      <point x="682" y="444"/>
      <point x="710" y="423" type="qcurve" smooth="yes"/>
      <point x="856" y="308"/>
      <point x="911" y="299" type="qcurve"/>
    </contour>
  </outline>
</glyph>
<glyph name="R" format="2">
  <advance width="1675"/>
  <unicode hex="0052"/>
  <outline>
    <contour>
      <point x="1147" y="744" type="line"/>
      <point x="1158" y="769" type="line"/>
      <point x="1147" y="772" type="line"/>
    </contour>
    <contour>
      <point x="139" y="872" type="line"/>
      <point x="140" y="791" type="line"/>
      <point x="139" y="762" type="line"/>
      <point x="138" y="669" type="line"/>
      <point x="143" y="486" type="line"/>
      <point x="148" y="405"/>
      <point x="171" y="341" type="qcurve" smooth="yes"/>
      <point x="236" y="159"/>
      <point x="238" y="67" type="qcurve"/>
      <point x="238" y="66" type="line" smooth="yes"/>
      <point x="238" y="41"/>
      <point x="210" y="36" type="qcurve" smooth="yes"/>
      <point x="204" y="35"/>
      <point x="177" y="24"/>
      <point x="137" y="24"/>
      <point x="128" y="41" type="qcurve" smooth="yes"/>
      <point x="79" y="135"/>
      <point x="52" y="295" type="qcurve" smooth="yes"/>
      <point x="44" y="343"/>
      <point x="25" y="415"/>
      <point x="21" y="478" type="qcurve"/>
      <point x="11" y="692" type="line"/>
      <point x="13" y="793" type="line"/>
      <point x="12" y="870" type="line"/>
      <point x="12" y="901" type="line"/>
      <point x="15" y="953"/>
      <point x="46" y="1048"/>
      <point x="79" y="1145"/>
      <point x="96" y="1184"/>
      <point x="108" y="1206"/>
      <point x="135" y="1250"/>
      <point x="139" y="1258" type="qcurve" smooth="yes"/>
      <point x="188" y="1346"/>
      <point x="287" y="1432" type="qcurve"/>
      <point x="331" y="1464"/>
      <point x="368" y="1481"/>
      <point x="431" y="1521"/>
      <point x="586" y="1573"/>
      <point x="663" y="1579" type="qcurve"/>
      <point x="729" y="1589"/>
      <point x="857" y="1589" type="qcurve" smooth="yes"/>
      <point x="863" y="1589" type="line"/>
      <point x="932" y="1586"/>
      <point x="1058" y="1532" type="qcurve" smooth="yes"/>
      <point x="1088" y="1520"/>
      <point x="1166" y="1488"/>
      <point x="1212" y="1447" type="qcurve"/>
      <point x="1257" y="1415"/>
      <point x="1300" y="1358"/>
      <point x="1308" y="1312" type="qcurve"/>
      <point x="1308" y="1305" type="line"/>
      <point x="1318" y="1279"/>
      <point x="1318" y="1278" type="qcurve" smooth="yes"/>
      <point x="1329" y="1223" type="line" smooth="yes"/>
      <point x="1336" y="1188"/>
      <point x="1336" y="1146" type="qcurve" smooth="yes"/>
      <point x="1336" y="1124" type="line"/>
      <point x="1344" y="1068"/>
      <point x="1344" y="1050" type="qcurve" smooth="yes"/>
      <point x="1344" y="947" type="line"/>
      <point x="1338" y="869" type="line"/>
      <point x="1338" y="826" type="line" smooth="yes"/>
      <point x="1338" y="775"/>
      <point x="1228" y="691"/>
      <point x="1176" y="670" type="qcurve"/>
      <point x="1171" y="670" type="line"/>
      <point x="1165" y="668"/>
      <point x="1156" y="668" type="qcurve" smooth="yes"/>
      <point x="1130" y="668" type="line" smooth="yes"/>
      <point x="1116" y="668"/>
      <point x="1102" y="675" type="qcurve"/>
      <point x="1077" y="670"/>
      <point x="981" y="670" type="qcurve"/>
      <point x="847" y="674" type="line"/>
      <point x="723" y="670" type="line"/>
      <point x="683" y="670"/>
      <point x="605" y="674" type="qcurve"/>
      <point x="599" y="674" type="line"/>
      <point x="589" y="673" type="line"/>
      <point x="582" y="673" type="line"/>
      <point x="555" y="659"/>
      <point x="542" y="655"/>
      <point x="539" y="653.5" type="qcurve" smooth="yes"/>
      <point x="528.889" y="648.444"/>
      <point x="500" y="624"/>
      <point x="487" y="615" type="qcurve"/>
      <point x="497" y="593"/>
      <point x="497" y="563"/>
      <point x="495" y="549" type="qcurve"/>
      <point x="501" y="544"/>
      <point x="509" y="528" type="qcurve" smooth="yes"/>
      <point x="555" y="469"/>
      <point x="575" y="448" type="qcurve" smooth="yes"/>
      <point x="640" y="396"/>
      <point x="690" y="331"/>
      <point x="707" y="321.5" type="qcurve" smooth="yes"/>
      <point x="744.216" y="300.703"/>
      <point x="815" y="269"/>
      <point x="866" y="237"/>
      <point x="889" y="224"/>
      <point x="923" y="214"/>
      <point x="972" y="203"/>
      <point x="1007" y="194"/>
      <point x="1033" y="186"/>
      <point x="1086" y="175"/>
      <point x="1178" y="155"/>
      <point x="1200" y="151" type="qcurve" smooth="yes"/>
      <point x="1214" y="152"/>
      <point x="1272" y="161"/>
      <point x="1300" y="164"/>
      <point x="1379" y="169"/>
      <point x="1402" y="172"/>
      <point x="1480" y="179"/>
      <point x="1560" y="191"/>
      <point x="1573" y="193"/>
      <point x="1574" y="193" type="qcurve" smooth="yes"/>
      <point x="1583" y="195" type="line"/>
      <point x="1609" y="195"/>
      <point x="1642" y="138" type="qcurve" smooth="yes"/>
      <point x="1643" y="137"/>
      <point x="1644" y="133"/>
      <point x="1651" y="115"/>
      <point x="1651" y="93"/>
      <point x="1636" y="84" type="qcurve" smooth="yes"/>
      <point x="1609" y="66" type="line"/>
      <point x="1583" y="57"/>
      <point x="1494" y="29"/>
      <point x="1398" y="29" type="qcurve"/>
      <point x="1223" y="37" type="line"/>
      <point x="1156" y="34" type="line"/>
      <point x="1003" y="34"/>
      <point x="805" y="127" type="qcurve" smooth="yes"/>
      <point x="790" y="136"/>
      <point x="686" y="188"/>
      <point x="593" y="246"/>
      <point x="559" y="293" type="qcurve" smooth="yes"/>
      <point x="538.2" y="317"/>
      <point x="409" y="434"/>
      <point x="388" y="484"/>
      <point x="372" y="517"/>
      <point x="372" y="544"/>
      <point x="377" y="566" type="qcurve"/>
      <point x="354" y="612"/>
      <point x="353" y="615" type="qcurve"/>
      <point x="353" y="637" type="line"/>
      <point x="356" y="658"/>
      <point x="383" y="697"/>
      <point x="391" y="703" type="qcurve" smooth="yes"/>
      <point x="419" y="724" type="line"/>
      <point x="427" y="732"/>
      <point x="441" y="739"/>
      <point x="464" y="752"/>
      <point x="469.5" y="755" type="qcurve" smooth="yes"/>
      <point x="506.83" y="775.362"/>
      <point x="545" y="782" type="qcurve"/>
      <point x="582" y="791" type="line"/>
      <point x="593" y="791" type="line"/>
      <point x="669" y="795"/>
      <point x="758" y="795"/>
      <point x="862" y="791" type="qcurve"/>
      <point x="961" y="795" type="line" smooth="yes"/>
      <point x="977" y="796"/>
      <point x="1054" y="796"/>
      <point x="1144" y="781" type="qcurve"/>
      <point x="1151" y="785"/>
      <point x="1181" y="811"/>
      <point x="1198" y="820"/>
      <point x="1213" y="834" type="qcurve" smooth="yes"/>
      <point x="1216" y="839"/>
      <point x="1217" y="840" type="qcurve"/>
      <point x="1217" y="875" type="line"/>
      <point x="1210" y="956" type="line"/>
      <point x="1215" y="1059" type="line"/>
      <point x="1215" y="1105"/>
      <point x="1210" y="1131" type="qcurve" smooth="yes"/>
      <point x="1205" y="1213"/>
      <point x="1185" y="1312"/>
      <point x="1180" y="1343"/>
      <point x="1165" y="1359"/>
      <point x="1128" y="1389" type="qcurve" smooth="yes"/>
      <point x="1109" y="1400"/>
      <point x="1027" y="1430"/>
      <point x="1007" y="1440"/>
      <point x="974" y="1455"/>
      <point x="965" y="1459"/>
      <point x="934" y="1472"/>
      <point x="920" y="1476"/>
      <point x="907" y="1480.5" type="qcurve" smooth="yes"/>
      <point x="870.889" y="1493"/>
      <point x="826" y="1493" type="qcurve" smooth="yes"/>
      <point x="657" y="1493"/>
      <point x="569" y="1464" type="qcurve"/>
      <point x="495" y="1444"/>
      <point x="471" y="1427" type="qcurve"/>
      <point x="449" y="1417"/>
      <point x="389" y="1366" type="qcurve"/>
      <point x="242" y="1224"/>
      <point x="212" y="1150" type="qcurve" smooth="yes"/>
      <point x="200" y="1120"/>
      <point x="187" y="1081"/>
      <point x="174" y="1046.5" type="qcurve" smooth="yes"/>
      <point x="137.026" y="948.377"/>
      <point x="139" y="901" type="qcurve"/>
    </contour>
  </outline>
</glyph>
<glyph name="S" format="2">
  <advance width="995"/>
  <unicode hex="0053"/>
  <outline>
    <contour>
      <point x="251" y="98" type="qcurve"/>
      <point x="297.5" y="97" type="line" smooth="yes"/>
      <point x="332" y="97"/>
      <point x="353" y="96" type="qcurve"/>
      <point x="409" y="96" type="line"/>
      <point x="479" y="98" type="line"/>
      <point x="499" y="97" type="line"/>
      <point x="532" y="98" type="line"/>
      <point x="618" y="94" type="line"/>
      <point x="655" y="94"/>
      <point x="729" y="125" type="qcurve"/>
      <point x="734" y="136"/>
      <point x="744" y="142"/>
      <point x="754" y="167"/>
      <point x="785" y="237"/>
      <point x="791" y="279"/>
      <point x="791" y="329"/>
      <point x="792" y="339" type="qcurve"/>
      <point x="792" y="348" type="line" smooth="yes"/>
      <point x="792" y="396"/>
      <point x="787" y="427" type="qcurve"/>
      <point x="770" y="444"/>
      <point x="700" y="502"/>
      <point x="652" y="546"/>
      <point x="635" y="556"/>
      <point x="598" y="570"/>
      <point x="513" y="607"/>
      <point x="305" y="736"/>
      <point x="284" y="760.5" type="qcurve" smooth="yes"/>
      <point x="255.667" y="793.556"/>
      <point x="213" y="823"/>
      <point x="139" y="904"/>
      <point x="93" y="990"/>
      <point x="81" y="1030"/>
      <point x="77" y="1085"/>
      <point x="76" y="1155"/>
      <point x="73" y="1184"/>
      <point x="73" y="1203" type="qcurve" smooth="yes"/>
      <point x="73" y="1220" type="line"/>
      <point x="77" y="1282"/>
      <point x="107" y="1364"/>
      <point x="120" y="1410"/>
      <point x="122" y="1415" type="qcurve" smooth="yes"/>
      <point x="138" y="1453"/>
      <point x="181" y="1478" type="qcurve" smooth="yes"/>
      <point x="193" y="1485"/>
      <point x="219" y="1509" type="qcurve"/>
      <point x="269" y="1542"/>
      <point x="364" y="1549" type="qcurve"/>
      <point x="481" y="1549" type="line"/>
      <point x="516" y="1548"/>
      <point x="583" y="1544" type="qcurve"/>
      <point x="592" y="1544" type="line" smooth="yes"/>
      <point x="633" y="1544"/>
      <point x="668" y="1532"/>
      <point x="730" y="1515"/>
      <point x="770" y="1481" type="qcurve" smooth="yes"/>
      <point x="843" y="1420"/>
      <point x="870" y="1327" type="qcurve" smooth="yes"/>
      <point x="872" y="1321"/>
      <point x="872" y="1304"/>
      <point x="853" y="1283"/>
      <point x="807" y="1267"/>
      <point x="800" y="1267" type="qcurve" smooth="yes"/>
      <point x="798" y="1267" type="line" smooth="yes"/>
      <point x="765" y="1267"/>
      <point x="720" y="1375" type="qcurve" smooth="yes"/>
      <point x="715" y="1383"/>
      <point x="715" y="1386" type="qcurve" smooth="yes"/>
      <point x="708" y="1389"/>
      <point x="689" y="1407"/>
      <point x="640" y="1422"/>
      <point x="609" y="1435" type="qcurve" smooth="yes"/>
      <point x="605" y="1434"/>
      <point x="588" y="1434" type="qcurve" smooth="yes"/>
      <point x="554" y="1433" type="line"/>
      <point x="551" y="1433" type="line"/>
      <point x="463" y="1440" type="line"/>
      <point x="436" y="1440"/>
      <point x="309" y="1424"/>
      <point x="277" y="1413"/>
      <point x="266" y="1403"/>
      <point x="259" y="1398"/>
      <point x="232" y="1381"/>
      <point x="226" y="1375" type="qcurve"/>
      <point x="223" y="1365"/>
      <point x="215" y="1323"/>
      <point x="210" y="1300"/>
      <point x="189" y="1230"/>
      <point x="188" y="1193"/>
      <point x="196" y="1123"/>
      <point x="197" y="1107" type="qcurve" smooth="yes"/>
      <point x="200" y="1047" type="line"/>
      <point x="205" y="1009"/>
      <point x="305" y="906" type="qcurve" smooth="yes"/>
      <point x="317" y="898"/>
      <point x="344" y="866"/>
      <point x="352" y="860"/>
      <point x="357" y="856"/>
      <point x="363" y="850"/>
      <point x="391" y="833"/>
      <point x="494" y="776"/>
      <point x="583" y="720"/>
      <point x="762" y="620"/>
      <point x="860" y="515" type="qcurve" smooth="yes"/>
      <point x="894" y="482"/>
      <point x="902" y="408" type="qcurve" smooth="yes"/>
      <point x="904" y="396"/>
      <point x="904" y="389" type="qcurve" smooth="yes"/>
      <point x="908" y="298" type="line"/>
      <point x="908" y="195"/>
      <point x="847" y="93" type="qcurve"/>
      <point x="771.122" y="-10.4704"/>
      <point x="613" y="-18" type="qcurve"/>
      <point x="588" y="-19" type="line"/>
      <point x="550" y="-19"/>
      <point x="480" y="-13" type="qcurve"/>
      <point x="423" y="-13" type="line"/>
      <point x="387" y="-14" type="line"/>
      <point x="292" y="-14" type="line"/>
      <point x="223" y="-10"/>
      <point x="186" y="0"/>
      <point x="129" y="67" type="qcurve"/>
      <point x="86" y="126"/>
      <point x="60" y="234" type="qcurve" smooth="yes"/>
      <point x="56" y="248"/>
      <point x="56" y="262" type="qcurve" smooth="yes"/>
      <point x="56" y="264" type="line" smooth="yes"/>
      <point x="56" y="303"/>
      <point x="132" y="303" type="qcurve" smooth="yes"/>
      <point x="159" y="303"/>
      <point x="172" y="267"/>
      <point x="182" y="234" type="qcurve" smooth="yes"/>
      <point x="220" y="114"/>
    </contour>
  </outline>
</glyph>
<glyph name="T" format="2">
  <advance width="1536"/>
  <unicode hex="0054"/>
  <outline>
    <contour>
      <point x="647" y="779" type="line"/>
      <point x="646" y="692" type="line" smooth="yes"/>
      <point x="646" y="616"/>
      <point x="674" y="487"/>
      <point x="680" y="383"/>
      <point x="706" y="303"/>
      <point x="728" y="217"/>
      <point x="731" y="208"/>
      <point x="736" y="194"/>
      <point x="742" y="186" type="qcurve" smooth="yes"/>
      <point x="784" y="131"/>
      <point x="795" y="76" type="qcurve"/>
      <point x="795" y="74" type="line" smooth="yes"/>
      <point x="795" y="51"/>
      <point x="733" y="30"/>
      <point x="715" y="30" type="qcurve" smooth="yes"/>
      <point x="711" y="30" type="line" smooth="yes"/>
      <point x="692" y="30"/>
      <point x="677" y="59"/>
      <point x="626" y="134"/>
      <point x="612" y="176" type="qcurve" smooth="yes"/>
      <point x="556" y="345"/>
      <point x="550" y="480"/>
      <point x="536" y="524" type="qcurve"/>
      <point x="520" y="622"/>
      <point x="520" y="657" type="qcurve" smooth="yes"/>
      <point x="514" y="810" type="line"/>
      <point x="514" y="811" type="line"/>
      <point x="513" y="868" type="line"/>
      <point x="513" y="1104"/>
      <point x="602" y="1282" type="qcurve" smooth="yes"/>
      <point x="609" y="1297"/>
      <point x="621" y="1327" type="qcurve" smooth="yes"/>
      <point x="644" y="1384"/>
      <point x="663" y="1418" type="qcurve"/>
      <point x="638" y="1417"/>
      <point x="589" y="1417" type="qcurve" smooth="yes"/>
      <point x="474" y="1421" type="line" smooth="yes"/>
      <point x="438" y="1425"/>
      <point x="404" y="1425"/>
      <point x="373" y="1416"/>
      <point x="308" y="1402" type="qcurve"/>
      <point x="252" y="1384"/>
      <point x="204" y="1355"/>
      <point x="139" y="1316"/>
      <point x="81" y="1278"/>
      <point x="70" y="1278" type="qcurve" smooth="yes"/>
      <point x="46" y="1278"/>
      <point x="16" y="1323" type="qcurve" smooth="yes"/>
      <point x="10" y="1333"/>
      <point x="10" y="1352"/>
      <point x="18" y="1361" type="qcurve" smooth="yes"/>
      <point x="102" y="1461"/>
      <point x="211" y="1496" type="qcurve" smooth="yes"/>
      <point x="245" y="1507"/>
      <point x="319" y="1516"/>
      <point x="412" y="1546"/>
      <point x="527" y="1546" type="qcurve" smooth="yes"/>
      <point x="529" y="1546" type="line"/>
      <point x="711" y="1536" type="line"/>
      <point x="790" y="1537" type="line" smooth="yes"/>
      <point x="819" y="1537"/>
      <point x="859" y="1532" type="qcurve"/>
      <point x="860" y="1532" type="line"/>
      <point x="1053" y="1511"/>
      <point x="1120" y="1480" type="qcurve" smooth="yes"/>
      <point x="1144" y="1469"/>
      <point x="1160" y="1460"/>
      <point x="1184" y="1450" type="qcurve" smooth="yes"/>
      <point x="1279" y="1411"/>
      <point x="1363" y="1333" type="qcurve" smooth="yes"/>
      <point x="1377" y="1319"/>
      <point x="1394" y="1300"/>
      <point x="1405" y="1291"/>
      <point x="1434" y="1264"/>
      <point x="1446" y="1254"/>
      <point x="1465" y="1239"/>
      <point x="1470" y="1234" type="qcurve" smooth="yes"/>
      <point x="1488" y="1216" type="line" smooth="yes"/>
      <point x="1497" y="1207"/>
      <point x="1497" y="1195" type="qcurve" smooth="yes"/>
      <point x="1498" y="1177"/>
      <point x="1472" y="1157" type="qcurve" smooth="yes"/>
      <point x="1440" y="1132"/>
      <point x="1414" y="1132"/>
      <point x="1400" y="1145"/>
      <point x="1385" y="1160"/>
      <point x="1379" y="1165"/>
      <point x="1364" y="1178"/>
      <point x="1340" y="1196"/>
      <point x="1294" y="1243"/>
      <point x="1263" y="1266"/>
      <point x="1214" y="1296"/>
      <point x="1152" y="1330"/>
      <point x="1105" y="1360"/>
      <point x="1065" y="1378"/>
      <point x="990" y="1391" type="qcurve" smooth="yes"/>
      <point x="832" y="1415" type="line" smooth="yes"/>
      <point x="814" y="1418"/>
      <point x="801" y="1418" type="qcurve"/>
      <point x="781" y="1370"/>
      <point x="724" y="1268"/>
      <point x="716" y="1248" type="qcurve" smooth="yes"/>
      <point x="646" y="1084"/>
      <point x="647" y="924"/>
      <point x="647" y="812" type="qcurve" smooth="yes"/>
    </contour>
  </outline>
</glyph>
<glyph name="U" format="2">
  <advance width="1705"/>
  <unicode hex="0055"/>
  <outline>
    <contour>
      <point x="1651" y="977" type="line"/>
      <point x="1647" y="874" type="line"/>
      <point x="1647" y="872" type="line" smooth="yes"/>
      <point x="1647" y="756"/>
      <point x="1637" y="699" type="qcurve" smooth="yes"/>
      <point x="1611" y="552"/>
      <point x="1567" y="354" type="qcurve"/>
      <point x="1553" y="318"/>
      <point x="1524" y="281"/>
      <point x="1478" y="218"/>
      <point x="1373" y="119"/>
      <point x="1265" y="56"/>
      <point x="1209.5" y="42.5" type="qcurve" smooth="yes"/>
      <point x="1154" y="28"/>
      <point x="1137" y="24" type="qcurve" smooth="yes"/>
      <point x="1015" y="-8"/>
      <point x="651" y="37" type="qcurve" smooth="yes"/>
      <point x="513" y="54"/>
      <point x="469" y="78" type="qcurve"/>
      <point x="378" y="117"/>
      <point x="279" y="274" type="qcurve"/>
      <point x="241" y="326"/>
      <point x="163" y="506"/>
      <point x="145" y="580" type="qcurve"/>
      <point x="72" y="814"/>
      <point x="72" y="1001" type="qcurve" smooth="yes"/>
      <point x="74" y="1098" type="line"/>
      <point x="66" y="1257" type="line" smooth="yes"/>
      <point x="66" y="1291"/>
      <point x="68" y="1307" type="qcurve" smooth="yes"/>
      <point x="81" y="1426"/>
      <point x="111" y="1485" type="qcurve" smooth="yes"/>
      <point x="112" y="1487"/>
      <point x="113" y="1492" type="qcurve" smooth="yes"/>
      <point x="118" y="1516"/>
      <point x="137" y="1546" type="qcurve"/>
      <point x="144" y="1577"/>
      <point x="193" y="1634" type="qcurve"/>
      <point x="197" y="1634" type="line" smooth="yes"/>
      <point x="201" y="1636"/>
      <point x="223" y="1636"/>
      <point x="236" y="1624"/>
      <point x="242.5" y="1618.5" type="qcurve" smooth="yes"/>
      <point x="249" y="1614"/>
      <point x="253" y="1610" type="qcurve" smooth="yes"/>
      <point x="276" y="1590"/>
      <point x="276" y="1573" type="qcurve" smooth="yes"/>
      <point x="276" y="1554"/>
      <point x="268" y="1546" type="qcurve" smooth="yes"/>
      <point x="250" y="1528"/>
      <point x="245" y="1516"/>
      <point x="240" y="1511" type="qcurve"/>
      <point x="240" y="1501"/>
      <point x="232" y="1481" type="qcurve" smooth="yes"/>
      <point x="214" y="1440"/>
      <point x="209" y="1390"/>
      <point x="205" y="1382" type="qcurve" smooth="yes"/>
      <point x="204" y="1367"/>
      <point x="202" y="1307"/>
      <point x="201" y="1292" type="qcurve" smooth="yes"/>
      <point x="188" y="1122" type="line"/>
      <point x="193" y="1001" type="line"/>
      <point x="188" y="915" type="line"/>
      <point x="190" y="893" type="line" smooth="yes"/>
      <point x="192" y="885"/>
      <point x="216" y="796"/>
      <point x="232" y="729" type="qcurve" smooth="yes"/>
      <point x="293" y="474"/>
      <point x="379" y="352" type="qcurve" smooth="yes"/>
      <point x="467" y="234"/>
      <point x="535" y="193" type="qcurve" smooth="yes"/>
      <point x="538" y="192"/>
      <point x="560" y="178"/>
      <point x="565" y="178" type="qcurve" smooth="yes"/>
      <point x="569" y="178" type="line"/>
      <point x="619" y="164"/>
      <point x="689" y="163.5" type="qcurve" smooth="yes"/>
      <point x="760" y="162"/>
      <point x="786" y="162" type="qcurve" smooth="yes"/>
      <point x="842" y="161"/>
      <point x="956" y="152"/>
      <point x="1040" y="152" type="qcurve"/>
      <point x="1081" y="150" type="line" smooth="yes"/>
      <point x="1095" y="150"/>
      <point x="1130" y="159" type="qcurve" smooth="yes"/>
      <point x="1164" y="168"/>
      <point x="1188" y="174" type="qcurve" smooth="yes"/>
      <point x="1236" y="186"/>
      <point x="1275" y="208"/>
      <point x="1325" y="255"/>
      <point x="1396" y="310"/>
      <point x="1433" y="358"/>
      <point x="1458" y="387" type="qcurve"/>
      <point x="1462" y="434"/>
      <point x="1491" y="575" type="qcurve" smooth="yes"/>
      <point x="1509" y="668" type="line"/>
      <point x="1516" y="769"/>
      <point x="1528" y="846"/>
      <point x="1530" y="869"/>
      <point x="1530" y="884" type="qcurve" smooth="yes"/>
      <point x="1531" y="909"/>
      <point x="1536" y="928" type="qcurve"/>
      <point x="1536" y="1024" type="line" smooth="yes"/>
      <point x="1536" y="1093"/>
      <point x="1524" y="1200"/>
      <point x="1509" y="1256" type="qcurve" smooth="yes"/>
      <point x="1483" y="1354"/>
      <point x="1474" y="1378"/>
      <point x="1455.5" y="1439.5" type="qcurve" smooth="yes"/>
      <point x="1438" y="1500"/>
      <point x="1436" y="1510" type="qcurve" smooth="yes"/>
      <point x="1434" y="1523"/>
      <point x="1428" y="1529" type="qcurve" smooth="yes"/>
      <point x="1415" y="1542"/>
      <point x="1415" y="1578"/>
      <point x="1458" y="1613"/>
      <point x="1477" y="1622"/>
      <point x="1489" y="1622" type="qcurve" smooth="yes"/>
      <point x="1500" y="1622"/>
      <point x="1518" y="1600" type="qcurve" smooth="yes"/>
      <point x="1542" y="1570"/>
      <point x="1588" y="1400"/>
      <point x="1600" y="1367" type="qcurve" smooth="yes"/>
      <point x="1647" y="1243"/>
      <point x="1651" y="1139" type="qcurve" smooth="yes"/>
      <point x="1651" y="1137" type="line"/>
      <point x="1649" y="1049" type="line"/>
    </contour>
  </outline>
</glyph>
